<?xml version="1.0" encoding="UTF-8" standalone="no"?>
<!-- Generator: Adobe Illustrator 14.0.0, SVG Export Plug-In . SVG Version: 6.00 Build 43363)  -->

<svg
   xmlns:dc="http://purl.org/dc/elements/1.1/"
   xmlns:cc="http://creativecommons.org/ns#"
   xmlns:rdf="http://www.w3.org/1999/02/22-rdf-syntax-ns#"
   xmlns:svg="http://www.w3.org/2000/svg"
   xmlns="http://www.w3.org/2000/svg"
   xmlns:sodipodi="http://sodipodi.sourceforge.net/DTD/sodipodi-0.dtd"
   xmlns:inkscape="http://www.inkscape.org/namespaces/inkscape"
   version="1.0"
   id="Layer_1"
   x="0px"
   y="0px"
   width="74.699997"
   height="47.841999"
   viewBox="0 0 74.699997 47.841999"
   enable-background="new 0 0 100 53.667"
   xml:space="preserve"
   inkscape:version="0.48.1 r9760"
   sodipodi:docname="application.svg"><metadata
   id="metadata3082"><rdf:RDF><cc:Work
       rdf:about=""><dc:format>image/svg+xml</dc:format><dc:type
         rdf:resource="http://purl.org/dc/dcmitype/StillImage" /><dc:title /></cc:Work></rdf:RDF></metadata><defs
   id="defs3080" /><sodipodi:namedview
   pagecolor="#ffffff"
   bordercolor="#666666"
   borderopacity="1"
   objecttolerance="10"
   gridtolerance="10"
   guidetolerance="10"
   inkscape:pageopacity="0"
   inkscape:pageshadow="2"
   inkscape:window-width="1280"
   inkscape:window-height="776"
   id="namedview3078"
   showgrid="false"
   inkscape:zoom="5.21"
   inkscape:cx="27.291636"
   inkscape:cy="14.464661"
   inkscape:window-x="0"
   inkscape:window-y="24"
   inkscape:window-maximized="1"
   inkscape:current-layer="Layer_1"
   fit-margin-top="0"
   fit-margin-left="0"
   fit-margin-right="0"
   fit-margin-bottom="0" />


<path
   d="M 2.53125 0 C 1.14025 0 0 1.1402503 0 2.53125 L 0 45.3125 C 0 46.7045 1.14025 47.84375 2.53125 47.84375 L 72.1875 47.84375 C 73.5815 47.84375 74.6875 46.7045 74.6875 45.3125 L 74.6875 2.53125 C 74.6865 1.1402503 73.5815 1.4456029e-19 72.1875 0 L 2.53125 0 z M 2.71875 2.9375 L 22.53125 2.9375 L 22.53125 7.96875 L 2.71875 7.96875 L 2.71875 2.9375 z M 23.28125 2.9375 L 71.40625 2.9375 L 71.40625 44.90625 L 23.28125 44.90625 L 23.28125 2.9375 z M 2.71875 8.9375 L 22.53125 8.9375 L 22.53125 13.96875 L 2.71875 13.96875 L 2.71875 8.9375 z M 2.71875 14.9375 L 22.53125 14.9375 L 22.53125 19.96875 L 2.71875 19.96875 L 2.71875 14.9375 z "
   id="path3265" /></svg>