<?xml version="1.0" encoding="UTF-8" standalone="no"?>
<!-- Generator: Adobe Illustrator 14.0.0, SVG Export Plug-In . SVG Version: 6.00 Build 43363)  -->

<svg
   xmlns:dc="http://purl.org/dc/elements/1.1/"
   xmlns:cc="http://creativecommons.org/ns#"
   xmlns:rdf="http://www.w3.org/1999/02/22-rdf-syntax-ns#"
   xmlns:svg="http://www.w3.org/2000/svg"
   xmlns="http://www.w3.org/2000/svg"
   xmlns:sodipodi="http://sodipodi.sourceforge.net/DTD/sodipodi-0.dtd"
   xmlns:inkscape="http://www.inkscape.org/namespaces/inkscape"
   version="1.0"
   id="Layer_1"
   x="0px"
   y="0px"
   width="74.691277"
   height="51.78125"
   viewBox="0 0 74.691277 51.78125"
   enable-background="new 0 0 100 53.667"
   xml:space="preserve"
   inkscape:version="0.48.1 r9760"
   sodipodi:docname="browser.svg"><metadata
   id="metadata3082"><rdf:RDF><cc:Work
       rdf:about=""><dc:format>image/svg+xml</dc:format><dc:type
         rdf:resource="http://purl.org/dc/dcmitype/StillImage" /><dc:title></dc:title></cc:Work></rdf:RDF></metadata><defs
   id="defs3080" /><sodipodi:namedview
   pagecolor="#ffffff"
   bordercolor="#666666"
   borderopacity="1"
   objecttolerance="10"
   gridtolerance="10"
   guidetolerance="10"
   inkscape:pageopacity="0"
   inkscape:pageshadow="2"
   inkscape:window-width="1280"
   inkscape:window-height="776"
   id="namedview3078"
   showgrid="false"
   inkscape:zoom="3.6840263"
   inkscape:cx="121.78244"
   inkscape:cy="-2.7066206"
   inkscape:window-x="0"
   inkscape:window-y="24"
   inkscape:window-maximized="1"
   inkscape:current-layer="Layer_1"
   fit-margin-top="0"
   fit-margin-left="0"
   fit-margin-right="0"
   fit-margin-bottom="0" />
<path
   d="m 2.5037776,0 c -1.391,0 -2.49999999,1.14025 -2.49999999,2.53125 l 0,3.9375 0,2.84375 c 0,0.087 -0.0085,0.1466364 0,0.1875 l 0,39.75 c 0,1.392 1.10899999,2.53125 2.49999999,2.53125 l 69.6562504,0 c 1.394,0 2.53125,-1.13925 2.53125,-2.53125 l 0,-42.78125 c -10e-4,-1.391 -1.13725,-2.53125 -2.53125,-2.53125 l -45.46875,0 0,-1.40625 C 26.690278,1.14025 25.554028,0 24.160028,0 z m 2.75,6.03125 64.5781254,0 c 1.817698,-0.072728 2.4375,1.4058616 2.4375,2.78125 0,1.392 -1.13725,2.5 -2.53125,2.5 l -64.5781254,0 c -1.391,0 -2.53125,-1.108 -2.53125,-2.5 -0.106305,-1.7181008 1.275631,-2.7398105 2.625,-2.78125 z m -1.96875,7.84425 68.1250004,0 0,34.96825 -68.1250004,0 z"
   id="path3074"
   inkscape:connector-curvature="0"
   sodipodi:nodetypes="sscscsssscsccssccsssccccccc" />

</svg>