<?xml version="1.0" encoding="UTF-8" standalone="no"?>
<!-- Generator: Adobe Illustrator 14.0.0, SVG Export Plug-In . SVG Version: 6.00 Build 43363)  -->

<svg
   xmlns:dc="http://purl.org/dc/elements/1.1/"
   xmlns:cc="http://creativecommons.org/ns#"
   xmlns:rdf="http://www.w3.org/1999/02/22-rdf-syntax-ns#"
   xmlns:svg="http://www.w3.org/2000/svg"
   xmlns="http://www.w3.org/2000/svg"
   xmlns:sodipodi="http://sodipodi.sourceforge.net/DTD/sodipodi-0.dtd"
   xmlns:inkscape="http://www.inkscape.org/namespaces/inkscape"
   version="1.0"
   id="Layer_1"
   x="0px"
   y="0px"
   width="74.691277"
   height="51.78125"
   viewBox="0 0 74.691277 51.78125"
   enable-background="new 0 0 100 53.667"
   xml:space="preserve"
   inkscape:version="0.48.2 r9819"
   sodipodi:docname="browser-application.svg"><metadata
   id="metadata3082"><rdf:RDF><cc:Work
       rdf:about=""><dc:format>image/svg+xml</dc:format><dc:type
         rdf:resource="http://purl.org/dc/dcmitype/StillImage" /><dc:title></dc:title></cc:Work></rdf:RDF></metadata><defs
   id="defs3080" /><sodipodi:namedview
   pagecolor="#ffffff"
   bordercolor="#666666"
   borderopacity="1"
   objecttolerance="10"
   gridtolerance="10"
   guidetolerance="10"
   inkscape:pageopacity="0"
   inkscape:pageshadow="2"
   inkscape:window-width="1280"
   inkscape:window-height="774"
   id="namedview3078"
   showgrid="false"
   inkscape:zoom="2.605"
   inkscape:cx="212.61499"
   inkscape:cy="-35.650354"
   inkscape:window-x="0"
   inkscape:window-y="26"
   inkscape:window-maximized="1"
   inkscape:current-layer="Layer_1"
   fit-margin-top="0"
   fit-margin-left="0"
   fit-margin-right="0"
   fit-margin-bottom="0" />
<path
   d="M 2.5 0 C 1.109 0 2.8912058e-19 1.14025 0 2.53125 L 0 6.46875 L 0 9.3125 C 0 9.3995 -0.0084999999 9.4591364 0 9.5 L 0 13.875 L 0 48.65625 L 0 49.25 C 0 50.642 1.109 51.78125 2.5 51.78125 L 72.15625 51.78125 C 73.55025 51.78125 74.6875 50.642 74.6875 49.25 L 74.6875 48.65625 L 74.6875 13.875 L 74.6875 6.46875 C 74.6865 5.07775 73.55025 3.9375 72.15625 3.9375 L 26.6875 3.9375 L 26.6875 2.53125 C 26.6865 1.14025 25.55025 0 24.15625 0 L 2.5 0 z M 5.25 6.03125 L 69.84375 6.03125 C 71.661448 5.958522 72.28125 7.4371116 72.28125 8.8125 C 72.28125 10.2045 71.144 11.3125 69.75 11.3125 L 5.15625 11.3125 C 3.76525 11.3125 2.625 10.2045 2.625 8.8125 C 2.518695 7.0943992 3.900631 6.0726895 5.25 6.03125 z M 3.28125 13.875 L 22.53125 13.875 L 22.53125 19.3125 L 3.28125 19.3125 L 3.28125 13.875 z M 23.28125 13.875 L 71.40625 13.875 L 71.40625 48.84375 L 23.28125 48.84375 L 23.28125 13.875 z M 3.28125 20.28125 L 22.53125 20.28125 L 22.53125 25.3125 L 3.28125 25.3125 L 3.28125 20.28125 z M 3.28125 26.28125 L 22.53125 26.28125 L 22.53125 31.3125 L 3.28125 31.3125 L 3.28125 26.28125 z "
   id="path3074"
   style="fill:#ffffff" />

</svg>