<?xml version="1.0" encoding="UTF-8" standalone="no"?>
<!-- Creator: Stimoroll -->

<svg
   xmlns:dc="http://purl.org/dc/elements/1.1/"
   xmlns:cc="http://creativecommons.org/ns#"
   xmlns:rdf="http://www.w3.org/1999/02/22-rdf-syntax-ns#"
   xmlns:svg="http://www.w3.org/2000/svg"
   xmlns="http://www.w3.org/2000/svg"
   xmlns:sodipodi="http://sodipodi.sourceforge.net/DTD/sodipodi-0.dtd"
   xmlns:inkscape="http://www.inkscape.org/namespaces/inkscape"
   xml:space="preserve"
   width="403.16"
   height="403.16"
   style="fill-rule:evenodd"
   viewBox="0 0 113.7807 113.78071"
   inkscape:version="0.48.1 r9760"
   sodipodi:docname="settings.svg"
   sodipodi:version="0.32"
   id="svg2"
   version="1.1"><sodipodi:namedview
   pagecolor="#ffffff"
   bordercolor="#666666"
   borderopacity="1"
   objecttolerance="10"
   gridtolerance="10"
   guidetolerance="10"
   inkscape:pageopacity="0"
   inkscape:pageshadow="2"
   inkscape:window-width="1440"
   inkscape:window-height="871"
   id="namedview9"
   showgrid="false"
   fit-margin-top="0"
   fit-margin-left="0"
   fit-margin-right="0"
   fit-margin-bottom="0"
   inkscape:zoom="0.73890906"
   inkscape:cx="201.9686"
   inkscape:cy="220.98918"
   inkscape:window-x="0"
   inkscape:window-y="0"
   inkscape:window-maximized="1"
   inkscape:current-layer="svg2" />
    <metadata
   id="metadata14"><rdf:RDF><cc:Work
       rdf:about=""><dc:format>image/svg+xml</dc:format><dc:type
         rdf:resource="http://purl.org/dc/dcmitype/StillImage" /></cc:Work></rdf:RDF></metadata>
 <defs
   id="defs4">
  <style
   type="text/css"
   id="style6">
   
    .str0 {stroke:white;stroke-width:8;stroke-linecap:round;stroke-linejoin:round}
    .fil0 {fill:black}
    .bckg {background: -webkit-gradient(linear, left top, left bottom, from(#666666), to(#000));}
   
  </style>
 </defs>
 <g
   id="Cog"
   inkscape:label="#Cog"
   transform="translate(2.0000252,1.1869576)">
  <metadata
   id="0Layer" />
  <path
   id="path908"
   class="str0 bckg"
   d="m 48.7051,2.8064 -4.3823,22.6019 c -2.2178,0.6508 -0.4376,-0.0621 -2.4279,1.0273 L 21.6928,14.0843 13.1104,22.6667 25.8372,42.1776 c -1.096,1.9968 -0.4977,0.4011 -1.1518,2.6275 l -22.6958,4.9401 0,12.1295 22.6012,4.438 c 0.653,2.2361 0.2736,1.2365 1.3721,3.2416 L 13.2675,88.887 21.8499,97.4694 41.1161,84.7626 c 2.0082,1.1026 0.3817,0.3577 2.622,1.0131 l 5.182,22.8145 12.1378,0 4.4301,-22.5732 c 2.2405,-0.6569 1.0913,-0.213 3.0994,-1.3171 L 88.0619,97.3123 96.6443,88.7299 83.7781,69.6716 c 1.0945,-2.0022 0.7727,-1.3704 1.4233,-3.6025 l 22.572,-4.4094 0,-12.1378 -22.6131,-4.4362 C 84.5057,42.8638 84.9998,44.1424 83.905,42.1494 L 96.4955,22.5179 87.9131,13.9355 68.8265,26.8283 C 66.836,25.7402 67.8618,26.2142 65.644,25.5647 l -4.8094,-22.7583 -12.1295,0 z m 23.9147,52.2401 c 0,9.2519 -7.5087,16.7606 -16.7606,16.7606 -9.2519,0 -16.7606,-7.5087 -16.7606,-16.7606 0,-9.2518 7.5087,-16.7606 16.7606,-16.7606 9.2519,0 16.7606,7.5088 16.7606,16.7606 z" />
 </g>
</svg>
