<?xml version="1.0" encoding="UTF-8" standalone="no"?>
<!-- Generator: Adobe Illustrator 15.1.0, SVG Export Plug-In . SVG Version: 6.00 Build 0)  -->

<svg
   xmlns:dc="http://purl.org/dc/elements/1.1/"
   xmlns:cc="http://creativecommons.org/ns#"
   xmlns:rdf="http://www.w3.org/1999/02/22-rdf-syntax-ns#"
   xmlns:svg="http://www.w3.org/2000/svg"
   xmlns="http://www.w3.org/2000/svg"
   xmlns:sodipodi="http://sodipodi.sourceforge.net/DTD/sodipodi-0.dtd"
   xmlns:inkscape="http://www.inkscape.org/namespaces/inkscape"
   version="1.1"
   id="Layer_1"
   x="0px"
   y="0px"
   width="100px"
   height="83px"
   viewBox="0 0 100 83"
   enable-background="new 0 0 100 83"
   xml:space="preserve"
   inkscape:version="0.48.2 r9819"
   sodipodi:docname="desktop.svg"><metadata
   id="metadata2997"><rdf:RDF><cc:Work
       rdf:about=""><dc:format>image/svg+xml</dc:format><dc:type
         rdf:resource="http://purl.org/dc/dcmitype/StillImage" /><dc:title></dc:title></cc:Work></rdf:RDF></metadata><defs
   id="defs2995" /><sodipodi:namedview
   pagecolor="#ffffff"
   bordercolor="#666666"
   borderopacity="1"
   objecttolerance="10"
   gridtolerance="10"
   guidetolerance="10"
   inkscape:pageopacity="0"
   inkscape:pageshadow="2"
   inkscape:window-width="640"
   inkscape:window-height="480"
   id="namedview2993"
   showgrid="false"
   inkscape:zoom="2.8433735"
   inkscape:cx="50"
   inkscape:cy="41.5"
   inkscape:window-x="0"
   inkscape:window-y="26"
   inkscape:window-maximized="0"
   inkscape:current-layer="Layer_1" />
<path
   d="M99.981,2.312C99.884,1.021,98.816,0,97.5,0h-95C1.184,0,0.116,1.021,0.019,2.312L0,66.5C0,67.881,1.119,69,2.5,69h95  c1.381,0,2.5-1.119,2.5-2.5L99.981,2.312z M96,57H4V4h92V57z"
   id="path2989"
   style="fill:#ffffff" />
<path
   d="M66,81c-4-1-5-4-5-8v-1H50H39v1c0,4-1,7-5,8c-0.97,0.242-1,2,0,2h16h16C67,83,66.97,81.242,66,81z"
   id="path2991"
   style="fill:#ffffff" />
</svg>