<?xml version="1.0" encoding="UTF-8" standalone="no"?>
<!-- Created with Inkscape (http://www.inkscape.org/) -->

<svg
   xmlns:dc="http://purl.org/dc/elements/1.1/"
   xmlns:cc="http://creativecommons.org/ns#"
   xmlns:rdf="http://www.w3.org/1999/02/22-rdf-syntax-ns#"
   xmlns:svg="http://www.w3.org/2000/svg"
   xmlns="http://www.w3.org/2000/svg"
   xmlns:xlink="http://www.w3.org/1999/xlink"
   xmlns:sodipodi="http://sodipodi.sourceforge.net/DTD/sodipodi-0.dtd"
   xmlns:inkscape="http://www.inkscape.org/namespaces/inkscape"
   version="1.1"
   width="221.98178"
   height="70"
   id="svg2"
   xml:space="preserve"
   inkscape:version="0.48.2 r9819"
   sodipodi:docname="donor-duckduckgo.svg"><sodipodi:namedview
     pagecolor="#ffffff"
     bordercolor="#666666"
     borderopacity="1"
     objecttolerance="10"
     gridtolerance="10"
     guidetolerance="10"
     inkscape:pageopacity="0"
     inkscape:pageshadow="2"
     inkscape:window-width="1280"
     inkscape:window-height="774"
     id="namedview70"
     showgrid="false"
     inkscape:zoom="1.2725"
     inkscape:cx="151.77846"
     inkscape:cy="75.223925"
     inkscape:window-x="0"
     inkscape:window-y="26"
     inkscape:window-maximized="1"
     inkscape:current-layer="svg2"
     fit-margin-top="0"
     fit-margin-left="0"
     fit-margin-right="0"
     fit-margin-bottom="0" /><metadata
     id="metadata8"><rdf:RDF><cc:Work
         rdf:about=""><dc:format>image/svg+xml</dc:format><dc:type
           rdf:resource="http://purl.org/dc/dcmitype/StillImage" /><dc:title /></cc:Work></rdf:RDF></metadata><defs
     id="defs6"><clipPath
       id="clipPath16"><path
         d="M 0,720 720,720 720,0 0,0 0,720 z"
         id="path18"
         inkscape:connector-curvature="0" /></clipPath><clipPath
       id="clipPath26"><path
         d="m 200.978,431.179 c 0,83.87 67.976,151.846 151.846,151.846 83.864,0 151.867,-67.976 151.867,-151.846 0,-83.857 -68.003,-151.847 -151.867,-151.847 -83.87,0 -151.846,67.99 -151.846,151.847"
         id="path28"
         inkscape:connector-curvature="0" /></clipPath><clipPath
       id="clipPath54"><path
         d="m 347.15,332.338 c 0,0 -36.141,19.277 -36.743,11.457 -0.608,-7.834 0,-39.758 4.211,-42.178 4.225,-2.406 34.344,15.661 34.344,15.661 l -1.812,15.06 z"
         id="path56"
         inkscape:connector-curvature="0" /></clipPath><linearGradient
       x1="0"
       y1="0"
       x2="1"
       y2="0"
       id="linearGradient62"
       gradientUnits="userSpaceOnUse"
       gradientTransform="matrix(38.754883,0,0,-38.754883,310.20703,323.5293)"
       spreadMethod="pad"><stop
         id="stop64"
         style="stop-color:#b4d66f;stop-opacity:1"
         offset="0" /><stop
         id="stop66"
         style="stop-color:#0db14b;stop-opacity:1"
         offset="0.69101101" /><stop
         id="stop68"
         style="stop-color:#0db14b;stop-opacity:1"
         offset="0.69101101" /><stop
         id="stop70"
         style="stop-color:#0db14b;stop-opacity:1"
         offset="1" /></linearGradient><clipPath
       id="clipPath78"><path
         d="m 361.007,333.555 c 0,0 24.705,18.675 30.126,17.472 5.421,-1.216 6.624,-39.764 1.798,-41.589 -4.82,-1.792 -33.086,9.789 -33.086,9.789 l 1.162,14.328 z"
         id="path80"
         inkscape:connector-curvature="0" /></clipPath><linearGradient
       x1="0"
       y1="0"
       x2="1"
       y2="0"
       id="linearGradient86"
       gradientUnits="userSpaceOnUse"
       gradientTransform="matrix(36.111328,0,0,-36.111328,359.84473,330.16602)"
       spreadMethod="pad"><stop
         id="stop88"
         style="stop-color:#b4d66f;stop-opacity:1"
         offset="0" /><stop
         id="stop90"
         style="stop-color:#0db14b;stop-opacity:1"
         offset="0.69101101" /><stop
         id="stop92"
         style="stop-color:#0db14b;stop-opacity:1"
         offset="0.69101101" /><stop
         id="stop94"
         style="stop-color:#0db14b;stop-opacity:1"
         offset="1" /></linearGradient><clipPath
       id="clipPath102"><path
         d="m 339.925,332.338 c 0,-12.64 -1.805,-18.074 3.616,-19.271 5.421,-1.21 15.654,0 19.277,2.407 3.61,2.413 0.595,18.669 -0.608,21.697 -1.203,3.001 -22.285,0.588 -22.285,-4.833"
         id="path104"
         inkscape:connector-curvature="0" /></clipPath><linearGradient
       x1="0"
       y1="0"
       x2="1"
       y2="0"
       id="linearGradient110"
       gradientUnits="userSpaceOnUse"
       gradientTransform="matrix(24.898437,0,0,-24.898437,339.63672,325.53418)"
       spreadMethod="pad"><stop
         id="stop112"
         style="stop-color:#73c063;stop-opacity:1"
         offset="0" /><stop
         id="stop114"
         style="stop-color:#0db14b;stop-opacity:1"
         offset="1" /></linearGradient><linearGradient
       inkscape:collect="always"
       xlink:href="#linearGradient62"
       id="linearGradient3047"
       gradientUnits="userSpaceOnUse"
       gradientTransform="matrix(38.754883,0,0,-38.754883,310.20703,323.5293)"
       spreadMethod="pad"
       x1="0"
       y1="0"
       x2="1"
       y2="0" /><linearGradient
       inkscape:collect="always"
       xlink:href="#linearGradient86"
       id="linearGradient3049"
       gradientUnits="userSpaceOnUse"
       gradientTransform="matrix(36.111328,0,0,-36.111328,359.84473,330.16602)"
       spreadMethod="pad"
       x1="0"
       y1="0"
       x2="1"
       y2="0" /><linearGradient
       inkscape:collect="always"
       xlink:href="#linearGradient110"
       id="linearGradient3051"
       gradientUnits="userSpaceOnUse"
       gradientTransform="matrix(24.898437,0,0,-24.898437,339.63672,325.53418)"
       spreadMethod="pad"
       x1="0"
       y1="0"
       x2="1"
       y2="0" /><linearGradient
       inkscape:collect="always"
       xlink:href="#linearGradient62"
       id="linearGradient3090"
       gradientUnits="userSpaceOnUse"
       gradientTransform="matrix(38.754883,0,0,-38.754883,310.20703,323.5293)"
       spreadMethod="pad"
       x1="0"
       y1="0"
       x2="1"
       y2="0" /><linearGradient
       inkscape:collect="always"
       xlink:href="#linearGradient86"
       id="linearGradient3092"
       gradientUnits="userSpaceOnUse"
       gradientTransform="matrix(36.111328,0,0,-36.111328,359.84473,330.16602)"
       spreadMethod="pad"
       x1="0"
       y1="0"
       x2="1"
       y2="0" /><linearGradient
       inkscape:collect="always"
       xlink:href="#linearGradient110"
       id="linearGradient3094"
       gradientUnits="userSpaceOnUse"
       gradientTransform="matrix(24.898437,0,0,-24.898437,339.63672,325.53418)"
       spreadMethod="pad"
       x1="0"
       y1="0"
       x2="1"
       y2="0" /><linearGradient
       inkscape:collect="always"
       xlink:href="#linearGradient62"
       id="linearGradient3138"
       gradientUnits="userSpaceOnUse"
       gradientTransform="matrix(38.754883,0,0,-38.754883,310.20703,323.5293)"
       spreadMethod="pad"
       x1="0"
       y1="0"
       x2="1"
       y2="0" /><linearGradient
       inkscape:collect="always"
       xlink:href="#linearGradient86"
       id="linearGradient3140"
       gradientUnits="userSpaceOnUse"
       gradientTransform="matrix(36.111328,0,0,-36.111328,359.84473,330.16602)"
       spreadMethod="pad"
       x1="0"
       y1="0"
       x2="1"
       y2="0" /><linearGradient
       inkscape:collect="always"
       xlink:href="#linearGradient110"
       id="linearGradient3142"
       gradientUnits="userSpaceOnUse"
       gradientTransform="matrix(24.898437,0,0,-24.898437,339.63672,325.53418)"
       spreadMethod="pad"
       x1="0"
       y1="0"
       x2="1"
       y2="0" /><linearGradient
       inkscape:collect="always"
       xlink:href="#linearGradient62"
       id="linearGradient3224"
       gradientUnits="userSpaceOnUse"
       gradientTransform="matrix(38.754883,0,0,-38.754883,310.20703,323.5293)"
       spreadMethod="pad"
       x1="0"
       y1="0"
       x2="1"
       y2="0" /><linearGradient
       inkscape:collect="always"
       xlink:href="#linearGradient86"
       id="linearGradient3226"
       gradientUnits="userSpaceOnUse"
       gradientTransform="matrix(36.111328,0,0,-36.111328,359.84473,330.16602)"
       spreadMethod="pad"
       x1="0"
       y1="0"
       x2="1"
       y2="0" /><linearGradient
       inkscape:collect="always"
       xlink:href="#linearGradient110"
       id="linearGradient3228"
       gradientUnits="userSpaceOnUse"
       gradientTransform="matrix(24.898437,0,0,-24.898437,339.63672,325.53418)"
       spreadMethod="pad"
       x1="0"
       y1="0"
       x2="1"
       y2="0" /></defs><g
     id="g3193"
     transform="matrix(1.0090081,0,0,1.0090081,-38.931168,-2.63251)"><path
       d="m 40.133185,36.945222 c 0,-18.227716 14.773382,-33.001141 33.001045,-33.001141 18.226359,0 33.00561,14.773425 33.00561,33.001141 0,18.22489 -14.779251,33.001358 -33.00561,33.001358 -18.227663,0 -33.001045,-14.776468 -33.001045,-33.001358"
       id="path20"
       style="fill:#ec2027;fill-opacity:1;fill-rule:nonzero;stroke:none"
       inkscape:connector-curvature="0" /><g
       transform="matrix(0.21733233,0,0,-0.21733296,-3.545832,130.65463)"
       id="g22"><g
         clip-path="url(#clipPath26)"
         id="g24"><path
           d="m 404.477,225.273 c -4.704,21.616 -31.999,70.561 -42.349,91.26 -10.343,20.699 -20.706,49.875 -15.996,68.701 0.847,3.418 -8.969,29.511 -6.139,31.35 21.957,14.335 27.754,-1.559 36.552,4.867 4.539,3.322 10.664,-2.734 12.25,2.762 5.64,19.756 -7.848,54.182 -22.894,69.234 -4.908,4.908 -12.448,7.985 -20.959,9.625 -3.26,4.471 -8.531,8.764 -15.996,12.729 -8.34,4.429 -26.427,10.281 -35.82,11.84 -6.494,1.066 -7.957,-0.752 -10.732,-1.21 2.584,-0.226 14.868,-6.296 17.267,-6.652 -2.399,-1.613 -9.427,0.075 -13.904,-1.934 -2.263,-1.019 -3.951,-4.902 -3.938,-6.734 12.825,1.292 32.827,0.035 44.639,-5.222 -9.406,-1.067 -23.7,-2.256 -29.853,-5.496 -17.876,-9.42 -25.757,-31.412 -21.061,-57.764 4.717,-26.339 25.416,-122.322 32.006,-154.315 6.59,-32.005 -14.123,-52.698 -27.289,-58.337 l 14.123,-0.951 -4.717,-10.356 c 16.939,-1.873 35.759,3.76 35.759,3.76 -3.767,-10.343 -29.169,-14.117 -29.169,-14.117 0,0 12.236,-3.752 31.992,3.774 19.756,7.526 31.985,12.229 31.985,12.229 l 9.42,-24.459 17.883,17.87 7.526,-18.82 c 0,0 14.11,4.71 9.414,26.366"
           id="path30"
           style="fill:#cccdce;fill-opacity:1;fill-rule:nonzero;stroke:none"
           inkscape:connector-curvature="0" /><path
           d="m 408.605,229.396 c -4.696,21.635 -31.992,70.581 -42.348,91.28 -10.35,20.699 -20.699,49.875 -15.996,68.687 0.861,3.418 0.882,17.405 3.718,19.264 21.958,14.335 20.399,0.478 29.197,6.904 4.539,3.309 8.169,7.315 9.748,12.818 5.653,19.762 -7.834,54.181 -22.894,69.241 -4.901,4.901 -12.434,7.984 -20.938,9.611 -3.281,4.485 -8.552,8.778 -16.017,12.742 -14.068,7.479 -31.513,10.459 -47.667,7.527 2.584,-0.24 8.497,-5.578 10.883,-5.934 -3.609,-2.44 -13.193,-2.126 -13.132,-7.554 12.831,1.279 26.893,-0.752 38.719,-6.002 -9.406,-1.066 -18.156,-3.39 -24.309,-6.63 -17.882,-9.407 -22.586,-28.226 -17.882,-54.585 4.703,-26.353 25.416,-122.329 31.992,-154.322 6.583,-31.992 -14.11,-52.691 -27.289,-58.338 l 14.123,-0.936 -4.703,-10.37 c 16.925,-1.866 35.758,3.773 35.758,3.773 -3.766,-10.363 -29.182,-14.109 -29.182,-14.109 0,0 12.236,-3.774 32.006,3.773 19.762,7.52 31.992,12.216 31.992,12.216 l 9.406,-24.459 17.876,17.876 7.54,-18.819 c 0,0 14.109,4.71 9.399,26.346"
           id="path32"
           style="fill:#ffffff;fill-opacity:1;fill-rule:nonzero;stroke:none"
           inkscape:connector-curvature="0" /><path
           d="m 300.42,445.459 c 0,5.455 4.423,9.885 9.892,9.885 5.455,0 9.871,-4.43 9.871,-9.885 0,-5.469 -4.416,-9.885 -9.871,-9.885 -5.469,0 -9.892,4.416 -9.892,9.885"
           id="path34"
           style="fill:#0071bc;fill-opacity:1;fill-rule:nonzero;stroke:none"
           inkscape:connector-curvature="0" /><path
           d="m 312.13,448.754 c 0,1.422 1.148,2.57 2.563,2.57 1.415,0 2.571,-1.148 2.571,-2.57 0,-1.415 -1.156,-2.57 -2.571,-2.57 -1.415,0 -2.563,1.155 -2.563,2.57"
           id="path36"
           style="fill:#ffffff;fill-opacity:1;fill-rule:nonzero;stroke:none"
           inkscape:connector-curvature="0" /><path
           d="m 367.877,451.324 c 0,4.676 3.808,8.484 8.49,8.484 4.696,0 8.49,-3.808 8.49,-8.484 0,-4.703 -3.794,-8.504 -8.49,-8.504 -4.682,0 -8.49,3.801 -8.49,8.504"
           id="path38"
           style="fill:#0071bc;fill-opacity:1;fill-rule:nonzero;stroke:none"
           inkscape:connector-curvature="0" /><path
           d="m 377.939,454.141 c 0,1.216 0.992,2.201 2.202,2.201 1.223,0 2.194,-0.985 2.194,-2.201 0,-1.217 -0.971,-2.195 -2.194,-2.195 -1.21,0 -2.202,0.978 -2.202,2.195"
           id="path40"
           style="fill:#ffffff;fill-opacity:1;fill-rule:nonzero;stroke:none"
           inkscape:connector-curvature="0" /><path
           d="m 313.114,474.102 c 0,0 -7.451,3.363 -14.683,-1.183 -7.233,-4.546 -6.973,-9.201 -6.973,-9.201 0,0 -3.842,8.572 6.412,12.762 10.254,4.211 15.244,-2.378 15.244,-2.378"
           id="path42"
           style="fill:#188dcd;fill-opacity:1;fill-rule:nonzero;stroke:none"
           inkscape:connector-curvature="0" /><path
           d="m 381.48,474.771 c 0,0 -5.352,3.063 -9.501,3.015 -8.539,-0.116 -10.87,-3.89 -10.87,-3.89 0,0 1.436,8.99 12.36,7.192 5.906,-0.984 8.011,-6.317 8.011,-6.317"
           id="path44"
           style="fill:#188dcd;fill-opacity:1;fill-rule:nonzero;stroke:none"
           inkscape:connector-curvature="0" /></g></g><path
       d="m 41.049023,37.199284 c 0,-17.863683 14.47868,-32.3400139 32.34079,-32.3400139 17.862109,0 32.344487,14.4763309 32.344487,32.3400139 0,17.860857 -14.482378,32.343274 -32.344487,32.343274 -17.86211,0 -32.34079,-14.482417 -32.34079,-32.343274 z"
       id="path46"
       style="fill:none;stroke:#ffffff;stroke-width:4.50052452;stroke-linecap:butt;stroke-linejoin:miter;stroke-miterlimit:4;stroke-opacity:1;stroke-dasharray:none"
       inkscape:connector-curvature="0" /><path
       d="m 70.042678,42.087102 c 0.216897,-1.316168 3.619018,-3.806152 6.027277,-3.957633 2.412824,-0.151698 3.164576,-0.117577 5.177508,-0.598752 2.01315,-0.481393 7.202611,-1.773872 8.639178,-2.438042 1.438088,-0.662648 7.527957,0.329695 3.234339,2.723182 -1.858626,1.039939 -6.865311,2.948991 -10.441297,4.015879 -3.574465,1.069713 -5.740616,-1.022117 -6.929206,0.736759 -0.94344,1.396581 -0.191688,3.310198 4.076719,3.708352 5.767348,0.533335 11.297152,-2.596912 11.906117,-0.934532 0.612226,1.66238 -4.957567,3.739431 -8.34643,3.80637 -3.387342,0.0639 -10.21701,-2.238964 -11.237603,-2.952034 -1.023635,-0.713287 -2.39196,-2.374145 -2.106602,-4.109549"
       id="path48"
       style="fill:#fdd204;fill-opacity:1;fill-rule:nonzero;stroke:none"
       inkscape:connector-curvature="0" /><g
       transform="matrix(0.21733233,0,0,-0.21733296,-3.545832,130.65463)"
       id="g50"><g
         clip-path="url(#clipPath54)"
         id="g52"><g
           id="g58"><g
             id="g60"><path
               d="m 347.15,332.338 c 0,0 -36.141,19.277 -36.743,11.457 -0.608,-7.834 0,-39.758 4.211,-42.178 4.225,-2.406 34.344,15.661 34.344,15.661 l -1.812,15.06 z"
               id="path72"
               style="fill:url(#linearGradient3224);stroke:none"
               inkscape:connector-curvature="0" /></g></g></g></g><g
       transform="matrix(0.21733233,0,0,-0.21733296,-3.545832,130.65463)"
       id="g74"><g
         clip-path="url(#clipPath78)"
         id="g76"><g
           id="g82"><g
             id="g84"><path
               d="m 361.007,333.555 c 0,0 24.705,18.675 30.126,17.472 5.421,-1.216 6.624,-39.764 1.798,-41.589 -4.82,-1.792 -33.086,9.789 -33.086,9.789 l 1.162,14.328 z"
               id="path96"
               style="fill:url(#linearGradient3226);stroke:none"
               inkscape:connector-curvature="0" /></g></g></g></g><g
       transform="matrix(0.21733233,0,0,-0.21733296,-3.545832,130.65463)"
       id="g98"><g
         clip-path="url(#clipPath102)"
         id="g100"><g
           id="g106"><g
             id="g108"><path
               d="m 339.925,332.338 c 0,-12.64 -1.805,-18.074 3.616,-19.271 5.421,-1.21 15.654,0 19.277,2.407 3.61,2.413 0.595,18.669 -0.608,21.697 -1.203,3.001 -22.285,0.588 -22.285,-4.833"
               id="path116"
               style="fill:url(#linearGradient3228);stroke:none"
               inkscape:connector-curvature="0" /></g></g></g></g><path
       d="m 40.267496,37.298822 c 0,-18.227715 14.775774,-33.0026616 33.000393,-33.0026616 18.224838,0 33.001261,14.7749466 33.001261,33.0026616 0,18.226412 -14.776423,33.001358 -33.001261,33.001358 -18.224619,0 -33.000393,-14.774946 -33.000393,-33.001358 z"
       id="path118"
       style="fill:none;stroke:#ec2027;stroke-width:3.36778665;stroke-linecap:butt;stroke-linejoin:miter;stroke-miterlimit:4;stroke-opacity:1;stroke-dasharray:none"
       inkscape:connector-curvature="0" /></g><g
     id="g3180"
     transform="matrix(1.0090081,0,0,1.0090081,72.648578,-53.098984)"><path
       d="m 19.171482,90.160936 c 0,1.861674 0.18734,3.256082 0.561804,4.183007 0.374463,0.926925 0.941701,1.64934 1.701495,2.16681 0.759794,0.517252 1.706928,0.776313 2.841185,0.776313 1.13404,0 2.077697,-0.259061 2.830319,-0.776313 0.752622,-0.51747 1.316382,-1.2338 1.690846,-2.148771 0.374463,-0.914755 0.561804,-2.275042 0.561804,-4.080861 l 0,-6.428057 -1.534801,0 0,6.119009 c 0,1.638039 -0.0752,2.709925 -0.224939,3.215659 -0.221679,0.738932 -0.623527,1.335076 -1.20576,1.788867 -0.582451,0.453792 -1.291389,0.68047 -2.127031,0.68047 -0.835861,0 -1.555665,-0.232981 -2.159414,-0.698508 -0.603532,-0.465745 -1.012552,-1.10014 -1.226841,-1.903185 -0.143222,-0.562023 -0.214507,-1.589791 -0.214507,-3.083303 l 0,-6.119009 -1.49416,0 0,6.307872 z"
       id="path126"
       style="fill:#000000;fill-opacity:1;stroke:#000000;stroke-width:0.60853142;stroke-linecap:butt;stroke-linejoin:miter;stroke-miterlimit:4;stroke-opacity:1;stroke-dasharray:none"
       inkscape:connector-curvature="0" /><path
       d="m 42.707269,84.944727 c -0.49943,-0.424886 -1.107308,-0.769576 -1.824287,-1.034287 -0.71698,-0.264495 -1.460474,-0.39685 -2.230917,-0.39685 -1.226841,0 -2.336105,0.305135 -3.327575,0.915189 -0.991688,0.609836 -1.770824,1.458956 -2.337844,2.54649 -0.567237,1.087317 -0.850639,2.265261 -0.850639,3.533399 0,1.886233 0.60614,3.487542 1.818855,4.803928 1.212714,1.316168 2.739039,1.97447 4.579409,1.97447 1.198371,0 2.266559,-0.259496 3.204565,-0.777617 0.938224,-0.518339 1.685195,-1.247926 2.241783,-2.188326 l -1.187504,-0.878242 c -1.082967,1.530458 -2.478892,2.295688 -4.188646,2.295688 -0.933225,0 -1.775605,-0.232764 -2.52714,-0.697856 -0.751535,-0.46531 -1.342679,-1.119048 -1.773649,-1.961213 -0.43097,-0.842165 -0.646346,-1.740185 -0.646346,-2.694929 0,-1.467867 0.468133,-2.714923 1.405053,-3.741821 0.936702,-1.026464 2.113774,-1.540022 3.531433,-1.540022 1.773649,0 3.173269,0.765447 4.199295,2.295688 l 1.187504,-0.830429 c -0.349687,-0.657215 -0.774138,-1.198374 -1.27335,-1.62326 z"
       id="path128"
       style="fill:#000000;fill-opacity:1;stroke:#000000;stroke-width:0.60853142;stroke-linecap:butt;stroke-linejoin:miter;stroke-miterlimit:4;stroke-opacity:1;stroke-dasharray:none"
       inkscape:connector-curvature="0" /><path
       d="m 46.838974,96.947375 1.49416,0 0,-5.879944 5.83885,5.879944 2.134638,0 -6.775118,-6.845989 6.394787,-6.248322 -2.194839,0 -5.398318,5.274453 0,-10.327445 -1.49416,0 0,18.147303 z"
       id="path130"
       style="fill:#000000;fill-opacity:1;stroke:#000000;stroke-width:0.60853142;stroke-linecap:butt;stroke-linejoin:miter;stroke-miterlimit:4;stroke-opacity:1;stroke-dasharray:none"
       inkscape:connector-curvature="0" /><path
       d="m 65.459573,96.947375 c 1.961642,0 3.486228,-0.320567 4.574194,-0.962351 1.087966,-0.642001 1.972291,-1.636517 2.653628,-2.984199 0.681337,-1.347464 1.021896,-2.907697 1.021896,-4.680265 0,-2.053362 -0.429666,-3.822235 -1.289215,-5.306184 -0.859549,-1.48395 -2.052921,-2.526713 -3.579246,-3.128291 -1.062973,-0.425103 -2.771422,-0.637655 -5.125131,-0.637655 l -3.26368,0 0,17.698945 5.007554,0 z m -3.499702,-15.960281 1.113393,0 c 2.26243,0 3.886337,0.168216 4.871505,0.504647 1.313122,0.448575 2.337409,1.278135 3.072427,2.487811 0.735235,1.209892 1.102961,2.668196 1.102961,4.374695 0,1.626737 -0.339255,3.002672 -1.017115,4.128239 -0.678077,1.125785 -1.609563,1.904924 -2.794242,2.337416 -0.84238,0.304701 -2.352188,0.456834 -4.528771,0.456834 l -1.820158,0 0,-14.289642 z"
       id="path136"
       style="fill:#000000;fill-opacity:1;stroke:#000000;stroke-width:0.60853142;stroke-linecap:butt;stroke-linejoin:miter;stroke-miterlimit:4;stroke-opacity:1;stroke-dasharray:none"
       inkscape:connector-curvature="0" /><path
       d="m 76.319235,90.160936 c 0,1.861674 0.187341,3.256082 0.561804,4.183007 0.374464,0.926925 0.941701,1.64934 1.701713,2.16681 0.759793,0.517252 1.70671,0.776313 2.840968,0.776313 1.134257,0 2.077697,-0.259061 2.830319,-0.776313 0.752622,-0.51747 1.316382,-1.2338 1.691063,-2.148771 0.374246,-0.914755 0.561586,-2.275042 0.561586,-4.080861 l 0,-6.428057 -1.534801,0 0,6.119009 c 0,1.638039 -0.0752,2.709925 -0.224939,3.215659 -0.221679,0.738932 -0.623526,1.335076 -1.205759,1.788867 -0.582451,0.453792 -1.291172,0.68047 -2.127032,0.68047 -0.83586,0 -1.555665,-0.232981 -2.159414,-0.698508 -0.603532,-0.465745 -1.012551,-1.10014 -1.226841,-1.903185 -0.143005,-0.562023 -0.214507,-1.589791 -0.214507,-3.083303 l 0,-6.119009 -1.49416,0 0,6.307872 z"
       id="path138"
       style="fill:#000000;fill-opacity:1;stroke:#000000;stroke-width:0.60853142;stroke-linecap:butt;stroke-linejoin:miter;stroke-miterlimit:4;stroke-opacity:1;stroke-dasharray:none"
       inkscape:connector-curvature="0" /><path
       d="m 99.855023,84.944727 c -0.499213,-0.424886 -1.107309,-0.769576 -1.824288,-1.034287 -0.716979,-0.264495 -1.460473,-0.39685 -2.230916,-0.39685 -1.226841,0 -2.336106,0.305135 -3.327576,0.915189 -0.991687,0.609836 -1.770823,1.458956 -2.337843,2.54649 -0.567021,1.087317 -0.850639,2.265261 -0.850639,3.533399 0,1.886233 0.60614,3.487542 1.818854,4.803928 1.212714,1.316168 2.739039,1.97447 4.57941,1.97447 1.19837,0 2.266558,-0.259496 3.204565,-0.777617 0.938223,-0.518339 1.68519,-1.247926 2.24178,-2.188326 l -1.187501,-0.878242 c -1.08275,1.530458 -2.478893,2.295688 -4.188429,2.295688 -0.933225,0 -1.775605,-0.232764 -2.52714,-0.697856 -0.751535,-0.46531 -1.342897,-1.119048 -1.773867,-1.961213 -0.43097,-0.842165 -0.646346,-1.740185 -0.646346,-2.694929 0,-1.467867 0.468134,-2.714923 1.405054,-3.741821 0.936702,-1.026464 2.113774,-1.540022 3.531433,-1.540022 1.773649,0 3.173269,0.765447 4.199295,2.295688 l 1.187501,-0.830429 c -0.34968,-0.657215 -0.77413,-1.198374 -1.273347,-1.62326 z"
       id="path140"
       style="fill:#000000;fill-opacity:1;stroke:#000000;stroke-width:0.60853142;stroke-linecap:butt;stroke-linejoin:miter;stroke-miterlimit:4;stroke-opacity:1;stroke-dasharray:none"
       inkscape:connector-curvature="0" /><path
       d="m 137.1599,85.716694 c -1.07167,1.332468 -1.60761,2.905959 -1.60761,4.719602 0,1.830161 0.56615,3.429515 1.69867,4.797843 1.13252,1.368545 2.59191,2.052927 4.37838,2.052927 1.77908,0 3.23521,-0.684382 4.36751,-2.052927 1.13252,-1.368328 1.69889,-2.967682 1.69889,-4.797843 0,-1.821902 -0.53595,-3.399087 -1.60783,-4.731555 -1.17881,-1.460695 -2.66514,-2.191151 -4.45857,-2.191151 -1.8006,0 -3.29063,0.734585 -4.46944,2.203104 z m 7.6677,0.994298 c 0.89758,1.035809 1.34681,2.288516 1.34681,3.757904 0,0.947572 -0.20407,1.831031 -0.61201,2.649941 -0.40771,0.819128 -0.95865,1.45135 -1.65259,1.8971 -0.69394,0.445532 -1.45591,0.668298 -2.2859,0.668298 -0.83,0 -1.59196,-0.222766 -2.28591,-0.668298 -0.69416,-0.44575 -1.24488,-1.077972 -1.65281,-1.8971 -0.40793,-0.81891 -0.61157,-1.702369 -0.61157,-2.649941 0,-1.469388 0.44727,-2.722095 1.34159,-3.757904 0.89432,-1.035809 1.96382,-1.553931 3.2087,-1.553931 1.23792,0 2.30567,0.518122 3.20369,1.553931 z"
       id="path150"
       style="fill:#009900;fill-opacity:1;stroke:#009900;stroke-width:0.60853142;stroke-linecap:butt;stroke-linejoin:miter;stroke-miterlimit:4;stroke-opacity:1;stroke-dasharray:none"
       inkscape:connector-curvature="0" /><g
       id="g3133"><path
         inkscape:connector-curvature="0"
         style="fill:#000000;fill-opacity:1;stroke:#000000;stroke-width:0.60853142;stroke-linecap:butt;stroke-linejoin:miter;stroke-miterlimit:4;stroke-opacity:1;stroke-dasharray:none;display:inline"
         id="path142"
         d="m 103.98673,96.947372 1.49416,0 0,-5.879944 5.83885,5.879944 2.13464,0 -6.77512,-6.845989 6.39478,-6.248322 -2.19483,0 -5.39832,5.274453 0,-10.327445 -1.49416,0 0,18.147303 z" /><path
         inkscape:connector-curvature="0"
         style="fill:#009900;fill-opacity:1;stroke:#009900;stroke-width:0.60853142;stroke-linecap:butt;stroke-linejoin:miter;stroke-miterlimit:4;stroke-opacity:1;stroke-dasharray:none;display:inline"
         id="path148"
         d="m 128.99168,79.611591 c -1.17642,-0.540942 -2.43108,-0.811522 -3.76419,-0.811522 -1.64695,0 -3.12285,0.407282 -4.4275,1.221629 -1.30486,0.814564 -2.33154,1.944043 -3.08003,3.388221 -0.7485,1.444395 -1.12274,3.004845 -1.12274,4.682004 0,2.254829 0.65265,4.240818 1.95795,5.957748 1.69736,2.230706 4.00108,3.346059 6.91116,3.346059 2.39653,0 4.3097,-0.805002 5.73975,-2.415222 1.43005,-1.610002 2.15203,-3.784418 2.16659,-6.522596 l -6.77816,0 0,1.711497 5.01233,0 c -0.20712,1.638473 -0.87041,2.971811 -1.99055,3.999795 -1.12013,1.028203 -2.48997,1.542195 -4.10932,1.542195 -1.33398,0 -2.56126,-0.342951 -3.68117,-1.029506 -1.12035,-0.686338 -1.99772,-1.629563 -2.63276,-2.829458 -0.63483,-1.200113 -0.95214,-2.466294 -0.95214,-3.79898 0,-1.300086 0.30644,-2.53432 0.91975,-3.702267 0.61332,-1.167947 1.47808,-2.093134 2.59408,-2.775342 1.11579,-0.682208 2.2909,-1.023421 3.52448,-1.023421 0.99125,0 2.00902,0.250802 3.05374,0.752407 1.04471,0.501387 2.00576,1.237711 2.88291,2.208755 l 1.21945,-1.299651 c -1.11926,-1.194028 -2.26743,-2.061403 -3.44363,-2.602345 z" /><path
         inkscape:connector-curvature="0"
         style="fill:#000000;fill-opacity:1;stroke:#000000;stroke-width:0.60853142;stroke-linecap:butt;stroke-linejoin:miter;stroke-miterlimit:4;stroke-opacity:1;stroke-dasharray:none;display:inline"
         id="path124"
         d="m 8.3118199,96.947372 c 1.9614241,0 3.4862281,-0.320566 4.5741931,-0.962351 1.087966,-0.642001 1.972291,-1.636517 2.653628,-2.984199 0.681337,-1.347464 1.021897,-2.907697 1.021897,-4.680265 0,-2.053362 -0.429666,-3.822235 -1.289433,-5.306184 -0.859549,-1.48395 -2.052704,-2.526713 -3.579029,-3.128291 -1.062972,-0.425103 -2.7714216,-0.637655 -5.1251307,-0.637655 l -3.2636796,0 0,17.698945 5.0075542,0 z m -3.4997025,-15.960281 1.1133935,0 c 2.2624296,0 3.8861194,0.168216 4.8715041,0.504647 1.313122,0.448575 2.337409,1.278135 3.072427,2.487811 0.735236,1.209892 1.102962,2.668196 1.102962,4.374695 0,1.626737 -0.339256,3.002672 -1.017115,4.128239 -0.678077,1.125785 -1.609564,1.904924 -2.79446,2.337416 -0.84238,0.304701 -2.35197,0.456834 -4.5285533,0.456834 l -1.8201583,0 0,-14.289642 z" /></g></g><g
     transform="translate(-306.32779,-113.87997)"
     id="Layer" /></svg>