<?xml version="1.0" encoding="utf-8"?>
<!-- Generator: Adobe Illustrator 25.0.1, SVG Export Plug-In . SVG Version: 6.00 Build 0)  -->
<svg version="1.1" id="Layer_1" xmlns="http://www.w3.org/2000/svg" xmlns:xlink="http://www.w3.org/1999/xlink" x="0px" y="0px"
	 width="1000px" height="1000px" viewBox="0 0 1000 1000" style="enable-background:new 0 0 1000 1000;" xml:space="preserve">
<style type="text/css">
	.st0{opacity:0.66;fill:#7B7983;}
	.st1{fill:#7B7983;}
</style>
<g>
	<path class="st0" d="M288.5732117,512.0369873c23.111084-19.0740356,55.0647888-49.2962646,72.0879517-79.0370178
		c17.0231323-29.7407227,30.5787048-57.2962952,39.3564758-78.1851807s13.222229-35.1111145,35.444458-35.1111145
		c22.2221985,0,23.555542,0,41.333313,0c17.7778015,0,32.9629822-1.2592468,38.888916,11.0370483
		c5.9259033,12.2962952,21.1851807,47.555542,25.0370483,57.777771c3.8518066,10.222229,73.6295776,87.555542,73.6295776,87.555542
		c12.888916,10.8148193,34.555603,13.8518677,48.444458,8.2962952c13.888916-5.555542,32.777771-13.333313,64.555542,7.888916
		c31.777771,21.2221985-127.5163574,116.1111145-127.5163574,116.1111145l-318.2243652-63.4074097L288.5732117,512.0369873z"/>
	<path class="st1" d="M968.7213135,367.1851501c-9.4814453-10.0740356-28.888855-21.1851807-44.5925903-24.5925903
		c-15.7036743-3.4074097-32.5925903-5.6296387-52-1.1851807s-28,14.0740967-38.9629517,24.5925903
		c-10.1953125,9.7819824-11.1705933,22.085083-1.2200317,31.7807617c-3.4575806,0.6090088-7.7999878,0.2324219-13.4466553-1.2622681
		c0,0,0-9.0369873-7.8518066-19.111084c-7.8518677-10.0740967-11.555603-14.8148193-17.0370483-24.5925903
		c-5.045105-8.9993286-3.4177246-15.62146,5.8795166-24.9341431c11.1229858,3.4776611,20.1113892-2.4700317,24.6389771-8.6954956
		c4.7407227-6.5184937,9.6296387-14.9629517,10.222229-31.555542s-10.6504517-26.6165161-25.1851807-33.333313
		c-19.555542-9.0370483-44-15.7037354-56.6453857-15.8518677s-30.4657593,4.1481323-50.9101562,8
		c-20.444458,3.8518677-32,23.8518677-29.0370483,45.3625488s22.5184937,28.4152222,34.8148193,32.5633545
		c6.8994751,2.3275146,15.1978149,3.8618164,22.3049316,4.5429688c3.0718384,5.1618652,12.7721558,16.2211914,39.7272949,16.7808838
		c0,0,0.0077515-0.0007935,0.0089111-0.0009155c7.8255005,7.9263916,12.5128784,9.0414429,18.588501,15.010437
		c6.333313,6.222168,7.666626,14.111084,14.222229,24.444397c6.5513306,10.3267822,0.895752,16.2147217-10.6448364,24.5397339
		c-5.2023315-1.4922485-8.7710571-3.078064-11.4663086-10.9841309c-3.1473999-9.2324829-11.8464966-26.0826416-28.0219116-25.190979
		c-0.6124878-1.9405518-1.6395874-3.8869019-3.2003174-5.809021c-10.555542-13-15.777771-18.666687-26.777771-25.222229
		c-11-6.555603-37.7036743-5.3703613-52.3703613-3s-34.8148193,3.4074097-48.7407227,14.8148193
		c-11.6386108,9.5337524-12.201355,20.0994263-8.1817627,27.1192017
		c-15.5472412-6.0084839-28.5359497-15.3963013-39.2501221-24.711792v-3.2963257h-4.2348022v-3.9260864h4.1601562v-2h-4.1601562
		v-2.0415039h4.1601562v-2h-4.1601562v-2.0415039h4.1601562v-2h-4.1601562v-2.0419922h4.1601562v-2h-4.1601562v-2.0415039h4.1601562
		v-2h-4.1601562v-2.0415039h4.1601562v-2h-4.1601562v-26.2900391h1.8417969v-3.2998047h-1.8417969v-2.7001953h1.8417969v-3.2998047
		h-1.8417969v-2.4243164h-2v2.4243164h-1.8417969v3.2998047h1.8417969v2.7001953h-1.8417969v3.2998047h1.8417969v26.2900391
		h-4.1601562v2h4.1601562v2.0415039h-4.1601562v2h4.1601562v2.0415039h-4.1601562v2h4.1601562v2.0419922h-4.1601562v2h4.1601562
		v2.0415039h-4.1601562v2h4.1601562v2.0415039h-4.1601562v2h4.1601562v3.9260864h-4.2348022v3.2963257
		c-20.1914062,17.555542-48.4593506,35.3703613-86.7107849,30.333313
		c14.9940186,15.111084,30.6984253,13.0370483,30.6984253,13.0370483v4.7407227l19.8921814,2.5184937v12.1574097h-10.1704712
		v-4.1759033h-3.8139038v4.1759033h-4.2532654v3.777771h4.2532654v2.111145h-4.2532654v3.777771h4.2532654v2.3610229h-8.0014343v2
		h3.4381104c-22.7045898,13.3724365-49.5046997,4.6296997-49.5046997,4.6296997s12.1148071,17.4815063,33.6523438,17.4815063
		c0,4.5925903,0,5.333313,0,5.333313h22.2852478v32.2963257h-16.1531067v8.222229H488.85672v7
		c-7.9130249,0-15.7426147,0-23.475769,0l3.333313-32.2210693c0.8380127,0.8118286,1.6335449,1.5838623,2.3034058,2.2210693
		c2.277771,2.166626-0.111145-2.388916-0.666687-4.333374c-0.555542-1.944397,0.611084-1.055542,2.277771,0.333374
		c1.666687,1.388855,1.333313,0.888855,1.5-1.333374s0.055542-3.333313-1.833313-5.555542
		c-1.888916-2.222229-2.333374-3.944458-1.722229-5.5c0.611084-1.555542-1.111145-1.944458-2.666687-3.666687
		c-1.555542-1.722168-4.444458-3.6851807-6.0740356-4.055542c-1.6296387-0.3703613-2.222229-0.1481323-4.888916-2.3703613
		s-4.7407227-5.0370483-5.4074097-7.8518677s-4.0740967-2.666626-5.777771,0
		c-1.2927856,2.0234985-2.9725342,2.2130127-5.8745117,2.3809204c3.1884766-2.0474243,4.8343506-4.0136719,3.6522827-5.1957397
		c-1.4074097-1.4074097-6.5925903-3.777771-8.888855-5.0369873c-2.2963257-1.2592773-2.8148193,0-2.2963257-2.5925903
		s-0.7407227-2.8148193-3.111084-3.9259644c-2.3704224-1.111084-3.0370483-2-4.1481934-0.5184937
		c-1.111084,1.4814453-1.111084,2.666626-2.222229,0.5184937c-1.111084-2.1481323-2.1481323-2.5184937-2.222168-0.222229
		c-0.0740967,2.2963257-0.9630127,3.1851807-4.8148193,2.5185547c-3.8518677-0.666687-3.333374-0.7407837-4.8148193,2.444397
		c-1.4815063,3.1852417-2,3.4074097-1.333374,5.333374c0.666687,1.9259033-0.5184937,2.9629517-4.666626,2.888855
		c-4.1481934-0.0740356-4.7407837-1.1851807-7.4815063-0.888855c-2.7407227,0.2962646-3.6296387,0.222229-3.4815063,1.8518677
		c0.1481934,1.6295776-1.333313,5.111084-3.4814453,7.333313s-3.6296387,2.8148193-5.2592773,5.0370483
		s-1.8518677,2.2962646-3.333313,3.1851807c-1.4815063,0.888855-1.4815063,1.0369873-0.666687,2.7407227
		s1.1208496,3.0640869,1.9259644,4.888916c0.9277344,2.1029053,1.7258301,2.5125732,2.3845825,2.4186401l4.298584,39.1739502
		c-4.4860229,0-8.8848267,0-13.2005615,0l-20.9903564-148.7242432c0.9539185-0.3320923,1.8969116-0.6864014,2.8291626-1.0631104
		c5.2888184,14.6450806,10.0756226,27.4607544,16.5900879,37.4138794l11.5983887-15.7628174l-17.0788574-27.5060425
		c5.5484619-3.6895752,10.4645996-8.25,14.569519-13.479248c11.9112549,10.0459595,22.4708252,18.7583618,33.0951538,24.1239014
		l2.1630249-19.4501953l-28.5370483-15.2778931c2.9273682-5.8562622,4.9556885-12.2332153,5.9046631-18.9558105
		c15.324707,2.7417603,28.8146362,5.003418,40.6898193,4.3383789l-7.8518066-17.9259033l-32.3432617,1.0371704
		c-0.4163818-6.8083496-1.9365845-13.3197021-4.3796997-19.3659668
		c14.6448975-5.2887573,27.4605103-10.0756226,37.4135132-16.5900269l-15.7628784-11.5983276l-27.5057373,17.0786743
		c-3.6896362-5.5484619-8.250061-10.4646606-13.4794312-14.569519
		c10.0458984-11.9111938,18.7583008-22.4707031,24.1238403-33.0950317l-19.4502563-2.1630249L363.04245,245.4833679
		c-5.8562622-2.9273071-12.2332153-4.9556274-18.9557495-5.904541c2.7417603-15.3247681,5.0033569-28.8147583,4.3383789-40.6899414
		l-17.9259644,7.8518066l1.0371704,32.3433228c-6.8082886,0.4163818-13.3197021,1.9366455-19.3659668,4.3797607
		c-5.2888184-14.6449585-10.0756226-27.4606323-16.5899658-37.4136353l-11.5983887,15.7628784l17.0787354,27.5057373
		c-5.5485229,3.6895752-10.4646606,8.250061-14.5695801,13.4793701
		c-11.9111938-10.0458984-22.4707031-18.7582397-33.094986-24.1237183l-2.1630859,19.4501953l28.5370026,15.277832
		c-2.9273682,5.8562622-4.9555664,12.2332764-5.904541,18.9558105c-15.324707-2.7417603-28.8147736-5.0033569-40.6898956-4.3383789
		l7.8518677,17.9259644l32.343277-1.0371704c0.4163818,6.8082886,1.9367065,13.3197021,4.3798218,19.3659058
		c-14.6449585,5.2888184-27.4605865,10.0756226-37.4136505,16.5900269l15.7628326,11.5983887l27.5058594-17.0787964
		c3.6896362,5.5484619,8.2501221,10.4645996,13.4794312,14.569458
		c-10.0459595,11.9112549-18.7583618,22.4708252-24.1239014,33.0952148l19.4502563,2.1630249l15.2779541-28.5371704
		c2.3560791,1.1776733,4.7963257,2.2075195,7.3101807,3.0825806l-20.9903564,148.7241821c-15.3324585,0-25.0391846,0-27.3893433,0
		l-1.9497681-11.1054688c1.1625366-1.1566772,1.6845093-2.4943848,1.2341919-3.5778198
		c-0.7301025-1.7566528-3.7336426-2.1782837-6.7086182-0.9418335c-2.9749146,1.2364502-4.794693,3.6628418-4.0645905,5.4194946
		c0.539917,1.2991333,2.3256989,1.8624878,4.4213409,1.5706177l0.5230713,1.2242432
		c-59.0457916,30.6221619-103.916214,14.8721619-126.0208282,2.1846924v-1.8480225h-2.2277222l3.4129639-18.0740967
		c2.444397-8.8518066,6.1425781-11.8166504,16.222168-21.4814453c18-17.2592773,47.5996704-44.9758911,46.3704224-94.0740967
		c-1.2592773-50.2962646-39.0370483-86.2962646-86.7037277-86.2962646s-85.444458,36-86.7036743,86.2962646
		c-1.2293091,49.0982056,28.3703613,76.8148193,46.3703613,94.0740967
		c10.0795898,9.6647949,12.1481323,16.1481323,12.1481323,21.4814453l3.4129639,18.0740967H84.128746v3.9629517h2v2h-2v6.0555725
		h4.166687l2.0444946,19.4644775c0.1326294,1.2623291,1.1969604,2.2207031,2.4661865,2.2207031h14.2485352h4.0740967h14.2485962
		c1.2692261,0,2.3335571-0.958374,2.4661255-2.2207031l2.044548-19.4644775h0.6296387v1.5h3.5369873v-1.5v-1.7778015v-4.277771h-2
		v-2h2v-0.3969727c12.854248,7.2528381,32.9310303,15.3170471,58.7225952,15.3170471
		c19.5733032,0,42.4353638-4.6743164,67.8829498-17.8511658l2.6140137,6.1178589
		c-9.6048737,0.4563599-14.7874298,3.2218018-19.034317,8.4798889c-4.666687,5.777832-7.777832,15.777832-7.777832,15.777832
		s3.111145-2,7.777832-1.22229c-2.555603,1.888916-4.111145,11.555542-4.111145,11.555542s10.222229-10.222168,13.333313-11.555542
		c-1.555542,10.444458-1.555542,12.1112061,2.6667023,18.888916c4.222229,6.777832,20.444458,38.555542,30,55
		s16.222229,22.666626,27.555542,32.888916c5.4824219,4.9449463,11.0126343,9.6240234,16.0959473,13.6967773
		c5.2597656,13.3935547,8.7929688,32.7476807,8.7929688,32.7476807s1.777771-16.888916,4-21.777832
		c4,8.22229,7.555542,43.333374,7.555542,43.333374c0.888916-21.777832,7.333313-32.555542,7.333313-32.555542l3.111145,18.333252
		c0.6553955-6.4232178,3.3163452-11.2064209,5.3927612-14.0627441c2.8787842,2.4365234,5.7227173,5.111084,8.3850098,8.0627441
		c10.222229,11.333374,9.777771,19.5556641,15.555542,32.7408447s11.2592773,11.7036133,19.4074097,12.7407227
		c8.1481323,1.0369873,8.888916,7.8518066,16.7407227,21.9259033c7.8518677,14.0740967,15.4074097,13.0369873,26.9630127,28.5925293
		c11.555542,15.5556641,21.777771,18.9630127,39.555542,18.9630127c36.8888245,0,48.2221985-21.1851807,53.1110535-25.8518066
		c4.888916-4.666748,5.666687-8.1112061,6-11.777832c0.333374-3.666626,6.555603-6.666626,11.555603-9
		s10.666626-7,12.777771-13.77771c1.2940674-4.1549072,2.8425903-6.800415,5.2008057-8.1793213
		c6.7213135,10.6955566,13.5070801,18.7163086,20.0533447,23.807251c2.1134644,6.9797363,1.8569336,14.3720703,1.8569336,14.3720703
		s1.6447144-7.6699219,3.47052-10.8464355c1.3401489,0.7255859,2.6655884,1.3162842,3.9744873,1.7750244
		c0.5480347,5.421875,2.2926636,22.8563232,2.6661377,28.7380371c1.5588379-14.2893066,4.0050659-24.0227051,5.008606-27.6221924
		c0.0378418-0.0028076,0.076355-0.0015869,0.1141968-0.0046387c6.8311157-0.567627,12.6869507-5.418335,17.1486816-14.09375
		c4.3273315-1.229126,7.9794312-3.496582,10.2840576-6.2794189c5.888855-7.111084,7.222229-9.111084,11.5184937-14.1705322
		c4.2963257-5.0594482,4.5925903-3.9776611,10.8148193-1.9035645s10.3703613,4,14.8148193-3.111084
		c3.4239502-5.4783936,7.2868652-12.4516602,10.9804077-19.4970703
		c10.0888672,12.6392822,20.1466064,19.3220215,29.1213379,19.3220215c1.5849609,0,3.1357422-0.2080078,4.6474609-0.6269531
		c7.7421265-2.1481934,13.7706909-9.5736084,18.0560303-22.1541748
		c9.4656982-7.4881592,16.4263916-21.5408936,19.7179565-40.0760498c0.298645,0.8006592,0.5932617,1.6621094,0.8842163,2.5877686
		c3.2592773,10.3703613,5.777771,9.9259033,8.1481323,1.9259033c1.0128784-3.418335,2.3254395-10.0013428,4.2454834-16.4552002
		c1.8794556,0.8363037,3.5423584,1.2596436,5.0214233,1.2596436c1.2265625,0,2.3300781-0.2861328,3.3330078-0.8515625
		c2.2282104-1.258667,3.7930908-3.8660889,4.7463379-7.9776611c1.7666626,4.6281738,4.1467285,7.3508301,6.9694824,7.7598877
		c0.2460938,0.0361328,0.4912109,0.0537109,0.7363281,0.0537109c2.2926636,0,4.5588379-1.546875,6.5634766-4.4123535
		c0.5253296,0.4509277,1.0437622,0.7327881,1.5696411,0.7717285c4,0.2962646,4.5925903-6.3703613,9.777771-24.5926514
		c5.1852417-18.222168,21.4815063-32.444458,33.4815063-44s15.5184937-17.5184326,19.6296387-26.6296387
		c3.111084,1.444458,5,13.1112061,5,13.1112061s1.666687-8.444458-0.555542-16.666748c7,1.22229,12,11.333374,12,11.333374
		s0.666626-7.444458-2.555603-16.555542c3.666687,1.111084,11.222229,6.444458,11.222229,6.444458s-4.888855-8-11.222229-14.944458
		c8,2.722168,14,10.833252,14,10.833252s-3.777771-13.222168-10-21.555542
		c6.222229,0.22229,13.2963257,2.9259033,13.2963257,2.9259033s-10.3703613-16.0369568-32.5925903-16.0369568
		c-0.8952026,0-2.6900024,0-5.2880859,0c-3.4164429-4.6116943-9.164917-6.4666138-19.8970947-7.0740967
		c-15.7037354-0.888916-17.9259644-9.0370483-25.333313-9.0370483c-7.4074097,0-12.5926514-7.4074097-19.111145-18.8148193
		s-0.7407227-23.8518066,4.5925903-27.555542c5.333313-3.7036743,10.9629517-6.666687,16-13.777771
		c0.9794922-1.3828125,2.1663208-2.9540405,3.5328369-4.6412354c8.4552002,0.3670044,18.5824585,5.3255005,25.2078857,9.5301514
		c7.7037354,4.888855,16.888916,11.111084,25.777832,10.3703613c8.888855-0.7407837,17.333313-6.8148193,22.666626-9.333374
		c5.333374-2.5184937,14.222229-4.7407227,20.5925903-11.4074097c5.826416-6.0974121,10.0354614-8.3753052,12.2997437-17.5571289
		c17.9605103-1.253418,30.701416-2.7235107,38.5150757-10.1465454
		C977.6102295,390.5925598,978.2028198,377.2592468,968.7213135,367.1851501z M738.3602905,329.308075
		c1.8158569-0.0339355,3.3757324-0.1633301,4.583252-0.3914795c3.7520142-0.7088623,8.6829224-1.0788574,13.7739258-1.7158203
		c1.6826172,3.4436646,4.6288452,8.8615112,8.6378174,13.9171143
		C752.5491333,339.2626038,742.9281616,337.5263367,738.3602905,329.308075z M777.6102295,338.7406921
		c-6.1544189-4.1921387-9.460144-9.6165771-11.1185303-13.2721558c0.4506226-0.1143188,0.899353-0.2313232,1.3407593-0.3574219
		c6.3276367-1.8079224,13.6066895-2.229187,21.961792-0.293335
		C787.3850708,328.6220398,782.3427734,335.9441833,777.6102295,338.7406921z M111.128746,501.4073792h-4.0740967H88.3915634
		l-3.4129639-18.0740967c9.4899902,0,26.1501465,0,26.1501465,0s13.0852051,0,22.0761032,0l-3.4129639,18.0740967H111.128746z
		 M335.3656311,268.3147888c0.9345703,0,1.8575439,0.0487061,2.772522,0.1257935l-2.9177856,24.227356
		c-2.4498291,0.0032349-4.6680908,0.0863037-6.6151123,0.2973022c-0.6339111,0.0687256-1.2284546,0.1564941-1.8045044,0.2536011
		l-16.9255981-12.6925659C315.886322,273.0854797,325.07724,268.3147888,335.3656311,268.3147888z M365.0180969,287.1600647
		l-16.9807129,7.2546387c-1.5248413-0.7314453-3.5101929-1.18927-5.9109497-1.4494629
		c-1.3949585-0.1511841-2.9348755-0.234436-4.5927124-0.2722778l2.8887939-23.9867554
		C351.3262634,270.4028015,360.4635925,277.4966125,365.0180969,287.1600647z M360.6609802,321.8804016l-11.7373657-10.3639526
		l-0.1094971-0.7757568h2.7220459c0,0,0-5.1851807,0-10.9629517c0-1.5741577-0.4702148-2.8087769-1.3357544-3.7860107
		l15.7213135-6.7165527c1.4207764,3.6650391,2.2085571,7.6430054,2.2085571,11.803772
		C368.1302795,308.9703064,365.3253479,316.2184753,360.6609802,321.8804016z M340.946991,443.7776794l15.946106-11.4220581
		l3.1945801,25.1323853L340.946991,443.7776794z M355.2244568,461.9999695h-19.8585815h-0.000061h-19.8585205l19.8585815-14.2245483
		L355.2244568,461.9999695z M335.3658752,426.8888855h17.9968872l-17.9968872,12.8910522l-17.9968872-12.8910522h17.9968262
		H335.3658752z M319.6214294,417.8518372l15.7443237-13.9351807l15.7445068,13.9351807h-15.7443848h-0.000061H319.6214294z
		 M339.4397888,400.3107605l12.0269775-10.6450195l3.0491943,23.9886475L339.4397888,400.3107605z M340.1383972,392.4806213
		l-0.203064-6.3325195h7.357666L340.1383972,392.4806213z M339.6455383,377.1111145l-0.3049927-9.5106201l8.8341675,9.5106201
		H339.6455383z M335.3658142,310.7406921h0.000061h6.0687866l0.7126465,5.6063843l-6.7815552,6.9932861l-1.3543701-1.3967285
		l1.348999-11.2029419H335.3658142z M335.3657532,327.6498108l5.5422363,5.7153931
		c-1.8029785,0.3086548-3.65271,0.4783936-5.5423584,0.4783936c-0.9343872,0-1.8572388-0.0487061-2.7720337-0.1257935
		l0.4412231-3.6643066L335.3657532,327.6498108z M337.4552307,325.4950867l5.1763306-5.3380127l1.5617676,12.2866821
		L337.4552307,325.4950867z M331.9508972,319.8187561l-3.3665161-3.4716797l0.7126465-5.6063843h3.7470093L331.9508972,319.8187561z
		 M331.4892883,323.6521912l-0.5067749,4.208252l-4.4440918,4.5828857l1.5617065-12.2861938L331.4892883,323.6521912z
		 M330.3900452,332.7809143l-0.0808716,0.6713257c-0.163208-0.0253296-0.3234253-0.0592651-0.4857788-0.0870361
		L330.3900452,332.7809143z M338.5857849,344.0624084h7.0843506l0.0915527,0.7202148l-6.9141235,7.4436035L338.5857849,344.0624084z
		 M325.061554,344.0624084h4.8179932c-0.28125,1.7149658-0.565918,3.411438-0.8540649,5.0861816l-4.055481-4.3660278
		L325.061554,344.0624084z M339.0965271,359.9908752l-0.0212402-0.6629028l7.5078735-8.0828247l0.9770508,7.6870117
		c-2.7327271,0.5753784-5.5358276,0.9535522-8.3919678,1.1358643L339.0965271,359.9908752z M351.474823,329.592804
		l-2.0565796-14.5716553l9.7132568,8.5766602C356.8970642,325.9548035,354.3186951,327.9797668,351.474823,329.592804z
		 M308.4944763,282.3655701l15.4161987,11.5606079c-0.4916382,0.1681519-0.9608154,0.3491821-1.3796997,0.5598145
		c-2.1613159,1.0869141-3.3354492,2.7639771-3.3354492,5.291748c0,2.5737305,0,5.0263672,0,6.9589844l-14.3855591,6.1459961
		c-1.4207153-3.6650391-2.2084961-7.6430054-2.2084961-11.803772
		C302.6014709,294.1250916,304.7854919,287.6752625,308.4944763,282.3655701z M305.7135315,314.9978943l13.4819946-5.7599487
		c0,0.9438477,0,1.5027466,0,1.5027466h2.7220459l-2.6607666,18.8522949
		C313.3694153,326.2536926,308.6124573,321.1488342,305.7135315,314.9978943z M324.1485901,351.2450867l3.7939453,4.0845337
		c-0.2575073,1.4457397-0.5139771,2.8786621-0.7678833,4.293457c-1.3486938-0.1878052-2.6849365-0.4133301-4.0031738-0.6908569
		L324.1485901,351.2450867z M324.1852722,377.1111145h-1.6282349l1.9607544-2.1109009
		C324.405304,375.7058411,324.2917786,376.414093,324.1852722,377.1111145z M322.4115295,392.4510803
		c-0.2436523,3.7468262-0.2990112,7.3510132-0.1048584,10.8182373l8.246582-3.6121826l0.7384644,0.6536255l-15.0759888,13.3436279
		l3.0491943-23.9883423L322.4115295,392.4510803z M329.7847595,443.7776794l-19.1407471,13.7103882l3.1945801-25.1325073
		L329.7847595,443.7776794z M308.3686829,475.3889465l20.7459106,12.6278687l-24.2253418,14.7457275L308.3686829,475.3889465z
		 M313.721344,471.0370178h21.6444702h0.000061h21.6444702l-21.6445923,13.1748047L313.721344,471.0370178z
		 M362.3630066,475.3889465l3.4794922,27.3738403l-24.2255859-14.7459106L362.3630066,475.3889465z M349.0579529,370.7150574
		l-7.2836304-7.8413086c2.0874634-0.2149048,4.1444092-0.5337524,6.1660156-0.9509277L349.0579529,370.7150574z
		 M355.3055725,356.7348328l-1.6157837-11.4483032c1.3353882,3.6130981,2.6142578,7.1489868,3.8529663,10.5852051
		C356.8032532,356.1721497,356.0596008,356.4638977,355.3055725,356.7348328z M368.0891418,350.2916565l-12.3296509-19.8572388
		c3.1246948-2.1774292,5.8901367-4.8352051,8.1799927-7.8733521c6.4115601,5.0837402,12.3723755,10.1055298,18.0084229,14.8643799
		C378.045929,342.4150085,373.3699036,346.7687073,368.0891418,350.2916565z M388.3174744,327.3401184l-20.6016235-11.029541
		c1.598999-3.3823242,2.6775513-7.0542603,3.1444092-10.913208c8.1027222,1.1982422,15.782959,2.5684814,23.0499268,3.8729858
		C393.0179138,315.6775208,391.0977478,321.7570496,388.3174744,327.3401184z M394.3605042,297.3457336l-23.3643188,0.7492676
		c-0.3224487-3.882019-1.2593994-7.5917358-2.7269287-11.0253296c7.6132202-3.0123291,14.9466553-5.6647949,21.8896484-8.1676636
		C392.497345,284.6584167,393.9541321,290.8604431,394.3605042,297.3457336z M384.5787659,268.3556213l-19.857605,12.329834
		c-2.1774292-3.1246338-4.8352661-5.8900757-7.8734131-8.1798706c5.0838013-6.4116821,10.1055908-12.3724976,14.864563-18.008606
		C376.7018738,258.3988342,381.0558167,263.0749207,384.5787659,268.3556213z M361.6268616,248.1274719l-11.029541,20.6017456
		c-3.3823242-1.598999-7.0542603-2.6776123-10.913208-3.1444092c1.1982422-8.1027832,2.5684814-15.782959,3.8729858-23.0499268
		C349.9642639,243.4271545,356.0437927,245.3471985,361.6268616,248.1274719z M331.6325378,242.0845642l0.7492676,23.3643188
		c-3.8820801,0.3225098-7.5918579,1.2593994-11.0253906,2.7269287c-3.0123291-7.6131592-5.6647949-14.9466553-8.1676025-21.8897095
		C318.9452209,243.9477234,325.1471863,242.4909363,331.6325378,242.0845642z M302.6423645,251.8661804l12.329895,19.857605
		c-3.1246948,2.1774292-5.8900757,4.8352661-8.1799316,7.8734131c-6.4116821-5.0838013-12.3726196-10.1056519-18.008728-14.8646851
		C292.6855774,259.7429504,297.3616028,255.3891296,302.6423645,251.8661804z M282.414032,274.8179626l20.6018677,11.0296631
		c-1.598999,3.3823242-2.6776123,7.0541992-3.1444702,10.913147c-8.1027222-1.1982422-15.782959-2.5684204-23.0498657-3.8729248
		C277.7138367,286.4806213,279.6337585,280.4010315,282.414032,274.8179626z M276.3712463,304.8124084l23.3643188-0.7492676
		c0.3224487,3.8820801,1.2593994,7.5917969,2.7269287,11.0253906c-7.6131592,3.0123291-14.9465942,5.6647949-21.8895874,8.1676025
		C278.2344666,317.4997253,276.7776794,311.297699,276.3712463,304.8124084z M286.1530457,333.8025208l19.8574219-12.3297729
		c2.1774292,3.1247559,4.8352661,5.8901367,7.8734131,8.1799927c-5.0837402,6.4115601-10.1055298,12.3723755-14.8644409,18.0084229
		C294.0297546,343.7592468,289.6760559,339.0832825,286.1530457,333.8025208z M309.1048889,354.0306702l9.1025391-17.0022583
		l-2.781311,19.706543C313.2567444,355.9554138,311.1490173,355.0485535,309.1048889,354.0306702z M326.6451111,362.579071
		c-0.2072144,1.1583862-0.4094849,2.3034668-0.6101685,3.440918l-4.3612061,4.6951904l1.1175537-8.7922974
		C324.0610657,362.184967,325.3485413,362.3960266,326.6451111,362.579071z M307.9960632,508.4814758l27.3696899-16.6596069
		l27.3695068,16.6596069C341.6304016,508.4814758,323.0669861,508.4814758,307.9960632,508.4814758z M768.4431152,394.5433044
		c-4.9255371,2.2752686-14.53125,3.9969482-24.5924072,1.4728394c3.3131714-3.4334106,6.5767212-7.7926025,8.0914917-12.5527954
		C760.0941162,384.1688538,764.8865967,388.0707092,768.4431152,394.5433044z M609.7059326,431.5184021v-2.3610229h10.1704712
		v2.3610229H609.7059326z M609.7059326,425.3796082v-2.111145h10.1704712v2.111145H609.7059326z M516.8255005,423.2684631
		h10.1704712v2.111145h-10.1704712V423.2684631z M516.8255005,429.1573792h10.1704712v2.3610229h-10.1704712V429.1573792z
		 M467.3430481,474.936615l-3.4702759,33.5448608c-0.1065063,0-0.2137451,0-0.3201904,0l2.925415-34.3723755
		C466.7668152,474.3842468,467.0536194,474.6582336,467.3430481,474.936615z M455.9774475,479.2757263l0.6438599,29.2057495
		c-1.1144409,0-2.2213135,0-3.3309937,0l0.9223633-31.5983887
		C454.5675354,477.6440125,455.0975647,478.4425964,455.9774475,479.2757263z M452.6287537,472.6481018
		c0.0724487,0.1040039,0.1370239,0.2098389,0.197998,0.3166504l-1.0367432,35.5167236c-0.3594971,0-0.7213135,0-1.0803223,0
		l-0.6036377-36.9906616C451.342865,470.6502991,451.447113,470.9527283,452.6287537,472.6481018z M448.6173401,472.209198
		l0.5919189,36.2722778c-0.8720093,0-1.7376709,0-2.6064453,0l1.4758301-36.204895
		C448.2602234,472.2707214,448.4399109,472.2458801,448.6173401,472.209198z M446.591217,471.9301453l-1.4899292,36.5513306
		c-1.0079346,0-2.0139771,0-3.0175171,0l2.949707-38.8269653
		C445.275116,470.8035583,445.8684998,471.5389099,446.591217,471.9301453z M444.1288147,461.756012l-3.5497437,46.7254639
		c-0.7453003,0-1.4922485,0-2.2350464,0l1.8806763-50.9674072c0.4681396,0.4698486,0.9979248,0.9931641,1.6262817,1.6340332
		C443.1827087,460.5065002,443.8210754,461.1991882,444.1288147,461.756012z M438.3175964,455.3531189
		c0.140625,0.2069092,0.2952271,0.4093018,0.4631348,0.6135864l-1.9377441,52.5147705c-0.2365723,0-0.4702759,0-0.706604,0
		L438.3175964,455.3531189z M436.7190247,448.3965759c0.0215454,0.9049072,0.0852661,2.0598145,0.2527466,3.163269
		l-2.3369141,56.9216309c-0.5879517,0-1.1759644,0-1.7622681,0l-0.0994263-56.9855957
		C434.0046692,450.5411682,434.6026917,449.702179,436.7190247,448.3965759z M431.075531,452.6080627
		c0.069519-0.0391235,0.1333008-0.0769653,0.1993408-0.1152954l0.0977173,55.9887085c-0.2678223,0-0.5355225,0-0.8030396,0
		L431.075531,452.6080627z M429.5682678,453.3965759l-0.4988403,55.0848999c-0.0598145,0-0.1193237,0-0.1791382,0
		l0.3145142-54.9023438C429.3247986,453.5188904,429.4410706,453.4608459,429.5682678,453.3965759z M427.3902283,508.4814758
		c-0.1334229,0-0.2672119,0-0.4005737,0v-53.8273926c0.2236938-0.1030273,0.4605713-0.2147217,0.7108154-0.3346558
		L427.3902283,508.4814758z M422.499115,456.4444275c1.2781372-0.4755859,2.1501465-0.7964478,2.9905396-1.1390381v53.1760864
		c-1.9854736,0-3.9593506,0-5.9229736,0l0.3811035-47.7508545
		C420.5862122,458.4299622,419.4762878,457.5691833,422.499115,456.4444275z M418.4126282,463.3013
		c0.0046387-0.003479,0.0099487-0.005188,0.0146484-0.008728l-0.3607178,45.1889038c-0.1583252,0-0.3144531,0-0.4726562,0
		L418.4126282,463.3013z M415.0176697,462.9629211c0.144043,0.1008301,0.2796631,0.1644287,0.4193115,0.2454834
		l-1.734436,45.2730713c-0.8665771,0-1.7286987,0-2.5906372,0l0.182251-48.1148071
		C412.566864,461.4864197,413.1199036,461.634491,415.0176697,462.9629211z M409.7992859,459.0093079l-0.1873779,49.472168
		c-0.0594482,0-0.1188965,0-0.1782837,0l-0.8024902-50.1975098
		C408.9889221,458.4113464,409.3589783,458.6424866,409.7992859,459.0093079z M403.5036316,458.4727478
		c0.0950928,0.019043,0.18927,0.0462036,0.2844238,0.0610962l3.1039429,49.9476318c-0.9467163,0-1.8817139,0-2.8223877,0
		L403.5036316,458.4727478z M402.5694275,508.4814758c-1.1172485,0-2.2300415,0-3.3384399,0l2.7700195-50.2268677
		L402.5694275,508.4814758z M406.2028503,458.4444275c0.3538818-0.0917358,0.6503906-0.1587524,0.927124-0.2110596
		l0.6433716,40.2479248l-2.479126-39.8932495C405.60672,458.5624695,405.9129333,458.5195618,406.2028503,458.4444275z
		 M395.61026,459.9999695c2,2.8148193,4.5184937,2.2963257,3.2592163-0.0740967
		c-1.2592163-2.3703613-0.444397-5.1851807,1.111145-3.4074097c0.1791382,0.2047729,0.3763428,0.3909302,0.5822754,0.5661011
		l-2.8345337,51.3969116c-0.7050171,0-1.414917,0-2.1162109,0c0.4642944-6.7390747,0.9580078-11.6799316,1.3638306-15.7384644
		c1.1454468-11.4559326,1.454834-14.5936279-2.3763428-26.7539673c0.4157104-0.4782104,0.6240234-1.1278076,0.4180298-2.137207
		C394.276886,460.2221985,393.61026,457.1851501,395.61026,459.9999695z M395.4833069,492.5935974
		c-0.3602905,3.6019287-0.7891235,7.8999634-1.2059326,13.5259399l-0.4269409-37.4741211
		C396.8698425,478.6911926,396.5563049,481.8623962,395.4833069,492.5935974z M387.0663147,468.6933899
		c0.1921997-0.0159302,0.3496094,0.1010132,0.4698486,0.4917603c0.5925903,1.9259644,1.3703613,4.2592773,2.8148193,0
		c0.3254395-0.9595947,1.1293945-1.4454346,1.984375-1.8510132l0.468689,41.1473389c-0.4579468,0-0.9154663,0-1.3717651,0
		L387.0663147,468.6933899z M415.2037659,508.4814758l1.6881714-44.0658569l-0.7985229,44.0658569
		C415.7966614,508.4814758,415.5000305,508.4814758,415.2037659,508.4814758z M458.1220398,508.4814758l-0.6176758-28.0197144
		c1.8242798,1.067749,2.782959,0.2567139,4.1799316,0.7974854c1.722229,0.666626,3.333374,0.111084,2.166687-1.166687
		s-1.833313-1.277771-1.777771-3.777771s-0.166687-2.777771-1.388916-4.833313c-1.222229-2.055603-0.055542-2.5,2.166687-0.666687
		c0.644165,0.5314331,1.4156494,1.2253418,2.2335815,1.9837036l-3.0369263,35.6829834
		C460.7350159,508.4814758,459.4284973,508.4814758,458.1220398,508.4814758z M618.1136475,759.7532959
		c-9.9295654,0.8510742-21.9022217-9.1571045-33.9827271-28.2348633c0.8132324-0.1312256,1.6928101-0.1848145,2.6644897-0.1480713
		c5.888855,0.222168,13.777771,5,26.111084,13.444458c6.1329346,4.1990967,12.8421021,5.3741455,18.7626953,4.6218262
		C627.9110718,755.789917,623.3039551,759.3223877,618.1136475,759.7532959z M741.2932129,699.1241455
		c-1.9076538,1.206665-3.9063721,2.1384277-5.993042,2.7570801c-9.7416992,2.8917236-20.2672119-1.022583-30.0990601-11.0323486
		c2.5951538-0.1068115,5.456604,0.9290771,8.7053833,1.9659424c6.9629517,2.222168,15.2592773,2.8148193,22.5185547-6.22229
		c4.055481-5.0487061,7.6016235-10.8829346,10.8206787-16.470459
		C745.9425049,681.7990723,743.9337769,691.5233154,741.2932129,699.1241455z M726.489624,718.0472412
		c-8.4381714,2.3422852-19.3146362-4.4481201-30.2925415-18.743042c0.3252563-0.6342773,0.6486816-1.2672119,0.968689-1.8968506
		c1.3768921-2.7093506,2.8076782-4.401001,4.322998-5.3897705c8.7269897,9.3059082,18.3653564,14.2611084,27.6063232,14.2611084
		c2.4355469,0,4.84375-0.34375,7.1992188-1.0419922c1.0315552-0.3057861,2.0430908-0.678833,3.0352783-1.1119385
		C735.8705444,711.8905029,731.5551758,716.6416016,726.489624,718.0472412z M747.7212524,693.6074219
		c2.3239136-8.9436035,3.9603882-19.9064941,4.8984985-32.8693848c0.5852051-0.9980469,1.1625977-1.9664307,1.7312012-2.8862305
		c3.2890015-5.3204346,6.0092773-6.0274658,8.4088135-2.9919434
		C760.4176025,671.895752,755.1184082,685.34375,747.7212524,693.6074219z M786.1156006,646.8773193
		c-1.6435547,0.9295654-3.8804932,0.7255859-6.7769775-0.5986328c2.3633423-7.3892822,5.5840454-14.1566162,10.1401978-15.2371826
		c0.2926636,1.9306641,0.6419067,3.7264404,1.0507202,5.3623047
		C789.8414307,642.09021,788.3666992,645.605957,786.1156006,646.8773193z M799.1019287,646.4232178
		c-2.1859131-0.3167725-4.7648315-3.2449951-6.5411377-10.1157227c0.1783447-1.5821533,0.2979736-3.3181152,0.3613281-5.2087402
		c5.7321167,1.272583,9.026123,7.8684082,11.8068848,11.4317627
		C802.9195557,645.2719727,800.9335938,646.6838379,799.1019287,646.4232178z M647.8452148,508.4814758v-7h-9.8713379v-8.222229
		h-16.1531372v-32.2963257h22.2852783c0,0,0-0.7407227,0-5.333313c21.5375366,0,33.6523438-17.4815063,33.6523438-17.4815063
		s-26.8001099,8.7427368-49.5046997-4.6296997h3.4381104v-2h-8.0014648v-2.3610229h4.2532959v-3.777771h-4.2532959v-2.111145
		h4.2532959v-3.777771h-4.2532959v-4.1759033h-3.8139038v4.1759033h-10.1704712v-12.1574097l19.8922119-2.5184937v-2.852417
		c2.6635742,2.9393921,5.5008545,5.5205078,8.6046753,7.1487427c9.0370483,4.7407227,23.4074097,4.2962646,37.777771,0
		c14.3703613-4.2963257,17.7036743-6.7407837,33.3703613-3.7407837c14.8430786,2.8422852,21.888916,1.222229,29.333313-4.666626
		c0.8278198-0.6548462,1.7304077-1.4165649,2.6629639-2.2619629c4.3051758,1.2718506,8.7025757,1.8139648,12.8338013,1.8139648
		c6.2281494,0,11.8404541-1.2296143,15.6169434-3.022644c0.2896118,0.6323853,0.572998,1.2811279,0.8493042,1.9520874
		c3.3510132,8.1383057,5.2550049,14.4371338,12.8130493,16.4801636
		c-6.8867188,5.3945923-11.8138428,10.9251099-16.9612427,23.5198364
		c-6.9629517,17.0370483-18.0740356,21.1851807-27.111084,33.6296387s-14.9629517,16.7407227-27.2592773,20.2963257
		c-10.8035278,3.1239014-20.1178589,6.7095337-26.4408569,15.3703613
		C673.3505859,508.4814758,660.7019043,508.4814758,647.8452148,508.4814758z M854.9435425,431.4814758
		c-7.5985718-4.4154053-17.612793-9.9661865-23.0462036-12.9586182c3.862793-3.8001099,8.3566284-7.6356812,13.3509521-11.0063477
		c7.324646,4.3237305,13.9299316,6.5251465,20.4194946,7.4274902c1.5002441,4.1679688,5.0345459,11.8650513,12.0678101,17.6251221
		C871.0178223,435.5691833,862.9420776,436.1292419,854.9435425,431.4814758z M884.5731812,428.3703308
		c-1.2126465,0.9749146-2.5178833,1.8797607-3.8984375,2.6878662c-6.3647461-4.7816162-9.9052124-11.5053101-11.6331787-15.7536621
		c3.5181274,0.258606,7.0332642,0.175293,10.6427002-0.1193848c4.0506592-0.3306885,7.4551392-0.7883301,10.7386475-1.3083496
		C890.6763916,419.1269836,890.4307251,423.6613464,884.5731812,428.3703308z M888.7213135,432.8147888
		c0,0,7.9730835-5.4539795,7.8873901-19.9776611c6.5270386-1.1207275,13.8493652-2.3253174,25.8903809-3.1334229
		c0.5622559-0.0377197,1.1008911-0.0736084,1.6543579-0.1105347
		C919.2307129,421.8328552,904.6134644,433.0888367,888.7213135,432.8147888z"/>
</g>
</svg>
