<?xml version="1.0" encoding="UTF-8" standalone="no"?>
<!-- Generator: Adobe Illustrator 15.1.0, SVG Export Plug-In . SVG Version: 6.00 Build 0)  -->

<svg
   xmlns:dc="http://purl.org/dc/elements/1.1/"
   xmlns:cc="http://creativecommons.org/ns#"
   xmlns:rdf="http://www.w3.org/1999/02/22-rdf-syntax-ns#"
   xmlns:svg="http://www.w3.org/2000/svg"
   xmlns="http://www.w3.org/2000/svg"
   xmlns:sodipodi="http://sodipodi.sourceforge.net/DTD/sodipodi-0.dtd"
   xmlns:inkscape="http://www.inkscape.org/namespaces/inkscape"
   version="1.1"
   id="Layer_1"
   x="0px"
   y="0px"
   width="100px"
   height="56px"
   viewBox="0 0 100 56"
   enable-background="new 0 0 100 56"
   xml:space="preserve"
   inkscape:version="0.48.2 r9819"
   sodipodi:docname="laptop.svg"><metadata
   id="metadata11"><rdf:RDF><cc:Work
       rdf:about=""><dc:format>image/svg+xml</dc:format><dc:type
         rdf:resource="http://purl.org/dc/dcmitype/StillImage" /><dc:title></dc:title></cc:Work></rdf:RDF></metadata><defs
   id="defs9" /><sodipodi:namedview
   pagecolor="#ffffff"
   bordercolor="#666666"
   borderopacity="1"
   objecttolerance="10"
   gridtolerance="10"
   guidetolerance="10"
   inkscape:pageopacity="0"
   inkscape:pageshadow="2"
   inkscape:window-width="640"
   inkscape:window-height="480"
   id="namedview7"
   showgrid="false"
   inkscape:zoom="3.24"
   inkscape:cx="50"
   inkscape:cy="28"
   inkscape:window-x="0"
   inkscape:window-y="26"
   inkscape:window-maximized="0"
   inkscape:current-layer="Layer_1" />
<path
   d="M57,51v1c0,0.553-0.447,1-1,1H44c-0.553,0-1-0.447-1-1v-1H0v2c0,0,0,3,3,3h94c3,0,3-3,3-3v-2H57z"
   id="path3"
   style="fill:#ffffff" />
<path
   d="M85,0H15c-1.658,0-3,1.343-3,3v1v41c0,1.657,1.342,3,3,3h1h68h1c1.656,0,3-1.343,3-3V4V3C88,1.343,86.657,0,85,0z M84,44H16  V4h68V44z"
   id="path5"
   style="fill:#ffffff" />
</svg>