<?xml version="1.0" encoding="UTF-8" standalone="no"?>
<!-- Generator: Adobe Illustrator 15.1.0, SVG Export Plug-In . SVG Version: 6.00 Build 0)  -->

<svg
   xmlns:dc="http://purl.org/dc/elements/1.1/"
   xmlns:cc="http://creativecommons.org/ns#"
   xmlns:rdf="http://www.w3.org/1999/02/22-rdf-syntax-ns#"
   xmlns:svg="http://www.w3.org/2000/svg"
   xmlns="http://www.w3.org/2000/svg"
   xmlns:sodipodi="http://sodipodi.sourceforge.net/DTD/sodipodi-0.dtd"
   xmlns:inkscape="http://www.inkscape.org/namespaces/inkscape"
   version="1.1"
   id="Layer_1"
   x="0px"
   y="0px"
   width="128"
   height="128"
   viewBox="0 0 128 128"
   enable-background="new 0 0 55.973 100"
   xml:space="preserve"
   inkscape:version="0.48.2 r9819"
   sodipodi:docname="libredocs.svg"><metadata
   id="metadata17"><rdf:RDF><cc:Work
       rdf:about=""><dc:format>image/svg+xml</dc:format><dc:type
         rdf:resource="http://purl.org/dc/dcmitype/StillImage" /><dc:title /></cc:Work></rdf:RDF></metadata><defs
   id="defs15"><filter
     inkscape:collect="always"
     id="filter4069"
     x="-0.14258783"
     width="1.2851756"
     y="-0.11590435"
     height="1.2318087"
     color-interpolation-filters="sRGB"><feGaussianBlur
       inkscape:collect="always"
       stdDeviation="4.3496594"
       id="feGaussianBlur4071" /></filter><filter
     inkscape:collect="always"
     id="filter4093"
     x="-0.3256458"
     width="1.6512916"
     y="-0.21054"
     height="1.42108"
     color-interpolation-filters="sRGB"><feGaussianBlur
       inkscape:collect="always"
       stdDeviation="7.9011465"
       id="feGaussianBlur4095" /></filter><filter
     inkscape:collect="always"
     id="filter4171"
     x="-0.70054519"
     width="2.4010904"
     y="-0.19890337"
     height="1.3978066"
     color-interpolation-filters="sRGB"><feGaussianBlur
       inkscape:collect="always"
       stdDeviation="7.4644477"
       id="feGaussianBlur4173" /></filter></defs><sodipodi:namedview
   pagecolor="#ffffff"
   bordercolor="#666666"
   borderopacity="1"
   objecttolerance="10"
   gridtolerance="10"
   guidetolerance="10"
   inkscape:pageopacity="0"
   inkscape:pageshadow="2"
   inkscape:window-width="1280"
   inkscape:window-height="799"
   id="namedview13"
   showgrid="false"
   inkscape:zoom="1.668772"
   inkscape:cx="102.01217"
   inkscape:cy="20.83174"
   inkscape:window-x="0"
   inkscape:window-y="1"
   inkscape:window-maximized="1"
   inkscape:current-layer="Layer_1"
   showborder="true"
   fit-margin-top="0"
   fit-margin-left="0"
   fit-margin-right="0"
   fit-margin-bottom="0" />
<path
   d="m 63.855041,17.720775 c -20.215398,0 -36.606151,16.389455 -36.606151,36.606148 0,6.656495 1.870463,12.844721 4.880209,18.276913 8.989996,16.195861 15.370588,17.290501 16.836875,26.092141 1.230843,7.378523 2.933881,9.092023 8.507337,9.092023 2.37013,0 2.25101,0 6.38173,0 4.13071,0 4.0116,0 6.38042,0 5.57607,0 7.2778,-1.71612 8.50864,-9.092023 1.46629,-8.80164 7.84819,-9.89759 16.83818,-26.092141 3.011059,-5.430884 4.878909,-11.620418 4.878909,-18.276913 0.001,-20.216693 -16.389449,-36.606148 -36.606149,-36.606148 z"
   id="path3-6"
   inkscape:connector-curvature="0"
   sodipodi:nodetypes="ssccssscccs"
   style="fill:#ffff00;stroke:none;filter:url(#filter4069)" /><path
   d="m 63.855422,17.720329 c -20.215395,0 -36.606148,16.389453 -36.606148,36.606147 0,6.656495 1.870463,12.844721 4.880209,18.276913 8.989996,16.195858 15.370588,17.290498 16.836875,26.092138 1.230843,7.378523 2.933881,9.092023 8.507338,9.092023 2.370126,0 2.251011,0 6.381726,0 4.130716,0 4.011601,0 6.380418,0 5.576074,0 7.277804,-1.71611 8.508647,-9.092023 1.466286,-8.80164 7.848184,-9.89759 16.838181,-26.092138 3.011052,-5.430884 4.878902,-11.620418 4.878902,-18.276913 0.001,-20.216694 -16.389446,-36.606147 -36.606148,-36.606147 z"
   id="path3"
   inkscape:connector-curvature="0"
   sodipodi:nodetypes="ssccssscccs"
   style="fill:#000000;stroke:none" />




<path
   d="m 63.85525,17.721027 c -16.07881,0 -29.11561,16.389455 -29.11561,36.606148 0,6.656495 1.48772,12.844721 3.8816,18.276913 7.15042,16.195859 12.22538,17.290499 13.39163,26.092139 0.97898,7.378523 2.33353,9.092023 6.76652,9.092023 1.88514,0 1.7904,0 5.07586,0 3.28547,0 3.19073,0 5.07483,0 4.43507,0 5.78858,-1.71611 6.76756,-9.092023 1.16625,-8.80164 6.24225,-9.89759 13.39267,-26.092139 C 91.48523,67.173204 92.97086,60.98367 92.97086,54.327175 92.97185,34.110482 79.93511,17.721027 63.85525,17.721027 z"
   id="path3-2-4"
   inkscape:connector-curvature="0"
   sodipodi:nodetypes="ssccssscccs"
   style="fill:#ffffff" /><path
   d="m 28.306148,-17.279221 c -16.078816,0 -29.11561008,16.38945317 -29.11561008,36.606147 0,6.656495 1.48771927,12.844721 3.88159568,18.276913 7.1504174,16.195859 12.2253794,17.290497 13.3916274,26.092139 0.978982,7.378521 2.333534,9.092022 6.766522,9.092022 1.885139,0 1.790398,0 5.075865,0 3.285468,0 3.190727,0 5.074824,0 4.435069,0 5.788582,-1.716117 6.767564,-9.092022 1.166247,-8.801642 6.242248,-9.897588 13.392667,-26.092139 2.394917,-5.430884 3.880555,-11.620418 3.880555,-18.276913 9.9e-4,-20.21669383 -13.035754,-36.606147 -29.11561,-36.606147 z"
   id="path3-2"
   inkscape:connector-curvature="0"
   sodipodi:nodetypes="ssccssscccs"
   style="opacity:0.74166667;fill:#ffff00;filter:url(#filter4093)"
   transform="matrix(1.1114257,0,0,0.98866486,32.394853,35.82506)" /><path
   d="m 63.85477,17.720777 c -7.061077,0 -12.786237,16.389454 -12.786237,36.606147 0,6.656495 0.653338,12.844721 1.704618,18.276913 3.140134,16.19586 5.368825,17.2905 5.880987,26.09214 0.429924,7.378523 1.024781,9.092023 2.971546,9.092023 0.827866,0 0.78626,0 2.229086,0 1.442826,0 1.401221,0 2.22863,0 1.947678,0 2.542079,-1.71612 2.972003,-9.092023 0.512161,-8.80164 2.741308,-9.89759 5.881443,-26.09214 1.051737,-5.430884 1.704161,-11.620418 1.704161,-18.276913 C 76.641461,34.110231 70.916304,17.720777 63.85477,17.720777 z"
   id="path3-2-6"
   inkscape:connector-curvature="0"
   sodipodi:nodetypes="ssccssscccs"
   style="fill:#000000" /><path
   d="m 28.306237,-17.279222 c -7.061077,0 -12.786237,16.38945417 -12.786237,36.606148 0,6.656495 0.653338,12.844721 1.704618,18.276913 3.140134,16.195859 5.368825,17.290497 5.880987,26.092139 0.429924,7.378521 1.024781,9.092022 2.971546,9.092022 0.827866,0 0.78626,0 2.229086,0 1.442826,0 1.401221,0 2.22863,0 1.947678,0 2.542079,-1.716117 2.972003,-9.092022 0.512161,-8.801642 2.741308,-9.897588 5.881445,-26.092139 1.05173,-5.430884 1.70416,-11.620418 1.70416,-18.276913 4.5e-4,-20.21669383 -5.724704,-36.606148 -12.786238,-36.606148 z"
   id="path3-2-6-3"
   inkscape:connector-curvature="0"
   sodipodi:nodetypes="ssccssscccs"
   style="opacity:0.34166667;fill:#ffff00;filter:url(#filter4171)"
   transform="matrix(1.9821928,0,0,0.87396688,7.7467056,35.759951)" /><path
   style="color:#000000;fill:#000000;fill-opacity:1;fill-rule:nonzero;stroke-width:1;stroke-linecap:butt;stroke-linejoin:miter;stroke-miterlimit:4;stroke-opacity:1;stroke-dasharray:none;stroke-dashoffset:0;marker:none;visibility:visible;display:inline;overflow:visible;enable-background:accumulate"
   d="m 53.548889,112 c -0.828,0 -1.5,0.671 -1.5,1.5 l 0,1 c 0,0.75616 0.554648,1.3648 1.28125,1.46875 l 0,2.0625 c -0.726602,0.10395 -1.28125,0.7126 -1.28125,1.46875 l 0,1 c 0,0.75616 0.554648,1.3648 1.28125,1.46875 l 0,2.0625 c -0.726602,0.10395 -1.28125,0.7126 -1.28125,1.46875 l 0,1 c 0,0.829 0.672,1.5 1.5,1.5 l 20,0 c 0.828,0 1.5,-0.671 1.5,-1.5 l 0,-1 c 0,-0.78351 -0.61009,-1.43185 -1.375,-1.5 l 0,-2 c 0.76491,-0.0682 1.375,-0.71649 1.375,-1.5 l 0,-1 c 0,-0.78351 -0.61009,-1.43185 -1.375,-1.5 l 0,-2 c 0.76491,-0.0682 1.375,-0.71649 1.375,-1.5 l 0,-1 c 0,-0.829 -0.672,-1.5 -1.5,-1.5 l -20,0 z"
   id="path5"
   inkscape:connector-curvature="0" /></svg>