<svg xmlns="http://www.w3.org/2000/svg" xmlns:xlink="http://www.w3.org/1999/xlink" version="1.1" id="Layer_1" x="0px" y="0px" width="100px" height="100px" viewBox="0 0 100 100" enable-background="new 0 0 100 100" xml:space="preserve">
<g>
	<g>
		<g>
			<path d="M49.41,43.347c-4.013,0-7.135-3.119-7.135-7.13c0-3.791,3.123-6.912,7.135-6.912c3.785,0,6.908,3.121,6.908,6.912     C56.316,40.228,53.195,43.347,49.41,43.347z"/>
			<path d="M36.97,83.348c-0.002,0.002-0.004,0.008-0.005,0.012c0.727,0.441,1.624,0.986,2.067,1.257     c-0.003-0.607-0.014-2.138-0.021-3.267C37.959,81.844,37.29,82.785,36.97,83.348z M63.698,45.265l4.727-14.342     c1.034-3.143,0.442-4.824-1.979-5.622c-2.399-0.79-4.049,0.292-5.045,3.309l-5.161,15.661c-0.044,0.13-0.036,0.259-0.009,0.384     l-13.437,0.202L37.47,28.719c-0.994-3.016-2.645-4.098-5.046-3.307c-2.421,0.797-3.014,2.479-1.979,5.622     c0,0,3.837,11.646,4.847,14.709c0.005,0.07,0.016,0.141,0.041,0.209l5.125,14.094l-8.945,17.705     c-0.117,0.229-0.105,0.506,0.031,0.728c0.137,0.22,0.379,0.353,0.638,0.35l7.58-0.038l0.017,7.149l-8.087-4.713     c-3.42-1.945-5.266,0.541-5.875,1.609c-0.549,0.964-1.704,3.987,1.505,5.814c2.564,1.461,11.068,6.062,13.955,7.617     c0.301,0.186,1.03,0.504,1.03,0.504c0.644,0.222,1.26,0.27,1.642,0.27c0.838,0,3.455-0.277,4.216-2.714     c0.004,0.002,0.008,0.003,0.011,0.006c0.08-0.335,0.136-0.737,0.136-1.153l-0.055-14.508l2.215-0.007v7.286     c-0.44-0.243-0.966-0.555-1.401-0.797l-0.02,8.025c0,0.57-0.074,1.068-0.198,1.508c1.459,0.762,2.676,1.394,3.336,1.735     c0.942,0.597,2.031,0.724,2.59,0.724c1.229,0,4.306-0.373,4.306-4.308c0,0,0.011-8.015,0.011-14.153l7.914,0.023     c0.258-0.003,0.493-0.139,0.626-0.357c0.132-0.221,0.142-0.492,0.023-0.721l-9.14-17.826l5.138-14.26     C63.693,45.455,63.702,45.359,63.698,45.265z"/>
		</g>
		<g>
			<path d="M39.709,10.43c0-3.068-2.496-5.563-5.563-5.563c-0.732,0-1.43,0.146-2.07,0.404c-1.532-1.945-3.902-3.2-6.563-3.2     c-2.721,0-5.135,1.313-6.662,3.333c-2.803,0.285-4.997,2.657-4.997,5.534c0,0.251,0.026,0.497,0.059,0.74     c-1.272,1.021-2.09,2.585-2.09,4.338c0,3.068,2.496,5.563,5.563,5.563c0.113,0,0.225-0.01,0.337-0.017     c1.211,3.125,4.241,5.351,7.789,5.351c2.558,0,4.85-1.158,6.383-2.975c0.24,0.025,0.482,0.042,0.728,0.042     c3.831,0,6.947-3.117,6.947-6.949c0-1.23-0.326-2.386-0.889-3.39C39.326,12.732,39.709,11.625,39.709,10.43z"/>
		</g>
	</g>
	<g>
		<path d="M59.291,10.429c0-3.068,2.496-5.563,5.562-5.563c0.731,0,1.432,0.146,2.069,0.403c1.533-1.944,3.902-3.199,6.563-3.199    c2.722,0,5.136,1.312,6.662,3.333c2.804,0.284,4.996,2.657,4.996,5.534c0,0.251-0.024,0.496-0.059,0.739    c1.271,1.021,2.09,2.585,2.09,4.339c0,3.067-2.496,5.562-5.562,5.562c-0.113,0-0.227-0.01-0.338-0.017    c-1.211,3.125-4.24,5.351-7.789,5.351c-2.557,0-4.85-1.158-6.383-2.975c-0.239,0.025-0.481,0.042-0.729,0.042    c-3.83,0-6.947-3.117-6.947-6.949c0-1.23,0.326-2.386,0.891-3.39C59.674,12.732,59.291,11.625,59.291,10.429z"/>
	</g>
</g>
</svg>