<?xml version="1.0" encoding="UTF-8" standalone="no"?>
<svg
   xmlns:dc="http://purl.org/dc/elements/1.1/"
   xmlns:cc="http://creativecommons.org/ns#"
   xmlns:rdf="http://www.w3.org/1999/02/22-rdf-syntax-ns#"
   xmlns:svg="http://www.w3.org/2000/svg"
   xmlns="http://www.w3.org/2000/svg"
   xmlns:sodipodi="http://sodipodi.sourceforge.net/DTD/sodipodi-0.dtd"
   xmlns:inkscape="http://www.inkscape.org/namespaces/inkscape"
   version="1.1"
   id="Layer_1"
   x="0px"
   y="0px"
   width="100px"
   height="100px"
   viewBox="0 0 100 100"
   enable-background="new 0 0 100 100"
   xml:space="preserve"
   inkscape:version="0.48.2 r9819"
   sodipodi:docname="music.svg"><metadata
   id="metadata9"><rdf:RDF><cc:Work
       rdf:about=""><dc:format>image/svg+xml</dc:format><dc:type
         rdf:resource="http://purl.org/dc/dcmitype/StillImage" /><dc:title></dc:title></cc:Work></rdf:RDF></metadata><defs
   id="defs7" /><sodipodi:namedview
   pagecolor="#ffffff"
   bordercolor="#666666"
   borderopacity="1"
   objecttolerance="10"
   gridtolerance="10"
   guidetolerance="10"
   inkscape:pageopacity="0"
   inkscape:pageshadow="2"
   inkscape:window-width="1280"
   inkscape:window-height="774"
   id="namedview5"
   showgrid="false"
   inkscape:zoom="2.36"
   inkscape:cx="50"
   inkscape:cy="50"
   inkscape:window-x="0"
   inkscape:window-y="26"
   inkscape:window-maximized="1"
   inkscape:current-layer="Layer_1" />
<path
   fill="#000000"
   d="M93.161,0.071C59.66-1.043,32.22,11.314,32.22,11.314L32.2,74.023c-3.411-1.354-7.559-1.675-11.772-0.651  c-9.083,2.207-15.031,9.82-13.285,17.007s10.524,11.225,19.606,9.019c8.564-2.081,14.338-8.969,13.507-15.772l0,0V36.771  c0,0,19.404-6.784,44.573-8.485v34.849l0,0c-3.374-1.292-7.443-1.585-11.579-0.58c-9.083,2.206-15.031,9.819-13.285,17.007  c1.745,7.187,10.523,11.224,19.606,9.018c7.931-1.927,13.471-7.977,13.587-14.264l0.003,0.004  C93.161,74.318,93.161,12.799,93.161,0.071z"
   id="path3"
   style="fill:#ffffff" />
</svg>