<?xml version="1.0" encoding="UTF-8" standalone="no"?>
<!-- Generator: Adobe Illustrator 14.0.0, SVG Export Plug-In . SVG Version: 6.00 Build 43363)  -->

<svg
   xmlns:dc="http://purl.org/dc/elements/1.1/"
   xmlns:cc="http://creativecommons.org/ns#"
   xmlns:rdf="http://www.w3.org/1999/02/22-rdf-syntax-ns#"
   xmlns:svg="http://www.w3.org/2000/svg"
   xmlns="http://www.w3.org/2000/svg"
   xmlns:sodipodi="http://sodipodi.sourceforge.net/DTD/sodipodi-0.dtd"
   xmlns:inkscape="http://www.inkscape.org/namespaces/inkscape"
   version="1.0"
   id="Layer_1"
   x="0px"
   y="0px"
   width="50.938px"
   height="100px"
   viewBox="0 0 50.938 100"
   enable-background="new 0 0 50.938 100"
   xml:space="preserve"
   inkscape:version="0.48.2 r9819"
   sodipodi:docname="phone.svg"><metadata
   id="metadata3006"><rdf:RDF><cc:Work
       rdf:about=""><dc:format>image/svg+xml</dc:format><dc:type
         rdf:resource="http://purl.org/dc/dcmitype/StillImage" /><dc:title></dc:title></cc:Work></rdf:RDF></metadata><defs
   id="defs3004" /><sodipodi:namedview
   pagecolor="#ffffff"
   bordercolor="#666666"
   borderopacity="1"
   objecttolerance="10"
   gridtolerance="10"
   guidetolerance="10"
   inkscape:pageopacity="0"
   inkscape:pageshadow="2"
   inkscape:window-width="640"
   inkscape:window-height="480"
   id="namedview3002"
   showgrid="false"
   inkscape:zoom="2.36"
   inkscape:cx="25.469"
   inkscape:cy="50"
   inkscape:window-x="0"
   inkscape:window-y="26"
   inkscape:window-maximized="0"
   inkscape:current-layer="Layer_1" />
<path
   d="M43.101,0H7.837C3.509,0,0,3.508,0,7.836v84.327C0,96.491,3.509,100,7.837,100h35.264c4.328,0,7.837-3.509,7.837-7.837  V7.836C50.938,3.508,47.429,0,43.101,0z M21.615,8.315h7.708c0.576,0,1.043,0.467,1.043,1.044c0,0.576-0.467,1.043-1.043,1.043  h-7.708c-0.577,0-1.044-0.467-1.044-1.043C20.571,8.782,21.038,8.315,21.615,8.315z M17.123,7.915c0.687,0,1.244,0.557,1.244,1.244  c0,0.687-0.557,1.244-1.244,1.244c-0.687,0-1.244-0.557-1.244-1.244C15.879,8.472,16.437,7.915,17.123,7.915z M25.469,95.772  c-2.705,0-4.898-2.192-4.898-4.897c0-2.706,2.193-4.898,4.898-4.898s4.897,2.192,4.897,4.898  C30.366,93.58,28.174,95.772,25.469,95.772z M47.019,82.489h-43.1V17.511h43.1V82.489z"
   id="path3000"
   style="fill:#ffffff" />
</svg>