<?xml version="1.0" encoding="utf-8"?>
<!-- Generator: Adobe Illustrator 14.0.0, SVG Export Plug-In . SVG Version: 6.00 Build 43363)  -->
<!DOCTYPE svg PUBLIC "-//W3C//DTD SVG 1.1//EN" "http://www.w3.org/Graphics/SVG/1.1/DTD/svg11.dtd">
<svg version="1.1" id="Layer_1" xmlns="http://www.w3.org/2000/svg" xmlns:xlink="http://www.w3.org/1999/xlink" x="0px" y="0px"
	 width="100px" height="46px" viewBox="0 0 100 46" enable-background="new 0 0 100 46" xml:space="preserve">
<g>
	<path fill="#1E1601" d="M61.381,22.999c-3.857,0-6.984-3.127-6.984-6.984V7.378c0-3.858-3.127-6.984-6.984-6.984H7.562
		c-3.857,0-6.984,3.126-6.984,6.984v8.637c0,3.857,3.127,6.984,6.984,6.984h39.85c3.857,0,6.984,3.128,6.984,6.985v8.637
		c0,3.856,3.127,6.985,6.984,6.985h31.057c3.857,0,6.984-3.129,6.984-6.985v-8.637c0-3.857-3.127-6.985-6.984-6.985H61.381"/>
	<path fill="#FFFFFF" d="M68.984,30.297c0-0.766,0.404-1.155,1.156-1.155c0.766,0,1.17,0.39,1.17,1.155v8.023
		c0,0.768-0.404,1.157-1.17,1.157c-0.389,0-0.793-0.188-1.062-0.524l-4.623-5.672v5.039c0,0.768-0.402,1.157-1.168,1.157
		c-0.754,0-1.156-0.39-1.156-1.157v-8.023c0-0.766,0.402-1.155,1.156-1.155c0.402,0,0.766,0.162,1.143,0.619l4.555,5.604V30.297"/>
	<path fill="#FFFFFF" d="M81.094,29.236c0.74,0,1.102,0.376,1.102,1.103c0,0.737-0.361,1.115-1.102,1.115h-4.529v1.721h2.822
		c0.74,0,1.104,0.361,1.104,1.101c0,0.74-0.363,1.103-1.104,1.103h-2.822v1.774h4.529c0.74,0,1.102,0.376,1.102,1.115
		c0,0.726-0.361,1.103-1.102,1.103h-5.699c-0.752,0-1.154-0.391-1.154-1.156v-7.821c0-0.767,0.402-1.156,1.154-1.156H81.094"/>
	<path fill="#FFFFFF" d="M86.752,38.32v-6.866H84.83c-0.752,0-1.115-0.377-1.115-1.115c0-0.727,0.363-1.103,1.115-1.103h6.184
		c0.738,0,1.412,0.376,1.412,1.103c0,0.738-0.674,1.115-1.412,1.115h-1.936v6.866c0,0.769-0.404,1.156-1.156,1.156
		C87.156,39.477,86.752,39.089,86.752,38.32"/>
	<path fill="#FFFFFF" d="M12.61,13.766c0-0.523-0.659-0.738-1.506-0.994l-1.693-0.511c-1.223-0.362-2.298-1.224-2.298-2.729
		c0-1.814,1.626-3.051,3.831-3.051c1.706,0,3.723,0.592,3.723,1.681c0,0.671-0.336,1.088-0.955,1.088
		c-0.322,0-0.605-0.107-0.927-0.214c-0.471-0.176-1.049-0.377-1.841-0.377c-0.646,0-1.452,0.255-1.452,0.766
		c0,0.457,0.362,0.672,1.155,0.913l1.896,0.578c1.277,0.39,2.446,1.156,2.446,2.917c0,1.883-1.762,3.092-4.019,3.092
		c-1.896,0-4.114-0.592-4.114-1.68c0-0.672,0.392-1.089,1.062-1.089c0.35,0,0.673,0.093,1.035,0.215
		c0.511,0.175,1.116,0.376,2.017,0.376C11.736,14.747,12.61,14.398,12.61,13.766"/>
	<path fill="#FFFFFF" d="M24.128,7.69c0-0.766,0.403-1.154,1.156-1.154c0.766,0,1.169,0.389,1.169,1.154v4.436
		c0,2.917-1.949,4.798-4.61,4.798c-2.647,0-4.596-1.881-4.596-4.798V7.69c0-0.766,0.403-1.154,1.155-1.154
		c0.767,0,1.17,0.389,1.17,1.154v4.436c0,1.573,0.954,2.514,2.271,2.514c1.331,0,2.285-0.94,2.285-2.514V7.69"/>
	<path fill="#FFFFFF" d="M33.631,13.659h-2.124v2.057c0,0.766-0.403,1.154-1.169,1.154c-0.754,0-1.156-0.389-1.156-1.154V7.785
		c0-0.766,0.402-1.156,1.156-1.156h3.332c2.231,0,3.776,1.465,3.776,3.575c0,1.29-0.591,2.272-1.586,2.796l1.076,2.15
		c0.106,0.215,0.146,0.417,0.146,0.618c0,0.672-0.765,1.102-1.344,1.102c-0.43,0-0.737-0.255-0.954-0.738L33.631,13.659
		 M31.507,8.847v2.701h1.962c0.887,0,1.586-0.402,1.586-1.344c0-0.954-0.699-1.357-1.586-1.357H31.507z"/>
	<path fill="#FFFFFF" d="M42.285,13.215v2.501c0,0.766-0.39,1.154-1.156,1.154c-0.753,0-1.155-0.389-1.155-1.154V7.785
		c0-0.766,0.402-1.156,1.155-1.156h5.564c0.739,0,1.102,0.377,1.102,1.103c0,0.738-0.362,1.116-1.102,1.116h-4.408v2.149h2.755
		c0.739,0,1.103,0.377,1.103,1.116c0,0.726-0.363,1.102-1.103,1.102H42.285"/>
</g>
</svg>
