<?xml version="1.0" encoding="UTF-8" standalone="no"?>
<!-- Generator: Adobe Illustrator 12.0.0, SVG Export Plug-In . SVG Version: 6.00 Build 51448)  -->

<svg
   xmlns:dc="http://purl.org/dc/elements/1.1/"
   xmlns:cc="http://creativecommons.org/ns#"
   xmlns:rdf="http://www.w3.org/1999/02/22-rdf-syntax-ns#"
   xmlns:svg="http://www.w3.org/2000/svg"
   xmlns="http://www.w3.org/2000/svg"
   xmlns:xlink="http://www.w3.org/1999/xlink"
   xmlns:sodipodi="http://sodipodi.sourceforge.net/DTD/sodipodi-0.dtd"
   xmlns:inkscape="http://www.inkscape.org/namespaces/inkscape"
   height="136.66998"
   id="Layer_1"
   inkscape:version="0.48.1 r9760"
   sodipodi:docname="storage.svg"
   sodipodi:version="0.32"
   space="preserve"
   style="overflow:visible"
   version="1.0"
   viewBox="0 0 118.13913 136.67"
   width="118.48682"
   inkscape:output_extension="org.inkscape.output.svg.inkscape">
  <metadata
     id="metadata3">
    <rdf:RDF>
      <cc:Work
         rdf:about="">
        <dc:title>Database, Base de donnée</dc:title>
        <dc:description />
        <dc:subject>
          <rdf:Bag>
            <rdf:li>computer</rdf:li>
            <rdf:li>database</rdf:li>
          </rdf:Bag>
        </dc:subject>
        <dc:publisher>
          <cc:Agent
             rdf:about="http://www.openclipart.org/">
            <dc:title>Open Clip Art Library</dc:title>
          </cc:Agent>
        </dc:publisher>
        <dc:creator>
          <cc:Agent>
            <dc:title>Architetto Francesco Rollandin</dc:title>
          </cc:Agent>
        </dc:creator>
        <dc:rights>
          <cc:Agent>
            <dc:title>Architetto Francesco Rollandin</dc:title>
          </cc:Agent>
        </dc:rights>
        <dc:date />
        <dc:format>image/svg+xml</dc:format>
        <dc:type
           rdf:resource="http://purl.org/dc/dcmitype/StillImage" />
        <cc:license
           rdf:resource="http://web.resource.org/cc/PublicDomain" />
        <dc:language>en</dc:language>
      </cc:Work>
      <cc:License
         rdf:about="http://web.resource.org/cc/PublicDomain">
        <cc:permits
           rdf:resource="http://web.resource.org/cc/Reproduction" />
        <cc:permits
           rdf:resource="http://web.resource.org/cc/Distribution" />
        <cc:permits
           rdf:resource="http://web.resource.org/cc/DerivativeWorks" />
      </cc:License>
    </rdf:RDF>
  </metadata>
  <defs
     id="defs94">
    <linearGradient
       y2="109.2632"
       y1="109.2632"
       x2="117.5381"
       x1="0.94679999"
       id="XMLID_7_"
       gradientUnits="userSpaceOnUse">
      <stop
         style="stop-color:#DFDFDF"
         offset="0"
         id="stop6" />
      <stop
         style="stop-color:#DADADA"
         offset="0.2168"
         id="stop8" />
      <stop
         style="stop-color:#CBCBCB"
         offset="0.4798"
         id="stop10" />
      <stop
         style="stop-color:#B3B3B3"
         offset="0.7655"
         id="stop12" />
      <stop
         style="stop-color:#9A9999"
         offset="1"
         id="stop14" />
    </linearGradient>
    <linearGradient
       y2="461.95169"
       y1="461.95169"
       x2="-246.68941"
       x1="-248.4731"
       id="XMLID_8_"
       gradientUnits="userSpaceOnUse"
       gradientTransform="matrix(0,205.5401,205.5401,0,-94889.922,51048.383)">
      <stop
         style="stop-color:#FFFFFF"
         offset="0"
         id="stop19" />
      <stop
         style="stop-color:#000000"
         offset="1"
         id="stop21" />
    </linearGradient>
    <linearGradient
       y2="68.888199"
       y1="68.888199"
       x2="117.5381"
       x1="0.94679999"
       id="XMLID_9_"
       gradientUnits="userSpaceOnUse">
      <stop
         style="stop-color:#DFDFDF"
         offset="0"
         id="stop34" />
      <stop
         style="stop-color:#DADADA"
         offset="0.2168"
         id="stop36" />
      <stop
         style="stop-color:#CBCBCB"
         offset="0.4798"
         id="stop38" />
      <stop
         style="stop-color:#B3B3B3"
         offset="0.7655"
         id="stop40" />
      <stop
         style="stop-color:#9A9999"
         offset="1"
         id="stop42" />
    </linearGradient>
    <linearGradient
       y2="461.95261"
       y1="461.95261"
       x2="-246.7719"
       x1="-248.55811"
       id="XMLID_10_"
       gradientUnits="userSpaceOnUse"
       gradientTransform="matrix(0,205.5463,205.5463,0,-94893.484,51026.383)">
      <stop
         style="stop-color:#FFFFFF"
         offset="0"
         id="stop47" />
      <stop
         style="stop-color:#000000"
         offset="1"
         id="stop49" />
    </linearGradient>
    <linearGradient
       y2="28.517599"
       y1="28.517599"
       x2="117.5381"
       x1="0.94679999"
       id="XMLID_11_"
       gradientUnits="userSpaceOnUse">
      <stop
         style="stop-color:#DFDFDF"
         offset="0"
         id="stop60" />
      <stop
         style="stop-color:#DADADA"
         offset="0.2168"
         id="stop62" />
      <stop
         style="stop-color:#CBCBCB"
         offset="0.4798"
         id="stop64" />
      <stop
         style="stop-color:#B3B3B3"
         offset="0.7655"
         id="stop66" />
      <stop
         style="stop-color:#9A9999"
         offset="1"
         id="stop68" />
    </linearGradient>
    <linearGradient
       y2="461.95169"
       y1="461.95169"
       x2="-246.86349"
       x1="-248.644"
       id="XMLID_12_"
       gradientUnits="userSpaceOnUse"
       gradientTransform="matrix(0,205.5401,205.5401,0,-94889.922,51003.008)">
      <stop
         style="stop-color:#FFFFFF"
         offset="0"
         id="stop73" />
      <stop
         style="stop-color:#000000"
         offset="1"
         id="stop75" />
    </linearGradient>
    <linearGradient
       inkscape:collect="always"
       xlink:href="#XMLID_12_"
       id="linearGradient3158"
       gradientUnits="userSpaceOnUse"
       gradientTransform="matrix(0,205.5401,205.5401,0,-94889.922,51003.008)"
       x1="-248.644"
       y1="461.95169"
       x2="-246.86349"
       y2="461.95169" />
    <linearGradient
       inkscape:collect="always"
       xlink:href="#XMLID_10_"
       id="linearGradient3167"
       gradientUnits="userSpaceOnUse"
       gradientTransform="matrix(0,205.5463,205.5463,0,-94893.484,51026.383)"
       x1="-248.55811"
       y1="461.95261"
       x2="-246.7719"
       y2="461.95261" />
    <linearGradient
       inkscape:collect="always"
       xlink:href="#XMLID_8_"
       id="linearGradient3177"
       gradientUnits="userSpaceOnUse"
       gradientTransform="matrix(0,205.5401,205.5401,0,-94889.922,51048.383)"
       x1="-248.4731"
       y1="461.95169"
       x2="-246.68941"
       y2="461.95169" />
  </defs>
  <sodipodi:namedview
     bordercolor="#666666"
     borderopacity="1.0"
     id="base"
     inkscape:current-layer="Layer_1"
     inkscape:cx="87.606381"
     inkscape:cy="73.348735"
     inkscape:pageopacity="0.0"
     inkscape:pageshadow="2"
     inkscape:window-height="776"
     inkscape:window-width="1280"
     inkscape:window-x="29"
     inkscape:window-y="29"
     inkscape:zoom="1.8475718"
     pagecolor="#ffffff"
     showgrid="false"
     fit-margin-top="0"
     fit-margin-left="0"
     fit-margin-right="0"
     fit-margin-bottom="0"
     inkscape:window-maximized="1" />
  <path
     style="fill:#000000"
     d="M 59.25 0.90625 C 43.052004 0.90625 24.936996 1.8185016 9.875 8.4375 C 0.17300221 12.700498 1.03125 17.887252 1.03125 27.28125 C 1.03125 37.346248 -0.5399977 43.830252 9.875 48.40625 C 10.037177 48.47752 10.212126 48.523798 10.375 48.59375 C 10.207704 48.66555 10.041559 48.739306 9.875 48.8125 C 0.17300421 53.075496 1.03125 58.231004 1.03125 67.625 C 1.03125 77.689996 -0.5399947 84.172004 9.875 88.75 C 10.048871 88.82639 10.231578 88.893878 10.40625 88.96875 C 10.229931 89.04432 10.050497 89.110389 9.875 89.1875 C 0.17300621 93.451495 1.03125 98.606005 1.03125 108 C 1.03125 118.063 -0.5399937 124.549 9.875 129.125 C 24.93699 135.743 43.05201 136.65625 59.25 136.65625 C 75.445993 136.65625 93.530759 135.743 108.59375 129.125 C 119.00175 124.55 117.46875 118.09125 117.46875 108.03125 C 117.46875 98.631255 118.30075 93.453495 108.59375 89.1875 C 108.41824 89.11039 108.23882 89.044319 108.0625 88.96875 C 108.23882 88.89319 108.41824 88.827099 108.59375 88.75 C 119.00175 84.174004 117.46875 77.716246 117.46875 67.65625 C 117.46875 58.255254 118.30075 53.077496 108.59375 48.8125 C 108.4269 48.73918 108.26133 48.665671 108.09375 48.59375 C 108.25816 48.52316 108.43005 48.478184 108.59375 48.40625 C 119.00175 43.832252 117.46875 37.340248 117.46875 27.28125 C 117.46875 17.880252 118.30075 12.702498 108.59375 8.4375 C 93.530749 1.8185016 75.445993 0.90625 59.25 0.90625 z M 60.875 3.65625 C 71.429139 3.7321836 82.024376 4.4797502 92.40625 6.375 C 99.459249 7.6629998 108.15175 9.2187507 113.84375 13.96875 C 109.66275 18.437749 100.9315 19.405 95.3125 20.375 C 83.704501 22.377 71.855749 23.0725 60.09375 23.1875 C 42.982752 23.3525 21.892248 23.116749 6.40625 14.59375 C 9.9742496 9.3967507 18.276751 7.7384999 23.96875 6.5625 C 34.584749 4.3655003 45.556001 3.7935 56.375 3.6875 C 57.880625 3.67275 59.367266 3.6454023 60.875 3.65625 z M 11 48.84375 C 25.836505 55.033382 43.446329 55.9375 59.25 55.9375 C 75.044133 55.9375 92.635779 55.05656 107.46875 48.875 C 109.31843 49.840009 111.01622 50.986413 112.4375 52.40625 C 107.0185 57.820247 97.723249 59.5655 90.53125 60.9375 C 80.249251 62.8985 69.708994 63.65625 59.25 63.65625 C 48.025003 63.65625 36.684497 62.80275 25.6875 60.46875 C 19.162503 59.08375 10.976498 57.314247 6.0625 52.40625 C 7.4808118 50.98977 9.1581877 49.817136 11 48.84375 z M 11.25 89.3125 C 26.033743 95.405763 43.535512 96.28125 59.25 96.28125 C 74.958033 96.28125 92.436779 95.401003 107.21875 89.3125 C 109.17007 90.303489 110.94899 91.513303 112.4375 93 C 107.0165 98.410995 97.723249 100.15825 90.53125 101.53125 C 80.249261 103.49425 69.708994 104.25 59.25 104.25 C 48.023005 104.25 36.684495 103.3975 25.6875 101.0625 C 19.162505 99.6775 10.977496 97.905995 6.0625 93 C 7.5441238 91.520016 9.3114397 90.314799 11.25 89.3125 z "
     transform="translate(-0.17385061,0)"
     id="path16" />
</svg>
