<?xml version="1.0" encoding="utf-8"?>
<!-- Generator: Adobe Illustrator 14.0.0, SVG Export Plug-In . SVG Version: 6.00 Build 43363)  -->
<!DOCTYPE svg PUBLIC "-//W3C//DTD SVG 1.0//EN" "http://www.w3.org/TR/2001/REC-SVG-20010904/DTD/svg10.dtd">
<svg version="1.0" id="Layer_1" xmlns="http://www.w3.org/2000/svg" xmlns:xlink="http://www.w3.org/1999/xlink" x="0px" y="0px"
	 width="100px" height="63.789px" viewBox="0 0 100 63.789" enable-background="new 0 0 100 63.789" xml:space="preserve">
<path d="M99.164,23.986c-0.004-0.016-0.009-0.03-0.013-0.047c-0.037-0.134-0.061-0.259-0.1-0.395l-0.021,0.007
	c-0.575-1.857-2.286-3.216-4.332-3.216c-2.518,0-4.558,2.04-4.558,4.557c0,0.567,0.117,1.106,0.307,1.607l-0.012,0.004
	c0.29,1.275,0.355,2.636,0.355,3.998c0,9.838-8.004,17.842-17.842,17.842H28.104v-6.236L15.732,52.948l12.372,10.841v-6.236H72.95
	c14.914,0,27.05-12.135,27.05-27.051C100,28.07,99.755,26.17,99.164,23.986z"/>
<path d="M84.268,10.841L71.896,0v6.237H27.051C12.135,6.237,0,18.372,0,33.287c0,2.432,0.244,4.331,0.836,6.516
	c0.003,0.016,0.009,0.03,0.013,0.047c0.036,0.134,0.061,0.259,0.1,0.395l0.021-0.007c0.575,1.857,2.286,3.217,4.333,3.217
	c2.516,0,4.556-2.041,4.556-4.558c0-0.567-0.117-1.106-0.307-1.607l0.012-0.005c-0.29-1.274-0.354-2.636-0.354-3.997
	c0-9.838,8.003-17.842,17.842-17.842h44.846v6.237L84.268,10.841z"/>
</svg>
