<?xml version="1.0" encoding="UTF-8" standalone="no"?>
<!-- Created with Inkscape (http://www.inkscape.org/) -->

<svg
   xmlns:dc="http://purl.org/dc/elements/1.1/"
   xmlns:cc="http://creativecommons.org/ns#"
   xmlns:rdf="http://www.w3.org/1999/02/22-rdf-syntax-ns#"
   xmlns:svg="http://www.w3.org/2000/svg"
   xmlns="http://www.w3.org/2000/svg"
   xmlns:sodipodi="http://sodipodi.sourceforge.net/DTD/sodipodi-0.dtd"
   xmlns:inkscape="http://www.inkscape.org/namespaces/inkscape"
   id="svg3004"
   version="1.1"
   inkscape:version="0.48.2 r9819"
   width="1863.6625"
   height="883.08125"
   xml:space="preserve"
   sodipodi:docname="worldmap.svg"><metadata
     id="metadata3010"><rdf:RDF><cc:Work
         rdf:about=""><dc:format>image/svg+xml</dc:format><dc:type
           rdf:resource="http://purl.org/dc/dcmitype/StillImage" /><dc:title></dc:title></cc:Work></rdf:RDF></metadata><defs
     id="defs3008"><clipPath
       clipPathUnits="userSpaceOnUse"
       id="clipPath3018"><path
         d="m 0,706.465 1490.926,0 L 1490.926,0 0,0 0,706.465 z"
         id="path3020" /></clipPath><clipPath
       clipPathUnits="userSpaceOnUse"
       id="clipPath3026"><path
         d="m 22.1953,686.117 1447.7347,0 0,-667.1902 -1447.7347,0 0,667.1902 z"
         id="path3028" /></clipPath></defs><sodipodi:namedview
     pagecolor="#ffffff"
     bordercolor="#666666"
     borderopacity="1"
     objecttolerance="10"
     gridtolerance="10"
     guidetolerance="10"
     inkscape:pageopacity="0"
     inkscape:pageshadow="2"
     inkscape:window-width="1280"
     inkscape:window-height="771"
     id="namedview3006"
     showgrid="false"
     inkscape:zoom="0.61545479"
     inkscape:cx="931.83124"
     inkscape:cy="441.54062"
     inkscape:window-x="0"
     inkscape:window-y="26"
     inkscape:window-maximized="1"
     inkscape:current-layer="g3012" /><g
     id="g3012"
     inkscape:groupmode="layer"
     inkscape:label="World"
     transform="matrix(1.25,0,0,-1.25,0,883.08125)"><g
       id="g3014"
       style="fill:#000000"><g
         id="g3016"
         clip-path="url(#clipPath3018)"
         style="fill:#000000"><g
           id="g3022"
           style="fill:#000000"><g
             id="g3024"
             style="fill:#000000" /><g
             id="g3030"
             style="fill:#000000"><g
               clip-path="url(#clipPath3026)"
               id="g3032"
               style="fill:#000000"><g
                 transform="translate(1464.6294,107.8564)"
                 id="g3034"
                 style="fill:#000000"><path
                   d="M 0,0 C 1.661,0.134 3.9,1.619 5.301,0.274 4.287,-2.134 2.464,-4.464 0,-5.576 c -1.162,-0.521 -2.683,-0.331 -3.9,-0.838 -2.317,-0.957 -3.541,-3.365 -5.576,-5.02 -1.921,-1.562 -4.442,-2.893 -6.414,-4.181 -1.9,-1.239 -4.646,-3.76 -6.969,-1.95 0.176,3.266 3.654,3.224 4.463,5.857 -0.006,1.95 -1.732,2.168 -1.675,4.182 3.872,3.386 9.947,5.822 10.87,12.82 0.415,3.098 -2.098,9.75 1.676,10.039 4.434,0.338 1.928,-4.464 2.231,-6.97 C -5.175,7.35 -4.14,6.666 -3.626,5.294 -2.703,2.851 -2.781,0.633 0,0"
                   style="fill:#000000;fill-opacity:1;fill-rule:nonzero;stroke:none"
                   id="path3036" /></g><g
                 transform="translate(1437.5884,91.1289)"
                 id="g3038"
                 style="fill:#000000"><path
                   d="m 0,0 c -1.556,-4.653 -8.328,-7.089 -12.826,-10.039 -1.38,-0.908 -2.507,-2.964 -4.183,-3.618 -2.175,-0.86 -4.645,-0.585 -6.969,-1.676 -3.675,-1.731 -6.442,-5.118 -9.757,-7.251 -3.239,-2.084 -7.97,-5.013 -11.708,-5.294 -4.125,-0.31 -11.743,2.344 -6.688,6.132 2.19,1.64 6.829,3.555 9.201,4.737 7.927,3.978 19.078,6.654 25.647,11.434 3.71,2.696 7.068,5.561 10.595,7.806 C -4.935,3.352 -1.964,0.331 0,0"
                   style="fill:#000000;fill-opacity:1;fill-rule:nonzero;stroke:none"
                   id="path3040" /></g><g
                 transform="translate(1389.3579,277.6328)"
                 id="g3042"
                 style="fill:#000000"><path
                   d="M 0,0 C 0.894,0.239 0.865,-0.437 1.394,-0.557 1.063,-4.541 -1.331,-7.146 -6.414,-6.688 -8.688,-6.484 -12.658,-4.78 -12.82,-3.626 -13.397,0.38 -2.549,-2.091 0,0"
                   style="fill:#000000;fill-opacity:1;fill-rule:nonzero;stroke:none"
                   id="path3044" /></g><g
                 transform="translate(1375.6997,258.6738)"
                 id="g3046"
                 style="fill:#000000"><path
                   d="m 0,0 c 2.007,-0.57 10.962,-6.899 8.082,-9.75 -1.569,-1.563 -3.576,0.83 -6.132,1.387 -3.407,0.753 -6.026,-0.156 -8.363,1.675 -2.648,2.077 -3.295,6.604 -6.132,9.202 -1.436,1.309 -5.238,3.069 -7.808,2.787 -4.42,-0.479 -4.378,-5.554 -8.363,-7.807 -3.808,0.415 -6.055,-0.697 -8.92,0.281 -3.019,1.029 -4.526,4.936 -7.251,5.294 -2.837,0.381 -9.546,-4.568 -10.594,-0.281 -0.846,3.471 4.68,4.611 5.018,6.97 0.353,2.422 -2.168,6.187 -3.344,7.251 -1.168,1.055 -2.808,1.14 -4.181,1.95 -1.422,0.852 -2.534,2.485 -4.182,3.351 -5.843,3.042 -14.763,1.802 -17.009,6.688 -0.394,0.866 0.219,1.816 -0.274,3.063 -0.612,1.534 -2.852,2.02 -3.626,3.35 -1.978,3.394 -0.598,8.42 2.788,8.92 3.049,0.45 9.061,-3.309 9.758,-5.576 0.366,-1.196 -0.254,-2.534 0,-3.907 0.309,-1.647 2.78,-5.667 5.019,-5.85 2.886,-0.239 4.583,4.224 7.244,5.85 1.837,1.127 4.844,2.422 7.251,2.232 2.373,-0.184 3.964,-2.042 6.688,-3.062 1.95,-0.733 4.379,-1.021 6.695,-1.676 2.014,-0.571 3.774,-1.753 5.851,-2.506 6.632,-2.401 14.53,-3.816 18.121,-8.089 0.978,-1.162 0.95,-2.893 2.231,-4.183 1.183,-1.182 7.631,-2.35 7.808,-5.019 C -3.491,10.518 -6.286,10.398 -6.413,8.363 -6.667,4.302 -0.972,4.548 0,0"
                   style="fill:#000000;fill-opacity:1;fill-rule:nonzero;stroke:none"
                   id="path3048" /></g><g
                 transform="translate(1380.7192,172.5322)"
                 id="g3050"
                 style="fill:#000000"><path
                   d="m 0,0 c 0.557,-2.78 -1.457,-4.688 -1.957,-6.97 -0.599,-2.766 -0.007,-6.343 -1.112,-9.201 -1.295,-3.35 -4.478,-6.645 -6.97,-10.869 -2.041,-3.471 -4.822,-7.378 -7.807,-9.758 -1.76,-1.408 -3.858,-2.224 -5.576,-3.626 -2.675,-2.181 -4.857,-4.998 -7.244,-7.525 -2.514,-2.661 -5.562,-4.689 -7.533,-6.97 -2.865,-3.315 -4.294,-8.666 -9.194,-9.201 -2.873,-0.317 -5.449,-0.064 -8.089,-1.112 -4.132,-1.648 -6.864,-4.667 -8.919,-4.746 -2.155,-0.07 -4.147,2.535 -6.132,2.789 -2.233,0.289 -3.986,-1.69 -7.251,-1.669 -1.324,0.007 -2,0.789 -3.901,1.394 -3.977,1.267 -8.356,1.211 -8.919,5.575 -0.317,2.373 1.513,3.443 1.393,5.576 -0.126,2.126 -2.21,2.662 -3.069,4.463 0.55,1.922 0.64,4.344 -1.394,5.577 -0.07,1.738 0.366,2.97 1.112,3.9 -1.619,-0.69 -3.745,-1.12 -5.576,-2.232 -2.027,-1.232 -3.491,-4.041 -5.849,-3.625 -2.197,0.774 -0.514,2.963 -0.838,4.737 -0.246,1.351 -3.323,7.118 -4.738,8.089 -1.613,1.098 -7.512,3.316 -9.483,3.626 -8.61,1.344 -14.101,-3.26 -20.909,-3.908 -1.746,-0.162 -3.653,0.29 -5.294,0 -5.597,-0.985 -11.841,-5.434 -15.333,-8.363 -5.766,-0.57 -11.616,1.183 -17.564,-0.556 -5.908,-1.725 -9.3,-6.653 -18.396,-5.294 -1.803,1.548 -5.006,2.316 -5.02,5.012 -0.014,2.126 3.154,3.506 4.182,5.02 1.105,1.626 2.984,5.463 3.063,7.807 0.062,1.852 -1.246,4.069 -1.113,6.414 0.106,1.816 1.126,3.773 1.113,5.576 -0.015,2.464 -1.557,4.638 -1.951,7.244 -0.14,0.943 0.134,2.161 0,3.35 -0.19,1.732 -1.042,3.162 -0.837,4.182 0.379,1.845 2.534,2.042 3.069,3.626 0.88,2.598 -1.07,3.013 -1.112,6.132 -0.036,2.203 1.668,3.28 2.788,6.132 0.513,1.33 0.535,3.794 1.112,4.737 0.725,1.19 3.809,2.197 5.019,2.788 4.274,2.098 7.695,5.998 11.99,6.689 1.091,0.182 2.569,-0.134 3.343,0 2.528,0.443 5.709,2.562 9.202,3.35 3.379,0.761 6.378,0.479 8.92,1.95 2.795,1.613 6.757,5.843 7.806,8.364 1.268,3.062 0.902,5.653 3.345,6.688 1.203,0.514 2.379,-0.042 3.625,0.281 1.289,0.331 4.062,1.655 5.013,2.507 1.943,1.738 2.266,4.59 4.464,6.413 1.52,1.26 4.385,3.19 6.413,4.182 1.196,0.592 3.407,1.211 4.456,1.112 3.928,-0.338 5.765,-5.815 10.039,-4.738 1.527,0.388 3.084,3.64 4.464,5.576 2.012,2.844 3.477,6.674 6.968,7.532 2.817,0.684 5.978,-1.09 7.527,1.388 0.344,1.76 -1.317,2.815 0,3.907 3.245,-0.204 8.743,-4.591 13.657,-4.738 2.641,-0.085 7.561,2.887 8.089,-1.119 0.232,-1.775 -1.986,-3.203 -2.513,-5.02 -0.373,-1.281 0.556,-1.971 -0.274,-3.344 -2.268,-0.894 -4.675,-1.366 -4.745,-3.9 -0.079,-3.176 4.504,-4.675 7.251,-6.414 1.879,-1.189 3.457,-3.019 4.462,-3.625 0.853,-0.507 2.218,-0.746 2.789,-1.112 1.802,-1.176 3.09,-3.837 5.576,-3.907 2.837,-0.071 5.66,3.541 7.244,6.976 1.858,4.02 1.957,8.885 2.787,13.102 0.282,1.408 1.282,2.78 1.676,4.181 1.077,3.809 2.534,8.962 5.85,10.314 3.33,-3.528 4.456,-10.384 3.908,-16.171 2.231,-1.696 6.145,-1.134 6.687,-5.02 0.19,-1.351 -0.669,-3.062 -0.556,-4.456 0.19,-2.344 1.929,-4.407 2.232,-6.414 0.556,-3.71 -0.612,-6.779 1.112,-9.475 2.176,-3.414 6.442,-3.295 9.201,-6.977 -0.055,-2.295 0.86,-3.217 1.395,-5.013 0.253,-0.844 0.013,-2.231 0.281,-2.788 0.894,-1.872 3.309,-2.055 4.182,-3.625 0.423,-0.767 0.309,-2.231 0.831,-3.626 C -6.766,9.103 -4.928,7.582 -3.625,5.576 -2.372,3.64 -0.31,1.535 0,0"
                   style="fill:#000000;fill-opacity:1;fill-rule:nonzero;stroke:none"
                   id="path3052" /></g><g
                 transform="translate(749.2739,611.061)"
                 id="g3054"
                 style="fill:#000000"><path
                   d="m 0,0 c -5.886,5.02 -15.903,-1.83 -22.584,-1.394 -2.852,0.183 -6.611,2.302 -7.526,5.019 -0.289,0.859 -0.05,2.014 -0.282,3.619 -0.254,1.781 -1.175,3.647 -1.112,4.745 0.281,5.034 12.819,5.984 12.819,12.264 -2.393,2.295 -9.412,1.908 -11.707,-0.556 -0.823,-0.887 -0.781,-2.682 -1.95,-4.464 -2.499,-3.808 -10.574,-4.259 -13.101,-8.919 -0.563,-1.035 -1.542,-3.865 -1.12,-5.576 0.662,-2.64 6.505,-3.358 6.695,-6.132 0.324,-4.674 -7.145,-4.09 -8.089,-8.089 -0.422,-1.809 0.874,-4.224 0.563,-5.85 -0.57,-2.929 -3.4,-2.077 -6.969,-3.625 -1.824,-0.789 -3.591,-3.689 -5.576,-3.901 -1.837,-0.197 -2.957,1.07 -4.182,0.831 -1.83,-0.345 -1.217,-2.591 -3.907,-3.062 -2.14,-0.373 -5.885,1.914 -6.132,-0.838 -0.161,-1.767 3.366,-2.725 5.576,-2.507 1.753,0.169 3.034,1.373 4.738,1.394 3.302,0.029 5.449,-2.449 7.526,-2.513 4.787,-0.134 9.483,4.421 14.502,3.908 2.267,-0.233 3.612,-1.838 5.294,-1.676 2.69,0.253 4.978,3.358 6.97,4.463 -0.845,4.696 0.077,10.891 4.463,11.151 3.013,0.177 7.533,-5.153 8.082,0 0.239,2.239 -2.379,4.218 -4.181,4.182 -1.606,-0.035 -3.711,-3.175 -5.02,-0.563 0.007,2.556 2.872,1.88 4.463,2.513 1.183,0.472 2.021,1.761 3.344,2.232 C -11.771,-1.014 -2.577,-5.632 0,0 m 27.041,-344.298 c 1.105,2.048 -1.761,3.38 -2.232,5.576 -0.549,2.576 0.627,5.59 -1.676,6.97 l -0.83,0 c -2.021,-4.57 0.837,-12.11 4.738,-12.546 m 17.001,28.716 c 0.943,1.936 3.154,3.97 2.788,6.407 -0.803,5.371 -10.849,2.724 -11.982,-1.113 -0.767,-2.584 0.458,-4.632 -0.563,-7.252 1.098,-2.062 3.851,-2.47 7.251,-2.224 1.88,0.831 1.647,2.408 2.506,4.182 m 3.907,-58.27 c 1.289,2.049 2.908,7.808 0,9.201 l -0.556,0 c -1.246,-2.316 -2.569,-7.906 0.556,-9.201 m 0.275,246.167 c 0.155,2.993 -1.141,5.246 -1.394,9.477 -5.146,3.104 -8.99,-2.88 -14.214,-2.225 -3.21,0.401 -5.512,4.14 -8.92,3.619 -1.879,-0.282 -2.808,-2.711 -4.744,-3.063 -3.985,-0.732 -5.802,3.189 -10.033,1.669 -5.969,4.547 -8.638,11.954 -10.039,20.352 -3.252,4.266 -8.215,0.795 -10.595,-1.95 -1.464,0.014 -3.294,0.809 -3.618,-0.838 -1.099,-5.153 7.286,-5.702 7.244,-9.201 -0.028,-2.274 -3.274,-2.063 -4.738,-3.618 -1.556,-1.655 -0.521,-3.126 -2.506,-4.183 -5.499,-0.661 -7.322,2.345 -7.251,7.245 -2.373,3.604 -5.372,6.23 -7.526,9.201 -0.796,1.098 -1.986,2.809 -2.232,4.464 -0.197,1.302 0.619,2.956 0.281,4.456 -0.605,2.661 -5.561,4.667 -8.645,6.132 -3.294,1.569 -7.419,3.055 -9.757,5.019 -1.654,1.394 -2.436,3.816 -3.9,4.738 -1.246,0.782 -2.795,0.62 -3.907,1.394 -1.528,1.07 -1.274,2.851 -3.344,3.351 -1.049,0.387 -2.668,-1.042 -3.344,-1.957 -1.359,-6.083 3.59,-6.498 5.85,-9.194 1.556,-1.852 2.33,-4.64 3.907,-5.858 1.683,-1.302 3.971,-1.063 6.132,-1.949 1.492,-0.613 2.464,-2.472 3.9,-3.345 2.661,-1.619 6.935,-1.901 7.252,-5.019 -1.655,-1.127 -5.407,1.64 -6.688,-1.119 -0.332,-1.81 1.436,-2.739 1.393,-4.457 -0.07,-2.746 -3.119,-5.751 -5.857,-5.301 -0.275,1.633 1.457,2.971 1.394,4.745 -0.12,3.548 -7.251,8.962 -10.87,10.588 -1.697,0.767 -3.759,0.81 -5.301,1.676 -2.738,1.542 -7.533,5.329 -9.201,7.525 -1.993,2.641 -3.696,7.526 -8.082,7.251 -1.788,-0.112 -3.267,-1.753 -4.738,-2.513 -1.338,-0.682 -2.816,-1.316 -4.182,-2.224 -1.626,-1.078 -2.95,-2.169 -4.463,-2.232 -3.499,-0.148 -6.47,2.598 -9.476,1.95 -1.014,-0.218 -1.859,-1.126 -3.07,-2.232 -0.042,-1.626 0.486,-2.668 0.282,-4.456 -0.908,-1.57 -3.604,-1.471 -5.576,-2.513 -2.886,-1.521 -5.456,-4.647 -7.807,-6.97 -1.513,-1.492 -2.879,-2.724 -3.07,-3.9 -0.147,-0.922 0.782,-2.668 0.564,-3.907 -0.247,-1.345 -2.774,-4.132 -4.463,-5.294 -0.986,-0.676 -2.295,-0.768 -3.345,-1.394 -2.196,-1.302 -3.182,-2.999 -5.019,-3.344 -4.872,-0.909 -13.728,0.978 -13.657,-4.182 0.042,-3.45 4.695,-3.463 7.525,-3.344 3.942,0.155 7.293,-0.838 9.476,-0.281 1.506,0.379 3.154,2.069 4.738,2.787 0.999,0.451 2.035,0.458 2.788,0.838 1.668,0.838 2.612,2.197 3.907,2.788 2.548,1.162 7.294,2.07 10.032,2.232 3.759,0.218 7.687,-0.388 12.545,0 1.732,0.133 3.443,1.246 5.302,1.394 3.034,0.239 7.025,-1.197 9.475,-1.12 1.697,0.057 3.59,1.704 5.576,1.676 2.245,-0.035 4.611,-1.634 5.019,-3.07 0.233,-0.817 -0.471,-2.119 -0.281,-3.344 0.324,-2.027 2.063,-2.865 1.957,-4.181 -0.148,-1.747 -4.499,-4.077 -3.907,-6.132 0.387,-1.324 3.506,-2.704 5.019,-3.626 1.584,-0.965 4.259,-2.302 6.132,-2.506 1.577,-0.176 2.971,0.436 4.463,0.274 2.401,-0.26 6.287,-1.718 7.808,-2.787 2.618,-1.845 2.253,-4.802 5.294,-5.851 1.295,-0.45 3.633,-0.197 5.294,-0.563 4.062,-0.88 7.075,-4.245 10.039,-3.9 4.668,0.542 2.541,4.942 3.07,8.082 1.189,7.117 15.093,6.794 17.839,1.957 2.034,-0.542 3.815,-0.085 6.132,-0.838 1.337,-0.436 2.337,-1.901 3.625,-2.232 0.972,-0.246 2.387,0.142 3.626,0 5.343,-0.605 10.187,-4.583 14.777,-3.899 2.914,0.429 5.026,3.167 7.8,3.343 5.336,0.331 8.751,-3.97 14.502,-1.95 4.232,1.486 3.288,5.872 4.739,10.314 1.006,3.09 2.949,5.195 3.062,7.525 m 17.846,32.898 c 7.554,1.366 4.104,7.751 0.275,10.033 -2.901,1.732 -6.371,3.238 -9.758,5.301 -1.964,1.197 -9.426,3.456 -9.476,5.85 -0.056,2.619 5.555,3.478 3.345,8.089 -3.816,0.929 -12.891,-0.535 -12.264,-4.738 0.359,-2.429 3.238,-1.084 3.9,-3.625 -2.732,-0.972 -6.054,-3.52 -8.92,-3.07 -3.414,0.535 -4.294,4.731 -6.131,7.251 -2.655,-0.084 -4.4,2.57 -7.526,2.232 -3.281,-0.359 -5.02,-5.119 -6.695,-7.533 -0.887,-1.267 -2.302,-1.922 -2.788,-3.063 -0.289,-0.69 0.028,-1.788 -0.275,-2.787 -0.957,-3.098 -3.639,-4.231 -3.351,-6.97 0.261,-2.414 2.886,-3.499 3.07,-5.576 -0.184,-2.14 -3.619,-1.027 -3.344,-3.625 4.991,-4.119 5.265,1.943 7.807,2.788 2.041,0.683 6.047,-0.563 8.638,0 2.091,0.458 3.738,2.45 6.132,3.344 1.464,0.549 3.273,1.034 5.301,1.119 8.87,0.366 14.594,-5.407 22.303,-5.576 2.548,-0.056 7.11,0.078 9.757,0.556 m 65.514,-20.07 c 1.395,9.666 -6.146,10.391 -7.525,17.283 0.64,-0.085 0.31,0.803 0.831,0.838 1.837,0.88 4.604,-1.409 5.575,0.83 0.021,3.302 -4.168,5.766 -8.363,4.182 -1.211,0.83 -1.38,2.71 -1.669,4.463 -3.161,1.88 -10.982,5.991 -10.877,9.758 0.092,3.097 4.084,4.836 8.646,4.738 1.922,1.457 0.682,5.934 -1.113,6.969 -7.209,1.577 -11.053,0.514 -15.614,-2.787 -2.19,-1.584 -4.633,-2.676 -5.858,-3.626 -1.126,-0.873 -2.633,-3.26 -2.506,-4.457 0.176,-1.724 2.647,-2.738 3.625,-5.019 0.5,-1.176 0.395,-2.647 0.838,-3.626 1.218,-2.689 4.337,-4.428 6.688,-6.688 1.662,-1.598 6.315,-5.062 6.414,-6.969 0.077,-1.591 -1.429,-1.943 -1.95,-3.626 -0.521,-1.647 -1.127,-5.54 -0.838,-6.969 0.619,-3.063 3.787,-3.168 6.688,-4.464 2.879,-1.281 5.653,-3.548 8.645,-3.619 3.189,-0.084 6.582,0.937 8.363,2.789 m 20.628,35.96 c 4.519,0.873 0.056,8.096 -3.344,7.251 -4.443,-1.112 0.267,-7.842 3.344,-7.251 m 5.857,108.726 c 6.547,-1.528 9.631,5.871 5.294,10.039 -1.014,0.971 -4.435,1.351 -5.85,3.618 -1.704,2.724 -1.465,6.365 -5.576,5.576 -0.049,-0.324 0.042,-0.789 -0.282,-0.831 -0.387,-6.096 8.491,-7.631 8.364,-12.545 -0.063,-2.577 -2.788,-2.852 -1.95,-5.857 m 59.101,-97.293 c -1.049,2.105 -4.062,-0.619 -2.788,-2.514 1.887,-0.119 2.562,0.972 2.788,2.514 m 58.544,131.585 c -3.069,0 -4.224,-1.211 -6.131,-2.232 -1.049,-0.556 -3.183,-0.866 -2.514,-2.507 2.682,0.325 8.005,1.535 8.645,4.739 m 73.04,-96.737 c 1.099,3.548 -0.612,7.131 -2.787,9.476 -3.217,-0.556 -0.895,-3.901 -1.113,-5.858 -0.316,-2.766 -3.252,-4.688 -3.069,-7.525 -1.07,-1.253 -2.901,-1.747 -3.063,-3.9 1.767,-1.225 2.549,0.964 3.901,2.231 2.133,2 5.392,3.182 6.131,5.576 M 593.81,32.06 c 8.419,-0.056 18.332,-3.562 17.557,-11.433 -9.862,-2.161 -18.106,6.787 -28.434,4.182 -1.648,-0.415 -3.478,-2.225 -3.344,-3.9 0.388,-4.858 12.623,-4.45 13.657,-9.201 -2.006,-1.5 -4.202,-0.085 -5.85,-0.282 -2.513,-0.296 -6.751,-2.95 -8.363,-4.456 -1.887,-1.767 -3.542,-6.294 -5.576,-6.695 -2.492,-0.486 -6.294,2.456 -10.039,1.675 -1.373,-0.288 -2.689,-1.999 -3.9,-2.231 -3.077,-0.585 -6.991,1.675 -8.919,-1.95 1.02,-2.549 0.401,-6.097 2.505,-7.526 1.367,-0.93 3.07,-0.212 4.739,-0.838 1.957,-0.732 3.048,-3.119 4.737,-4.464 1.387,-1.09 2.858,-1.119 3.626,-2.505 0.176,-2.056 -0.81,-2.282 -0.557,-3.626 0.437,-2.337 4.084,-2.866 4.182,-4.456 0.127,-2.014 -2.309,-1.584 -2.787,-3.626 -0.169,-1.295 1.506,-1.641 1.675,-3.344 0.106,-1.141 -0.922,-2.33 -0.837,-3.626 0.119,-1.859 1.584,-3.097 1.393,-4.737 -0.162,-1.409 -1.393,-2.507 -2.513,-3.07 -5.336,3.428 -10.145,8.152 -15.889,12.545 -5.886,4.506 -15.199,10.039 -16.171,19.515 -0.028,1.45 3.083,2.591 3.625,4.738 0.226,0.88 -0.351,2.133 -0.274,3.344 0.19,3.274 2.893,6.42 2.788,8.364 -0.127,2.132 -4.112,6.096 -6.139,6.694 -1.619,-0.851 -0.014,-2.541 -0.274,-3.907 -0.324,-1.682 -2.366,-3.738 -4.182,-3.9 -5.273,-0.457 -5.865,6.794 -14.222,4.738 -2.168,-0.535 -5.209,-3.794 -4.456,-7.807 0.226,-1.218 3.583,-2.527 3.344,-4.182 -0.232,-1.605 -7.596,-2.077 -9.201,-1.95 -4.505,0.359 -6.821,3.724 -10.869,3.626 -1.992,-0.05 -3.738,-1.669 -5.302,-1.951 -8.785,-1.605 -21.81,4.323 -24.809,-3.344 -0.422,-1.084 -0.183,-2.499 -0.556,-3.625 -0.542,-1.612 -1.83,-2.88 -2.232,-3.908 -0.344,-0.858 -0.281,-2.555 -0.838,-3.899 -0.506,-1.219 -5.779,-5.978 -1.112,-7.252 1.106,-0.295 1.627,0.479 3.063,0.282 2.4,-0.324 6.385,-4.168 9.201,-4.182 1.682,-0.007 4.013,1.894 5.294,1.95 2.584,0.127 4.449,-1.542 6.414,-2.506 1.872,-0.922 4.737,-2.858 6.132,-2.788 2.632,0.134 1.38,1.957 3.907,2.788 4.822,-1.429 7.082,-6.54 11.707,-10.595 1.676,-1.465 4.154,-2.725 6.414,-4.738 1.26,-1.126 5.132,-4.147 5.294,-5.576 0.154,-1.33 -1.077,-1.901 -1.395,-3.07 -0.457,-1.696 0.606,-2.942 -0.555,-4.181 -4.456,1.647 -5.449,6.033 -8.646,9.757 -1.182,1.387 -2.379,3.034 -4.181,5.02 -0.81,0.894 -3.767,4.034 -5.576,3.344 -3.505,-1.331 1.922,-6.646 2.788,-7.808 1.851,-2.456 4.301,-5.765 4.463,-8.363 0.106,-1.662 -1.084,-4.682 -1.112,-7.526 -0.021,-1.922 0.485,-3.668 0.274,-5.294 -0.204,-1.633 -1.366,-3.499 -1.95,-5.301 -0.661,-2.042 -0.809,-4.484 -1.393,-5.85 -1.077,-2.513 -4.724,-5.47 -7.251,-5.576 -2.317,-0.098 -3.31,1.781 -5.576,1.669 -3.429,-0.163 -4.063,-3.323 -6.132,-5.85 0.182,-2.746 1.042,-3.689 0.556,-5.576 -0.754,-2.957 -4.865,-3.471 -4.738,-6.414 0.119,-2.724 3.767,-3.252 5.575,-4.463 2.486,-1.654 6.844,-5.337 9.202,-8.364 1.556,-1.985 3.788,-5.695 3.625,-7.8 -0.21,-2.759 -8.152,-6.596 -11.432,-5.576 -3.119,0.965 -2.049,3.943 -2.788,6.688 -0.564,2.112 -2.218,3.021 -3.063,4.738 -0.443,0.901 -0.232,2.33 -0.838,3.344 -1.682,2.838 -4.625,1.289 -8.088,3.069 -2.274,1.169 -1.613,3.626 -2.506,5.858 -1.204,2.999 -6.252,4.414 -10.314,3.619 -2.978,-0.578 -3.907,-3.084 -6.695,-3.619 -4.083,2.422 0.838,8.399 -4.182,8.92 -3.844,0.401 -6.386,-5.52 -8.638,-7.252 -1.521,-1.161 -4.288,-1.401 -4.463,-3.062 -0.325,-3.076 3.252,-2.45 6.131,-3.626 2.612,-1.069 2.915,-4.026 5.301,-4.181 1.992,-0.134 3.317,2.055 5.294,2.231 3.422,0.303 6.203,-1.239 8.364,-2.513 -1.401,-3.379 -8.898,-5.857 -8.919,-10.313 -0.014,-2.584 2.985,-3.028 5.293,-4.738 1.951,-1.444 4.513,-5.52 7.251,-8.364 1.183,-1.225 3.091,-2.035 3.626,-2.788 1.295,-1.844 1.091,-4.09 2.506,-5.301 0.233,-1.528 -0.696,-1.901 -0.555,-3.344 0.682,-2.007 3.766,-1.626 4.463,-3.626 -0.578,-4.808 1.429,-9.335 -2.513,-11.151 -1.81,-8.624 -3.859,-15.368 -9.758,-20.071 -5.294,-4.217 -12.299,-5.463 -18.677,-7.526 -1.654,-0.535 -2.978,-2.28 -4.464,-2.787 -3.703,-1.261 -10.306,-0.493 -10.587,-5.02 -0.148,-2.232 2.83,-3.576 3.062,-5.85 0.358,-3.492 -2.767,-7.005 -5.02,-7.251 -1.619,-0.177 -5.104,0.95 -5.293,3.907 -0.219,3.323 4.125,4.681 4.462,6.688 0.585,3.548 -3.069,7.005 -7.251,6.688 -3.674,-0.275 -12.052,-7.667 -12.263,-11.708 -0.162,-3.02 5.991,-9.307 8.082,-11.151 7.828,-6.899 16.142,-11.039 14.776,-27.878 -1.957,-4.26 -6.955,-5.175 -10.876,-7.526 -2.978,-1.789 -4.457,-7.336 -9.476,-7.807 -2.013,0.689 -0.838,3.836 -1.394,5.293 -0.761,1.999 -4.759,2.978 -7.251,5.02 -2.035,1.676 -2.893,4.315 -4.457,5.857 -1.95,1.922 -4.864,2.324 -7.251,3.625 -1.499,0.818 -2.675,3.69 -4.182,3.62 -2.457,-0.099 -1.605,-2.464 -2.231,-6.407 -0.613,-3.879 -3.443,-6.857 -2.506,-11.433 0.387,-1.872 2.731,-3.386 3.9,-5.294 1.936,-3.161 2.203,-6.843 4.182,-8.645 1.309,-1.19 3.534,-1.45 5.019,-2.507 2.95,-2.112 8.16,-6.687 9.201,-9.201 1.211,-2.935 0.043,-6.392 0.838,-9.482 0.923,-3.57 5.596,-6.125 2.788,-9.758 -2.661,0.493 -4.998,2.238 -7.251,3.626 -3.83,2.372 -5.59,4.414 -8.082,8.363 -0.733,1.155 -1.817,2.281 -2.232,3.344 -0.971,2.499 -0.767,5.329 -1.675,8.363 -0.775,2.613 -3.802,6.738 -6.132,8.927 -1.957,1.845 -5.428,2.922 -5.576,5.576 -0.204,3.738 1.26,8.138 1.119,12.545 -0.035,0.95 -0.682,1.908 -0.837,3.063 -0.289,2.14 0.218,4.758 -0.282,6.695 -0.457,1.781 -1.753,3.393 -2.506,5.013 -0.746,1.604 -1.507,3.216 -2.232,5.3 -1.126,3.225 -2.393,9.441 -5.019,9.758 -2.795,0.338 -5.555,-5.238 -9.201,-5.302 -1.873,-0.027 -4.358,1.472 -4.739,3.352 -0.344,1.71 0.888,3.435 0.838,5.294 -0.105,3.738 -2.752,5.181 -4.738,7.807 -0.802,1.063 -1.013,2.556 -1.675,3.344 -1.267,1.514 -3.689,2.359 -5.294,3.9 -1.535,1.479 -3.203,3.605 -3.908,5.02 -1.077,2.182 -1.421,5.012 -3.062,5.301 -1.577,0.274 -3.393,-1.978 -5.02,-2.513 -1.696,-0.556 -5.871,-1.275 -7.525,-1.394 -5.597,-0.387 -10.145,1.105 -9.483,-5.576 -0.866,-2.999 -4.034,-3.034 -6.132,-4.456 -2.668,-1.817 -4.611,-5.456 -7.526,-8.364 -1.415,-1.422 -3.463,-2.309 -4.737,-3.625 -1.064,-1.099 -1.402,-2.859 -2.514,-3.907 -2.978,-2.809 -7.434,-3.049 -9.476,-6.971 -0.112,-4.631 2.197,-8.137 1.676,-12.538 -0.24,-2.006 -1.739,-3.787 -1.957,-5.857 -0.183,-1.774 0.732,-3.682 0.281,-5.575 -0.239,-1.014 -1.365,-1.549 -2.232,-2.788 -0.774,-1.113 -1.084,-2.591 -1.668,-3.344 -0.936,-1.204 -2.478,-2.042 -3.351,-3.069 -1.415,-1.676 -1.711,-2.873 -3.062,-3.07 -6.111,-0.88 -7.618,10.743 -10.314,15.614 -1.246,2.24 -3.78,4.26 -5.02,6.97 -1.428,3.126 -1.865,7.047 -3.907,10.596 -1.739,3.026 -4.125,6.061 -5.294,9.201 -0.992,2.654 -1.851,5.977 -2.787,8.919 -0.993,3.112 -2.07,7.026 -2.232,9.476 -0.233,3.619 0.69,5.851 -2.232,7.252 -2.689,-0.634 -3.886,-3.345 -6.969,-3.345 -2.978,0 -10.969,5.154 -8.639,9.758 -1.943,2.759 -6.85,4.273 -10.595,7.525 -2.147,1.866 -4.076,6.309 -7.807,6.688 -1.021,0.106 -2.358,-0.471 -3.344,-0.556 -2.359,-0.204 -6.54,0.212 -9.201,0 -3.345,-0.267 -7.477,-1.02 -11.708,-0.556 -2.731,0.296 -6.111,0.824 -8.92,1.112 -3.569,0.367 -8.314,1.211 -10.313,3.07 -1.232,1.14 -1.732,4.794 -3.908,5.294 -2.583,0.598 -4.005,-1.401 -6.413,-1.95 -5.104,-1.168 -9.37,1.049 -12.82,3.344 -2.45,1.626 -4.681,2.471 -6.413,3.626 -4.238,2.837 -4.999,11.369 -11.433,11.432 -2.246,0.022 -5.801,-1.379 -6.132,-3.907 -0.225,-1.774 2.119,-5.068 3.069,-6.413 3.126,-4.407 8.871,-6.061 10.596,-11.982 1.154,-0.451 3.505,1.014 4.737,-0.282 1.078,-2.541 -0.013,-7.258 2.507,-8.363 11.581,-1.915 14.897,4.435 20.071,8.92 3.006,-1.965 2.021,-3.683 3.069,-5.851 1.071,-2.225 2.746,-3.97 4.738,-4.745 1.401,-0.535 3.196,-0.035 5.301,-0.831 1.31,-0.499 6.808,-5.702 6.97,-7.532 0.141,-1.641 -3.604,-7.224 -4.745,-8.639 -1.105,-1.379 -2.816,-2.097 -3.344,-3.343 -0.401,-0.965 -0.267,-3.014 -0.556,-3.626 -0.514,-1.112 -3.02,-2.562 -4.463,-3.9 -1.521,-1.422 -3.302,-2.528 -4.739,-3.626 -1.759,-1.351 -2.851,-3.21 -4.737,-3.907 -3.71,-1.366 -7.238,-0.781 -10.314,-2.788 -2.013,-1.309 -2.02,-4.266 -4.463,-5.85 -2.542,-1.654 -6.9,-1.668 -10.595,-3.351 -2.373,-1.077 -3.795,-3.168 -5.85,-3.9 -0.832,-0.296 -1.88,-0.042 -2.789,-0.281 -1.858,-0.472 -3.562,-1.789 -5.301,-2.225 -1.372,-0.353 -2.83,-0.17 -4.181,-0.563 -4.295,-1.24 -8.23,-5.605 -12.546,-3.063 -2.034,4.695 -2.365,10.609 -4.738,14.777 -1.211,2.126 -3.59,2.781 -4.456,5.013 -0.12,1.795 2.042,1.302 2.225,2.787 -0.712,3.013 -3.555,4.422 -5.295,6.977 -0.851,1.246 -1.246,3.02 -2.231,4.456 -3.323,4.837 -9.877,7.35 -11.151,13.383 -0.346,1.641 0.056,2.929 -0.275,4.182 -0.549,2.063 -1.943,4.231 -3.351,5.85 -1.063,1.239 -3.239,2.084 -4.456,3.908 -0.81,1.203 -0.986,2.9 -1.676,4.181 -2.774,5.175 -6.786,9.743 -11.151,13.383 -2.274,-0.331 -4.717,-0.485 -5.851,-1.957 1.134,-3.646 2.873,-6.702 4.739,-9.757 1.703,-2.781 4.125,-5.78 5.294,-8.92 0.436,-1.161 0.358,-2.682 0.837,-3.9 1.753,-4.421 7.266,-5.78 8.364,-10.877 0.739,-3.414 -0.162,-5.78 0.838,-9.194 0.957,-3.281 5.8,-5.217 7.807,-8.364 1.633,-2.57 1.647,-6.202 2.788,-8.645 1.668,-3.576 6.336,-5.125 9.757,-7.525 3.07,-2.162 5.266,-5.491 7.8,-7.808 1.493,-1.351 3.541,-1.598 3.908,-3.069 0.471,-1.887 -0.796,-2.521 -1.119,-4.175 2.14,-2.231 4.223,-6.35 7.807,-6.695 1.471,-0.141 3.33,1.345 5.575,1.676 1.134,0.162 2.394,-0.176 3.345,0 1.485,0.267 2.78,1.59 4.463,1.95 2.851,0.612 6.153,0.366 9.757,0.838 3.408,0.443 5.745,3.322 8.364,2.506 2.865,-3.147 0.809,-6.716 0,-9.758 -0.282,-1.07 -0.289,-2.175 -0.557,-3.07 -1.499,-4.963 -5.441,-8.637 -7.251,-13.101 -0.556,-1.365 -0.457,-3.041 -1.112,-4.456 -2.07,-4.471 -6.399,-8.877 -9.757,-12.545 -1.894,-2.064 -3.563,-3.929 -5.576,-5.576 -1.999,-1.641 -4.442,-2.541 -6.695,-4.182 -4.464,-3.267 -9.11,-7.941 -12.264,-12.27 -1.218,-1.676 -1.802,-3.605 -3.069,-5.013 -1.817,-2.034 -4.626,-3.034 -6.132,-5.02 -1.19,-1.577 -1.979,-4.414 -3.344,-7.251 -1.535,-3.189 -4.738,-5.343 -4.182,-9.758 0.212,-1.689 1.725,-2.731 2.232,-4.462 0.866,-2.971 0.204,-5.471 -0.282,-8.639 1.577,-3.815 2.711,-8.074 5.576,-10.595 0.345,-5.639 -0.465,-11.109 0,-15.889 0.295,-3.035 1.479,-5.28 0.282,-8.082 -1.056,-2.471 -5.104,-6.808 -7.526,-8.364 -2.633,-1.696 -6.66,-2.139 -9.483,-4.188 -1.964,-1.422 -3.59,-3.914 -5.576,-5.576 -3.287,-2.746 -7.793,-5.308 -8.082,-8.082 -0.169,-1.605 1.26,-4.02 1.669,-5.576 1.091,-4.118 2.147,-10.032 0.281,-14.495 -2.02,-4.822 -12.242,-3.816 -13.383,-8.92 -0.345,-1.548 0.683,-2.781 0.556,-4.464 -0.098,-1.415 -1.964,-6.546 -2.787,-8.081 -1.232,-2.309 -4.035,-3.337 -5.85,-5.301 -2.282,-2.464 -3.436,-6.047 -5.858,-8.638 -3.287,-3.527 -7.73,-7.259 -11.989,-10.314 -3.703,-2.668 -10.349,-5.442 -16.164,-5.857 -3.386,-0.239 -7.019,0.795 -10.595,0.274 -1.309,-0.182 -2.731,-1.386 -4.463,-1.668 -1.007,-0.162 -2.035,0.176 -3.063,0 -1.753,-0.295 -3.393,-1.69 -5.019,-1.675 -3.612,0.042 -8.251,4.357 -8.364,8.644 -0.042,1.648 1.415,3.218 1.394,4.739 -0.028,1.781 -2.21,4.012 -3.907,7.251 -1.626,3.112 -2.267,6.645 -3.9,9.194 -1.732,2.711 -4.02,3.999 -5.295,6.139 -2.569,4.28 -2.759,9.363 -3.625,14.496 -0.282,1.674 -1.429,3.491 -1.675,5.575 -0.303,2.569 0.309,5.406 -0.275,7.525 -0.45,1.634 -2.26,3.302 -3.351,5.302 -1.964,3.611 -3.344,8.342 -5.013,11.144 -1.569,2.633 -4.737,5.378 -5.019,8.364 -0.19,2.027 0.253,5.807 0.556,7.807 0.303,1.957 1.753,3.506 2.232,5.576 0.316,1.366 -0.063,2.942 0.274,4.462 1.422,6.373 8.448,8.696 7.533,16.447 -0.394,3.287 -2.717,4.906 -3.069,8.644 -0.162,1.753 0.873,3.282 0.837,5.02 -0.049,2.351 -2.041,5.85 -3.069,8.082 -2.823,6.153 -4.555,11.778 -8.638,16.445 -2.225,2.549 -5.139,4.344 -6.97,6.695 -1.499,1.916 -3.323,5.505 -3.351,6.97 -0.028,1.598 1.225,2.584 1.676,4.182 0.584,2.062 0.626,5.949 1.394,9.201 0.352,1.492 1.964,5.105 1.675,7.525 -0.281,2.331 -3.752,6.801 -6.695,7.527 -3.893,0.964 -7.899,-1.246 -12.82,-0.838 -4.238,2.683 -3.921,9.701 -10.039,10.595 -8.032,1.175 -16.248,-2.063 -21.746,-4.456 -3.175,-1.387 -6.407,-3.499 -9.201,-3.625 -2.647,-0.127 -5.252,1.407 -7.801,1.668 -3.323,0.344 -7.582,0.028 -10.877,-0.556 -3.203,-0.57 -6.096,-2.859 -8.919,-3.063 -5.407,-0.408 -10.546,4.871 -13.94,7.526 -2.076,1.619 -4.189,2.942 -6.131,4.456 -2.084,1.634 -4.788,2.619 -6.414,4.181 -2.196,2.127 -2.196,5.823 -3.344,8.646 -1.359,3.323 -5.491,5.766 -8.645,8.92 -2.358,2.358 -7.772,5.885 -8.364,8.92 -0.295,1.549 0.662,3.337 0.557,5.019 -0.148,2.443 -1.986,3.829 -1.951,5.576 0.057,2.45 2.943,4.343 3.626,6.413 0.352,1.056 0.183,2.548 0.557,3.9 0.781,2.83 2.653,4.506 2.231,8.646 -0.169,1.646 -1.584,3.153 -1.675,5.293 -0.057,1.465 0.964,2.281 0.837,3.626 -0.211,2.379 -3.302,2.844 -3.625,5.576 -0.324,2.823 2.696,5.153 4.463,8.363 0.795,1.436 1.232,3.64 1.95,4.738 1.563,2.373 4.111,3.52 5.301,5.857 0.873,1.725 1.155,4.281 1.95,5.576 1.028,1.661 3.07,2.555 5.02,4.738 1.584,1.781 2.232,3.935 3.344,4.738 1.401,1.014 3.492,1.26 5.019,1.95 5.161,2.351 8.934,5.378 11.426,10.32 -0.76,4.485 0.387,6.379 2.232,9.476 1.704,2.866 2.95,5.604 5.857,7.251 3.485,1.972 6.759,2.155 9.194,5.851 1.218,1.852 3.049,5.047 3.07,6.969 0.028,2.76 -2.83,6.294 -5.294,6.696 -2.521,0.401 -6.392,-1.915 -7.807,0.83 -0.451,0.88 0.169,2.936 0,3.907 -0.325,1.824 -1.887,3.112 -1.951,4.457 -0.133,2.619 2.577,5.343 3.344,8.363 1.042,4.112 0.035,7.258 -0.281,11.989 3.9,6.146 12.559,3.098 21.19,2.514 1.295,-0.092 2.781,0.309 4.182,0.274 5.118,-0.12 9.145,-1.661 10.87,2.788 0.648,1.675 1.225,7.906 0.838,9.483 -0.458,1.866 -4.119,6.702 -5.858,7.8 -2.766,1.76 -6.779,0.993 -8.363,4.182 1.288,5.505 7.455,0.922 11.151,2.232 1.887,0.668 1.676,3.935 3.351,4.463 1.14,0.359 2.598,-1.148 4.182,-1.119 1.352,0.028 6.244,2.485 7.526,3.351 1.781,1.204 2.33,3.703 3.9,4.738 1.063,0.697 2.464,0.612 3.625,1.112 2.373,1.021 5.372,3.097 6.97,5.019 2.302,2.76 3.337,6.182 6.132,6.688 3.738,0.683 12.193,-0.739 12.827,3.351 0.598,3.893 -3.429,6.956 -1.95,11.152 1.168,3.316 4.146,2.731 8.363,4.738 2.035,-1.443 1.443,-5.569 1.668,-8.089 2.591,-0.021 7.864,0.767 8.364,3.07 0.627,2.872 -3.773,5.793 -4.738,7.525 -1.042,1.88 -1.267,5.182 -3.344,5.576 -4.245,0.817 -8.37,-5.85 -13.664,-5.85 -3.478,0 -7.167,2.682 -8.082,5.293 -0.521,1.493 -0.05,2.901 -0.282,4.464 -0.338,2.281 -1.704,4.646 -1.112,7.8 2.133,3.661 7.054,4.253 10.595,6.139 1.338,0.711 2.415,2.232 3.9,2.788 2.499,0.922 6.196,-0.007 8.645,1.394 1.549,0.88 1.113,2.4 2.232,4.182 0.697,1.119 2.401,1.774 3.344,3.062 0.655,0.894 0.732,2.246 1.394,3.069 2.421,3.014 6.843,4.126 8.638,7.245 0.796,1.379 -1.373,1.894 -0.831,3.907 0.901,1.943 4.379,0.514 6.407,0.838 2.773,0.429 5.336,3.801 8.363,4.456 3.161,0.683 6.547,0.267 9.483,1.394 1.753,0.676 3.365,2.267 5.02,2.513 0.584,0.084 2.231,-0.316 3.062,-0.281 1.063,0.042 2.21,0.696 3.626,0.837 2.048,0.205 4.589,-0.499 7.251,-0.556 4.407,-0.098 8.596,1.324 12.263,-0.281 1.923,-0.838 1.704,-3.013 4.182,-3.901 1.246,-0.45 2.893,0.177 4.738,0 2.732,-0.26 5.583,-2.147 9.201,-2.513 1.289,-0.127 2.619,0.162 3.901,0 3.984,-0.486 8.363,-2.583 12.27,-3.9 3.267,-1.105 10.187,-2.478 10.314,-5.576 0.155,-3.667 -6.019,-4.738 -8.645,-4.738 -4.386,0 -10.194,2.563 -14.77,1.113 0.07,-6.308 6.878,-11.081 13.101,-10.314 0.549,2.964 -3.52,1.317 -3.069,4.182 2.781,2.098 6.111,-1.408 10.039,-0.838 1.535,0.415 1.274,2.633 1.668,4.182 3.316,2.013 7.47,4.97 12.546,2.788 0.253,0.492 0.626,0.866 1.119,1.112 0.331,3.062 -3.344,4.661 -1.394,7.533 0.972,1.978 6.167,1.295 6.97,-0.282 0.401,-1.886 -1.288,-1.682 -1.12,-3.344 0.986,-2.225 3.26,-2.577 4.464,-2.513 2.738,0.148 3.28,2.598 5.857,3.907 1.042,0.528 2.57,0.585 3.9,1.112 1.577,0.627 2.915,1.894 4.182,2.232 0.929,0.246 2.33,0 3.625,0.282 1.648,0.352 3.387,1.675 4.739,1.668 1.682,0 2.886,-1.943 5.019,-2.231 1.162,-0.155 2.485,0.661 4.182,0.837 1.365,0.148 2.78,-0.162 3.9,0 2.661,0.387 4.491,1.789 6.695,1.676 1.556,-0.085 4.224,-2.183 5.294,-1.119 1.802,1.788 -2.408,3.118 -1.112,4.744 4.28,-0.323 8.821,-0.225 13.101,-0.838 6.371,-0.907 12.376,-4.062 18.121,-4.181 -0.542,3.872 -4.984,2.76 -6.969,4.456 -0.606,0.521 -3.098,4.604 -3.07,5.857 0.021,0.627 3.161,5.991 3.907,6.688 2.457,2.31 10.518,2.296 12.82,-0.83 1.577,-2.14 1.056,-5.365 3.344,-5.302 1.964,0.057 3.013,4.9 5.301,5.02 1.887,0.099 2.837,-3.105 4.738,-3.069 2.302,0.049 3.914,4.351 6.97,4.463 1.647,0.063 2.196,-0.845 4.738,-1.112 1.746,1.119 -0.585,2.597 0.281,4.181 3.119,2.267 10.229,0.543 14.214,1.951 1.105,1.323 -1.415,2.259 -0.275,3.625 3.429,2.401 9.209,2.619 15.052,3.619 3.576,0.612 6.956,3.097 9.757,3.351 2.929,0.26 5.724,-1.718 8.364,-1.676 1.598,0.028 3.47,0.514 5.019,1.113 1.57,0.612 2.64,2.133 4.182,2.513 2.45,0.598 5.541,-0.289 8.364,0 2.992,0.303 5.639,1.464 7.807,1.112 2.028,-0.323 3.654,-2.485 5.576,-2.788 5.871,-0.915 11.932,0.881 17.283,-0.556 0.957,-0.26 1.922,-1.253 3.069,-1.675 3.584,-1.31 6.027,-0.902 6.688,-5.294 2.823,-1 4.478,-3.584 7.808,-4.464 2.224,-0.584 4.456,0.282 6.969,0.282 3.295,0 7.512,-0.127 10.314,-0.557 1.598,-0.246 2.907,-1.421 4.463,-1.675 1.127,-0.183 2.619,0.12 3.901,0 1.745,-0.162 3.315,-0.88 4.737,-0.838 2.922,0.092 5.133,2.697 7.526,3.07 1.281,0.197 2.985,-0.458 4.182,-0.557 4.688,-0.394 10.102,0.613 13.939,-0.281 2.049,-0.479 5.548,-2.731 7.807,-4.456 1.641,-1.253 2.633,-3.245 4.182,-4.182 1.464,-0.887 5.174,-2.478 6.695,-2.232 1.774,0.282 1.859,2.267 3.619,3.063 5.526,1.232 15.347,-1.76 19.796,0.281 1.725,0.796 1.387,2.619 2.788,3.626 8.363,0.408 16.692,-0.345 24.534,-0.556 2.753,-0.077 5.597,0.704 8.082,0.274 2.767,-0.478 4.78,-3.245 7.527,-4.182 1.83,-0.619 5.054,-0.295 7.806,-0.837 1.845,-0.359 3.359,-1.472 4.738,-1.669 2.978,-0.422 5.823,0.331 8.646,0.556 6.399,0.514 14.614,0.852 20.908,-1.675 3.352,-1.345 4.767,-4.062 8.363,-4.457 5.154,-0.569 13.124,0.423 18.404,0 1.26,-0.105 2.435,-0.626 3.344,-0.556 1.766,0.127 2.836,1.627 5.019,1.669 2.76,0.063 7.146,-4.302 11.151,-3.626 1.725,1.169 -1.379,2.795 0.275,3.907 1.57,1.303 3.717,0.015 6.132,0 1.316,-0.014 2.942,0.669 4.181,0.557 3.07,-0.268 5.978,-3.02 9.758,-3.9 3.006,-0.704 7.139,-0.965 10.877,-0.564 2.682,0.296 4.977,1.197 7.525,0.838 1.233,-0.169 2.331,-1.063 3.626,-1.394 1.183,-0.303 2.351,-0.014 3.344,-0.274 0.929,-0.254 1.852,-1.127 2.788,-1.394 5.189,-1.486 12.08,-2.218 17.565,-3.908 3.224,-0.992 6.526,-2.991 9.201,-3.062 1.323,-0.042 2.492,0.57 4.182,0.556"
                   style="fill:#000000;fill-opacity:1;fill-rule:nonzero;stroke:none"
                   id="path3056" /></g><g
                 transform="translate(1316.8735,91.6855)"
                 id="g3058"
                 style="fill:#000000"><path
                   d="m 0,0 c -0.83,-3.479 -3.491,-7.343 -6.97,-9.758 -2.519,-1.753 -10.51,-5.28 -11.426,-0.281 -0.259,1.393 1.556,7.863 2.225,9.201 1.965,3.907 4.076,1.359 7.251,0.838 3.253,-0.528 6.316,1.971 8.92,0"
                   style="fill:#000000;fill-opacity:1;fill-rule:nonzero;stroke:none"
                   id="path3060" /></g><g
                 transform="translate(1295.1274,497.0342)"
                 id="g3062"
                 style="fill:#000000"><path
                   d="m 0,0 c 1.126,-3.344 1.907,-6.639 2.788,-9.757 -3.07,-3.823 -9.145,-2.408 -13.658,-4.457 -2.112,-0.964 -2.703,-4.484 -4.737,-5.019 -1.648,-0.43 -2.915,1.422 -4.464,1.394 -4.006,-0.078 -5.963,-6.703 -10.87,-5.02 -2.809,-1.675 0.113,-8.096 -3.344,-8.638 -2.464,-0.387 -3.809,2.788 -5.301,4.738 -1.81,2.365 -4.386,3.661 -4.456,5.576 -0.078,1.985 4.005,5.308 5.294,6.688 1.584,1.696 4.688,4.857 6.687,5.301 3.717,0.817 7.491,-0.359 10.321,0.831 2.443,1.042 2.577,4.885 3.9,5.857 1.119,0.823 2.394,0.598 3.345,1.112 2.59,1.401 5.385,6.224 3.906,11.151 -0.935,3.112 -6.089,6.519 -2.787,10.321 C -8.435,19.55 -1.929,14.686 -1.112,9.757 -0.796,7.835 -1.852,5.914 -1.669,3.907 -1.57,2.753 -0.507,1.514 0,0"
                   style="fill:#000000;fill-opacity:1;fill-rule:nonzero;stroke:none"
                   id="path3064" /></g><g
                 transform="translate(1296.2466,527.4258)"
                 id="g3066"
                 style="fill:#000000"><path
                   d="m 0,0 c -0.627,-1.422 -1.887,-1.126 -3.069,-1.95 -1.141,-0.802 -2.493,-3.358 -3.901,-3.626 -2.231,-0.422 -4.752,2.197 -6.969,1.669 -2.619,-0.619 -1.084,-2.626 -1.951,-5.012 -2.288,0.485 -6.047,3.034 -6.138,5.575 -0.057,1.598 2.02,2.584 2.513,4.456 0.83,3.19 -1.316,4.795 -2.513,7.808 -0.077,0.451 0.267,0.478 0.282,0.838 2.724,0.57 8.074,-4.562 14.221,-5.576 C -3.556,3.527 -0.232,3.879 0,0"
                   style="fill:#000000;fill-opacity:1;fill-rule:nonzero;stroke:none"
                   id="path3068" /></g><g
                 transform="translate(1285.9331,244.46)"
                 id="g3070"
                 style="fill:#000000"><path
                   d="M 0,0 C 0.288,-2.316 -3.753,-2.056 -4.182,-0.556 -4.098,1.239 -0.5,1.803 0,0"
                   style="fill:#000000;fill-opacity:1;fill-rule:nonzero;stroke:none"
                   id="path3072" /></g><g
                 transform="translate(1266.4185,550.8408)"
                 id="g3074"
                 style="fill:#000000"><path
                   d="M 0,0 C 2.76,-1.457 9.447,-4.766 4.737,-7.807 1.887,-6.751 -1.085,-3.146 0,0"
                   style="fill:#000000;fill-opacity:1;fill-rule:nonzero;stroke:none"
                   id="path3076" /></g><g
                 transform="translate(1253.5913,256.7236)"
                 id="g3078"
                 style="fill:#000000"><path
                   d="M 0,0 C 3.196,1.732 6.681,5.555 12.264,3.626 11.046,0.155 6.843,0.232 4.182,-1.394 1.499,-3.027 -0.781,-5.814 -4.182,-6.132 -4.436,-5.639 -4.809,-5.266 -5.294,-5.013 -5.309,-1.9 -2.204,-1.189 0,0"
                   style="fill:#000000;fill-opacity:1;fill-rule:nonzero;stroke:none"
                   id="path3080" /></g><g
                 transform="translate(1246.0659,309.1367)"
                 id="g3082"
                 style="fill:#000000"><path
                   d="M 0,0 C 3.28,-0.007 6.363,1.007 8.638,-0.281 8.215,-7.251 -2.599,-1.95 -9.758,-3.069 c -1.527,-0.233 -1.978,-1.415 -3.626,-0.831 0.092,2.358 2.641,4.745 5.294,5.012 C -6.041,1.323 -2.985,0.007 0,0"
                   style="fill:#000000;fill-opacity:1;fill-rule:nonzero;stroke:none"
                   id="path3084" /></g><g
                 transform="translate(1248.853,300.499)"
                 id="g3086"
                 style="fill:#000000"><path
                   d="m 0,0 c 0.317,-3.852 -4.949,-4.288 -6.413,-7.252 2.316,-3.541 3.21,-8.497 5.857,-11.707 -0.113,-2.126 0.43,-4.9 -0.838,-5.857 -5.611,-1.071 -8.637,9.01 -10.877,12.545 -4.293,-0.81 -0.373,-14.531 -6.131,-12.827 -2.817,0.837 0.042,4.766 -0.556,7.807 -0.528,2.669 -3.147,3.225 -3.345,5.302 -0.162,1.718 1.894,3.541 2.507,5.294 0.887,2.527 0.323,7.391 3.344,7.525 1.485,0.07 3.492,-3.133 4.463,-3.344 C -8.659,-3.231 -4.702,0.88 0,0"
                   style="fill:#000000;fill-opacity:1;fill-rule:nonzero;stroke:none"
                   id="path3088" /></g><g
                 transform="translate(1238.5396,258.9551)"
                 id="g3090"
                 style="fill:#000000"><path
                   d="M 0,0 C -1.027,-2.104 -6.758,-1.098 -7.251,0.838 -6.266,3.035 -0.485,2.373 0,0"
                   style="fill:#000000;fill-opacity:1;fill-rule:nonzero;stroke:none"
                   id="path3092" /></g><g
                 transform="translate(1233.2388,252.2676)"
                 id="g3094"
                 style="fill:#000000"><path
                   d="m 0,0 c -0.324,-0.415 -0.697,-0.788 -1.112,-1.119 -2.113,0.682 -4.379,1.196 -5.02,3.35 C -4.563,4.526 -0.077,2.619 0,0"
                   style="fill:#000000;fill-opacity:1;fill-rule:nonzero;stroke:none"
                   id="path3096" /></g><g
                 transform="translate(1222.9253,314.4307)"
                 id="g3098"
                 style="fill:#000000"><path
                   d="M 0,0 C 0.802,-1.633 3.16,-3.394 3.069,-4.456 2.886,-6.54 -1.31,-6.448 -2.232,-8.638 c -0.852,-2.027 0.056,-2.161 -0.275,-5.294 -1.176,-2.274 -4.329,-2.823 -5.301,-5.576 -1.175,-3.323 0.176,-7.603 -2.505,-10.039 -1.852,0.092 -3.88,-1.605 -6.132,-1.393 -2.437,0.224 -4.774,3.576 -8.646,3.625 -1.485,0.014 -3.231,-0.944 -4.738,-0.838 -1.196,0.085 -2.154,1.183 -3.907,1.669 -2.105,0.591 -4.083,0.267 -5.012,0.838 -1.908,1.175 -1.62,4.512 -2.232,6.413 -0.62,1.921 -2.936,2.95 -4.182,5.576 -1.81,3.802 -2.591,12.312 2.231,13.101 1.944,0.324 3.943,-1.169 5.295,-0.838 2.689,0.662 2.217,4.14 4.463,5.582 1.246,0.803 3.521,0.465 5.294,1.113 1.831,0.669 3.203,2.408 4.464,3.9 1.168,1.395 2.084,3.732 3.618,4.738 1.739,1.141 3.344,1.169 4.745,2.232 3.654,2.788 3.767,6.674 6.688,10.039 2.471,2.844 6.385,-2.738 6.688,-5.02 1.387,-1.774 4.112,-2.211 5.301,-4.181 C 1.985,12.108 -2.647,11.68 -1.676,4.745 -1.514,3.618 -0.739,1.514 0,0"
                   style="fill:#000000;fill-opacity:1;fill-rule:nonzero;stroke:none"
                   id="path3100" /></g><g
                 transform="translate(1225.7124,259.2373)"
                 id="g3102"
                 style="fill:#000000"><path
                   d="m 0,0 c -1.415,-2 -6.321,0.162 -8.081,-1.95 -2.901,0.07 -5.829,0.112 -6.414,2.506 0.831,2.042 3.477,0.64 5.576,0.838 C -5.554,1.696 -0.9,4.062 0,0"
                   style="fill:#000000;fill-opacity:1;fill-rule:nonzero;stroke:none"
                   id="path3104" /></g><g
                 transform="translate(1206.7544,260.3496)"
                 id="g3106"
                 style="fill:#000000"><path
                   d="m 0,0 c -2.45,-2.591 -6.068,-0.726 -9.201,-0.274 -2.83,0.401 -5.851,0.204 -8.92,0.555 -3.9,0.451 -7.435,2.606 -11.151,3.063 -2.253,0.281 -4.563,-0.324 -6.689,0 -2.513,0.387 -11.855,3.921 -11.989,6.413 -0.134,2.563 4.203,3.295 8.082,2.788 5.013,-0.654 8.349,-5.075 14.777,-4.182 1.528,0.211 2.654,1.338 4.182,1.394 3.253,0.12 6.47,-2.407 10.313,-1.949 0.838,-0.895 0.268,-1.648 0.283,-3.071 C -7.047,2.992 -1.704,3.315 0,0"
                   style="fill:#000000;fill-opacity:1;fill-rule:nonzero;stroke:none"
                   id="path3108" /></g><g
                 transform="translate(1171.146,294.1484)"
                 id="g3110"
                 style="fill:#000000"><path
                   d="M 0,0 C 7.096,0 7.096,-11.004 0,-11.004 -7.09,-11.004 -7.09,0 0,0"
                   style="fill:#000000;fill-opacity:1;fill-rule:nonzero;stroke:none"
                   id="path3112" /></g><g
                 transform="translate(1160.7544,295.4795)"
                 id="g3114"
                 style="fill:#000000"><path
                   d="M 0,0 C 0.873,-0.113 3.957,-4.407 3.907,-5.576 3.809,-7.547 0.853,-7.441 0,-10.039 c -1.31,-4.006 0.592,-8.547 -1.668,-10.596 -1.274,-0.767 -3.556,-0.535 -5.576,-0.555 -5.062,3.561 -9.068,7.793 -13.383,12.544 -1.57,1.725 -3.485,3.225 -4.463,5.02 -1.451,2.661 -1.964,5.59 -3.626,8.082 -1.457,2.196 -4.146,3.752 -5.576,6.132 -1.168,1.957 -1.274,4.526 -2.506,6.413 -1.147,1.753 -3.098,2.507 -4.463,3.907 -0.894,0.915 -1.394,2.345 -2.225,3.344 -3.506,4.196 -10.243,6.386 -10.595,12.546 1.436,1.64 2.908,-0.612 5.576,-1.119 1.725,-0.325 3.773,0.14 5.019,-0.276 2.535,-0.851 4.28,-4.807 6.97,-6.968 1.499,-1.211 3.471,-2.049 5.012,-3.345 1.655,-1.387 2.866,-3.372 4.182,-4.182 1.817,-1.112 4.33,-1.845 6.695,-3.35 3.218,-2.049 8.977,-4.182 9.758,-8.365 0.189,-1.041 -0.493,-2.801 -0.282,-3.618 0.38,-1.464 2.239,-2.097 3.344,-3.344 1.372,-1.555 1.655,-3.878 3.625,-4.189 C -2.217,-2.507 -2.126,0.274 0,0"
                   style="fill:#000000;fill-opacity:1;fill-rule:nonzero;stroke:none"
                   id="path3116" /></g><g
                 transform="translate(1029.1699,354.0234)"
                 id="g3118"
                 style="fill:#000000"><path
                   d="M 0,0 C 2.401,-0.788 10.412,-10.524 8.082,-15.896 7.42,-17.424 4.661,-19.388 1.95,-18.958 -3.569,-18.086 -2.513,-5.801 -0.837,-0.838 -0.683,-0.437 -0.401,-0.154 0,0"
                   style="fill:#000000;fill-opacity:1;fill-rule:nonzero;stroke:none"
                   id="path3120" /></g><g
                 transform="translate(876.1206,229.127)"
                 id="g3122"
                 style="fill:#000000"><path
                   d="m 0,0 c 0.183,-1.521 0.971,-3.146 0.831,-3.9 -0.402,-2.225 -2.852,-2.682 -3.619,-4.189 -0.19,-6.118 -2.591,-11.426 -4.745,-16.445 -1.851,-4.33 -2.928,-9.089 -4.456,-12.827 -0.556,-1.359 -1.725,-2.422 -2.232,-3.618 -2.007,-4.739 -2.745,-12.194 -6.413,-14.221 -1.317,-0.726 -6.407,-1.972 -7.808,-1.95 -3.414,0.055 -6.371,2.611 -7.244,5.575 -0.472,1.584 -0.007,3.238 -0.281,5.019 -0.338,2.232 -1.669,4.147 -1.394,6.689 0.619,5.674 6.146,8.427 6.413,13.101 0.204,3.52 -1.781,7.019 -1.394,10.595 0.246,2.239 1.844,5.928 3.626,7.251 2.57,1.908 6.047,1.711 8.638,3.063 2.147,1.119 5.111,2.97 6.695,5.019 1.344,1.739 1.415,3.725 2.506,5.02 0.753,0.894 2.443,1.133 3.344,2.231 0.81,0.98 0.627,2.816 1.957,3.9 C -1.704,11.961 -0.591,4.872 0,0"
                   style="fill:#000000;fill-opacity:1;fill-rule:nonzero;stroke:none"
                   id="path3124" /></g><g
                 transform="translate(815.6187,651.4849)"
                 id="g3126"
                 style="fill:#000000"><path
                   d="M 0,0 C -0.81,3.013 4.907,2.527 3.907,-0.282 3.013,-1.119 0.57,-1.049 0,0"
                   style="fill:#000000;fill-opacity:1;fill-rule:nonzero;stroke:none"
                   id="path3128" /></g><g
                 transform="translate(781.334,484.7705)"
                 id="g3130"
                 style="fill:#000000"><path
                   d="M 0,0 C 0.126,2.302 5.378,3.147 6.406,1.112 6.062,-1.126 1.077,-2.668 0,0"
                   style="fill:#000000;fill-opacity:1;fill-rule:nonzero;stroke:none"
                   id="path3132" /></g><g
                 transform="translate(685.7095,499.8223)"
                 id="g3134"
                 style="fill:#000000"><path
                   d="M 0,0 C 2.908,2.351 9.377,0.76 13.383,0.837 12.63,-1.295 12.517,-4.062 10.87,-5.294 6.301,-4.471 2.042,-3.344 0,0"
                   style="fill:#000000;fill-opacity:1;fill-rule:nonzero;stroke:none"
                   id="path3136" /></g><g
                 transform="translate(665.3569,514.5991)"
                 id="g3138"
                 style="fill:#000000"><path
                   d="M 0,0 C 3.83,3.999 7.85,1.887 6.414,-5.85 5.498,-8.159 1.514,-11.243 -0.282,-7.808 0.331,-5.104 0.07,-3.112 0,0"
                   style="fill:#000000;fill-opacity:1;fill-rule:nonzero;stroke:none"
                   id="path3140" /></g><g
                 transform="translate(670.9326,523.5186)"
                 id="g3142"
                 style="fill:#000000"><path
                   d="M 0,0 C 0.317,-2.358 -0.669,-3.414 -1.95,-4.182 -5.625,-3.534 -2.83,3.063 0,0"
                   style="fill:#000000;fill-opacity:1;fill-rule:nonzero;stroke:none"
                   id="path3144" /></g><g
                 transform="translate(636.9224,573.9814)"
                 id="g3146"
                 style="fill:#000000"><path
                   d="m 0,0 c 0.324,-2.661 -3.309,-3.71 -2.788,-6.688 -3.83,-3.006 -10.215,-1.45 -16.452,-2.231 -2.823,-0.36 -5.935,-3.169 -8.92,-0.838 -0.69,1.872 2.478,2.126 2.788,3.9 -0.218,1.647 -2.302,1.415 -2.788,2.788 0.809,2.168 3.337,2.611 3.07,5.857 1.555,1.696 4.548,1.056 5.019,3.344 0.324,1.591 -0.922,3.569 -2.513,4.463 -0.916,0.514 -2.316,0.275 -3.344,0.838 -2.718,1.492 -3.703,4.604 -5.294,5.294 0.204,3.055 -0.838,5.266 0,7.252 0.507,1.203 4.167,4.604 6.132,5.293 2.435,0.859 4.984,0.092 6.413,1.951 0.64,0.091 1.07,-0.043 1.394,-0.275 -0.014,-1.76 -1.493,-2.049 -1.675,-3.626 0.344,-2.534 4.808,-0.95 5.293,-3.343 -0.422,-2.605 -2.766,-3.12 -2.788,-5.02 -0.006,-1.655 3.38,-4.794 5.02,-6.97 C -10.208,10.377 -8.068,9.18 -6.97,7.526 -6.012,6.083 -5.801,4.365 -5.02,3.625 -3.555,2.239 -0.247,2.006 0,0"
                   style="fill:#000000;fill-opacity:1;fill-rule:nonzero;stroke:none"
                   id="path3148" /></g><g
                 transform="translate(606.5308,584.5767)"
                 id="g3150"
                 style="fill:#000000"><path
                   d="m 0,0 c 0.274,-2.091 -1.979,-2.394 -2.788,-4.738 -0.725,-2.133 0.141,-4.667 -0.831,-6.139 -0.852,-1.274 -3.168,-1.197 -4.745,-1.668 -3.506,-1.049 -10.278,-5.167 -13.101,-0.557 0.408,2.472 2.802,2.964 3.626,5.013 0.049,1.612 -1.669,2.464 -1.394,4.182 0.337,2.105 1.921,1.38 4.181,2.232 1.641,0.626 2.345,2.612 4.464,3.907 C -6.864,4.506 -0.359,2.767 0,0"
                   style="fill:#000000;fill-opacity:1;fill-rule:nonzero;stroke:none"
                   id="path3152" /></g><g
                 transform="translate(124.5161,596.0024)"
                 id="g3154"
                 style="fill:#000000"><path
                   d="M 0,0 C 0.063,0.528 -0.317,0.62 -0.275,1.12 -1.126,1.126 -2.112,1.281 -1.95,0.282 -1.549,-0.521 -0.472,-0.662 0,0 m 7.807,-40.423 c 1.317,1.351 -0.556,4.21 -2.513,3.069 -0.19,-1.021 0.359,-3.485 2.513,-3.069 m 95.899,81.41 c 1.781,0.303 3.611,-0.5 4.745,1.112 -1.33,6.139 -9.821,2.387 -14.777,1.95 -1.042,-1.745 -2.436,-3.139 -2.788,-5.575 3.844,-0.972 8.484,1.774 12.82,2.513 M 105.1,20.909 c 1.584,0.549 3.78,0.267 4.182,1.957 -1.303,1.042 -2.64,2.45 -4.182,2.507 -2.02,0.07 -2.992,-1.718 -5.019,-2.789 -2.359,-1.246 -5.625,-1.548 -5.851,-3.625 4.316,-0.845 8.202,1.035 10.87,1.95 m 12.827,-254.249 c 0.141,0.415 0.408,0.704 0.556,1.119 -0.845,2.773 -3.52,-1.014 -0.556,-1.119 m 15.052,209.088 c 3.111,0.112 5.216,9.306 0,8.088 -3.493,-0.816 -4.337,-8.244 0,-8.088 m 22.027,73.877 c 0.93,0.599 2.352,1.408 1.669,2.788 -3.076,1.443 -8.279,0.345 -12.82,0.837 -2.576,3.641 -6.885,4.204 -7.251,-1.675 5.188,-4.21 13.045,1.965 18.402,-1.95 m 12.82,-105.1 c -1.154,1.359 -7.406,-0.162 -9.201,-1.394 -1.232,-0.852 -2.07,-2.928 -3.344,-4.464 -1.316,-1.584 -2.788,-2.808 -3.9,-4.181 -1.007,-1.239 -6.653,-9.384 -2.232,-10.314 1.887,-0.394 5.766,3.52 6.132,5.02 1.261,5.111 3.562,8.758 7.526,11.151 2.295,1.387 4.646,1.211 5.019,4.182 m 3.907,4.463 c 5.555,2.366 -1.098,9.652 -3.625,10.314 -4.52,1.183 -10.947,-3.316 -16.171,-4.738 -2.942,-0.803 -5.745,-0.873 -6.413,-3.351 2.64,-4.365 7.856,0.957 11.707,0.282 1.95,-0.346 3.091,-3.014 5.019,-3.345 1.317,-0.225 8.956,0.613 9.483,0.838 m 12.264,-21.19 c -3.963,1.408 -7.624,-0.958 -10.87,-1.394 -1.936,-0.26 -5.462,0.394 -5.019,-2.506 0.359,-2.366 4.013,-1.507 6.132,-0.838 4.407,1.394 7.188,2.591 9.757,4.738 m 3.344,-171.734 c 2.204,0.359 1.563,5.421 -1.112,4.189 -2.021,-0.936 -0.972,-4.52 1.112,-4.189 m 0.556,182.885 c 2.19,1.725 1.218,5.245 -1.112,5.858 -0.915,0.239 -2.133,-0.676 -3.625,-0.564 -1.577,0.12 -3.155,1.563 -4.457,1.676 -2.224,0.19 -4.484,-0.908 -5.301,-1.95 -0.085,-1.669 1.225,-1.936 1.119,-3.626 -2.71,-1.936 -1.274,-8.413 1.395,-8.645 2.83,-0.246 4.294,7.16 8.081,7.807 1.373,0.24 2.077,-0.781 3.9,-0.556 m 14.503,-4.738 c -1.162,1.134 -4.949,0.81 -7.533,0.557 -1.824,-0.184 -3.992,-0.571 -4.182,-1.951 2.901,-1.33 10.807,-2.288 11.715,1.394 M 260.944,71.09 c -0.359,0.387 -1.316,0.387 -1.675,0 l 0,-1.112 c 1.183,-0.254 1.401,0.458 1.675,1.112 m 32.061,-27.315 c 1.372,-0.169 2.147,0.267 1.95,1.668 -1.239,0.873 -3.049,-0.274 -1.95,-1.668 m 79.727,-374.127 c 0.564,-10.13 -7.215,-13.376 -11.707,-20.078 -0.936,-1.401 -1.457,-3.618 -2.788,-5.575 -2.675,-3.936 -5.653,-4.752 -5.294,-11.983 0.099,-1.992 1.113,-3.929 1.113,-6.138 0,-2.69 -0.233,-6.224 -0.838,-8.639 -0.458,-1.851 -1.986,-3.344 -2.232,-5.02 -0.246,-1.703 0.5,-3.019 0.282,-4.463 -0.24,-1.605 -1.845,-3.878 -3.07,-6.131 -2.576,-4.759 -3.139,-10.356 -8.363,-12.264 -3.07,-1.126 -7.231,-0.5 -10.588,-1.676 -1.359,-0.472 -3.077,-1.731 -4.746,-2.506 -4.85,-2.259 -11.763,-5.308 -13.101,-10.313 -1.19,-4.457 1.662,-8.019 0.838,-13.109 -0.866,-1.513 -2.034,-3.02 -3.344,-4.738 -1.204,-1.577 -1.802,-3.442 -3.069,-5.019 -1.676,-2.091 -4.281,-3.021 -5.295,-5.851 -0.344,-0.957 -0.126,-2.104 -0.556,-3.625 -0.161,-0.563 -1.189,-1.43 -1.675,-2.507 -0.451,-0.992 -0.43,-2.26 -0.838,-3.069 -1.274,-2.576 -5.062,-8.427 -7.807,-9.201 -5.787,-1.626 -11.891,2.457 -15.89,1.675 0.578,-2.794 2.605,-2.505 3.907,-4.463 0.761,-1.155 1.176,-2.682 2.225,-3.9 1.253,-1.45 2.358,-1.985 2.514,-3.626 0.316,-3.435 -2.359,-6.892 -4.182,-8.089 -1.669,-1.09 -5.132,-1.731 -8.089,-2.224 -2.063,-0.345 -7.385,-0.366 -8.364,-1.676 -1.436,-1.942 0.761,-6.723 -0.275,-8.645 -2.083,-4.076 -7.687,0.113 -10.595,-1.112 -0.246,-2.105 0.529,-4.308 2.232,-5.295 1.753,-1.027 4.414,0.311 5.576,-1.675 -0.57,-2.774 -3.555,-3.132 -4.182,-5.857 0.077,-2.654 0.894,-3.352 0.556,-5.013 -0.725,-3.583 -6.294,-3.435 -6.131,-7.251 0.239,-5.71 10.954,-3.372 11.151,-8.92 0.112,-3.365 -3.07,-3.4 -4.182,-6.687 -0.598,-1.761 0.345,-2.169 0,-3.626 -0.465,-1.979 -2.788,-2.549 -2.788,-4.738 -0.007,-2.668 3.9,-5.597 5.85,-7.807 1.908,-2.162 4.358,-5.245 6.97,-6.695 3.914,-2.161 9.743,-1.676 11.433,-5.577 -0.535,-2.343 -2.795,-2.963 -5.019,-3.618 l -0.557,0 c -0.753,0.458 -3.428,0.458 -4.182,0 l -3.9,0 c -3.731,1.718 -8.257,2.83 -12.827,4.456 -1.647,0.585 -3.506,1.986 -5.294,2.788 -1.344,0.606 -2.858,0.845 -3.907,1.394 -2.4,1.261 -5.104,5.351 -7.526,6.97 -1.471,0.985 -3.78,1.507 -4.738,2.513 -0.915,0.951 -1.415,3.013 -2.231,4.175 -0.901,1.288 -2.556,2.218 -3.626,3.625 -2.316,3.077 -5.273,7.217 -5.294,9.484 -0.021,2.231 2.126,3.745 1.394,5.849 -0.683,1.979 -4.963,1.549 -5.576,3.907 -0.373,1.423 1.232,3.824 1.113,5.851 -0.064,1.169 -2.26,2.773 -1.394,4.464 1,1.949 2.886,-0.162 4.463,0.837 -1.183,4.02 0.092,10.497 -3.907,11.708 -2.056,-1.732 2.098,-5.618 -1.394,-6.689 -3.372,1.494 -2.591,5.936 -3.344,9.195 -0.493,2.154 -1.563,4.091 -1.668,6.414 -0.057,1.218 0.478,2.639 0.274,3.899 -0.591,3.76 -4.773,6.836 -5.02,10.596 -0.112,1.816 1.113,3.35 1.395,5.301 0.197,1.309 -0.184,2.788 0,4.181 0.246,1.768 1.225,3.401 1.394,5.013 0.33,3.069 -0.008,8.314 -0.557,10.877 -0.69,3.218 -3.245,5.956 -3.626,9.476 -0.133,1.267 0.423,3.386 0.282,5.019 -0.134,1.514 -0.964,3.007 -1.112,4.738 -0.141,1.591 0.394,3.112 0.556,5.02 0.296,3.499 -0.683,7.399 -0.556,10.877 0.035,1.027 0.57,1.781 0.556,2.787 -0.035,2.873 -0.993,5.773 -1.119,8.639 -0.218,5.3 0.584,9.045 -0.275,13.939 -0.647,3.703 -1.45,9.377 -2.788,11.707 -1.492,2.591 -7.357,6.998 -10.313,8.646 -1.95,1.084 -4.288,1.463 -6.414,2.505 -4.541,2.232 -13.34,6.935 -15.333,11.433 -0.577,1.296 -0.5,3.014 -1.119,4.457 -1.211,2.858 -3.766,5.336 -5.576,8.089 -3.442,5.259 -6.223,11.855 -9.757,17.283 -1.788,2.76 -3.337,5.886 -5.294,8.082 -1.148,1.295 -4.823,2.513 -5.295,4.463 -0.626,2.577 -2.534,6.118 -2.231,8.089 0.401,2.661 5.582,4.815 5.576,7.244 -0.007,2.064 -2.767,3.267 -3.345,5.02 -1.407,4.259 0.824,6.765 2.507,10.313 0.556,1.169 1.098,3.042 1.675,3.9 1.021,1.536 3.098,1.965 4.456,3.626 0.761,0.929 1.24,2.866 2.232,4.182 2.12,2.817 5.541,3.872 6.414,6.413 0.711,2.071 1.126,12.426 0.274,15.89 -0.485,2.006 -2.351,3.675 -3.062,5.575 -1.26,3.365 -1.556,7.04 -5.02,6.97 -2.14,-0.042 -3.646,-2.407 -5.019,-3.9 -0.331,-1.985 -0.155,-4.132 -2.232,-4.738 -3.168,-0.936 -4.386,3.337 -8.082,4.456 -1.471,0.451 -3.816,0.423 -4.737,0.838 -2.697,1.211 -3.57,5.16 -6.414,6.695 -2.379,1.275 -4.414,0.83 -5.857,2.788 -0.599,1.344 -0.127,3.774 -0.275,5.576 -3.056,1.788 -5.646,8.455 -9.201,10.032 -2.358,1.049 -5.97,0.95 -8.92,1.95 -1.387,0.472 -2.457,1.077 -3.907,1.394 -1.788,0.401 -3.626,0.422 -5.012,1.119 -5.52,2.739 -8.498,11.616 -15.334,11.426 -2.914,-0.078 -5.723,-2.802 -8.363,-2.788 -2.626,0.014 -7.026,2.098 -10.321,3.626 -3.421,1.591 -7.209,2.456 -10.032,3.9 -2.281,1.168 -3.865,3.302 -5.857,4.189 -1.528,0.676 -3.759,0.795 -5.013,1.386 -1.781,0.845 -3.639,2.647 -5.857,4.189 -2.105,1.457 -4.379,3.682 -4.463,5.569 -0.092,2.182 2.006,4.041 2.231,6.139 0.719,6.639 -4.174,11.412 -7.251,15.333 -2.281,2.915 -4.956,5.386 -7.244,8.082 0.127,1.788 0.127,2.112 0,3.9 -1.732,1.683 -3.189,4.175 -5.019,6.695 -1.655,2.274 -4.879,4.696 -5.295,7.244 -0.513,3.133 1.19,5.886 0,8.927 -1.985,5.047 -8.989,2.767 -8.089,-3.907 0.254,-1.838 2.845,-4.309 3.626,-6.132 0.803,-1.859 0.648,-4.175 1.394,-6.414 0.718,-2.146 2.879,-3.998 3.625,-6.413 1.184,-3.816 1.148,-7.927 2.232,-10.314 0.958,-2.119 4.485,-4.125 2.507,-6.688 -2.64,-0.549 -3.654,2.091 -5.295,3.626 -0.915,0.852 -4.231,2.471 -4.738,4.456 -0.422,1.641 1.042,3.851 0.557,5.857 -0.958,3.936 -8.899,4.035 -8.927,8.082 -0.014,2.542 3.323,2.845 3.351,5.302 0.021,2.689 -3.668,4.963 -4.463,7.244 -0.726,2.091 -0.845,5.421 -1.113,8.363 -0.26,2.76 0.078,5.956 -0.563,8.089 -0.57,1.915 -3.449,4.548 -5.294,5.576 -2.443,1.359 -4.379,0.796 -5.576,2.788 -1.041,1.739 -1.724,5.371 -1.95,7.244 -0.401,3.351 -0.091,7.019 -0.281,10.595 -0.183,3.584 -0.55,7.019 0,10.87 1.38,2.696 3.893,4.027 5.301,6.695 0.978,1.858 1.119,4.153 2.225,6.132 2.041,3.64 6.49,7.005 9.482,10.595 3.225,3.865 6.195,7.568 8.082,11.989 0.676,1.57 2.492,5.048 2.232,6.97 -0.366,2.682 -5.421,4.893 -5.02,8.082 0.254,1.978 3.07,1.95 3.908,3.9 0.429,1.006 0.816,3.815 0.838,5.02 0.042,2.689 -1.38,5.491 -0.838,8.363 0.457,2.45 4.104,3.442 2.231,6.132 -1.858,2.661 -5.195,-1.436 -7.251,0.281 -1.887,1.584 0.38,3.499 0.556,6.414 0.071,1.161 -0.676,2.485 -0.556,3.344 0.169,1.246 2.598,3.344 1.95,4.181 -1.507,1.909 -3.196,6.752 -6.413,8.364 -4.091,2.056 -8.519,0.669 -14.214,1.675 -3.492,0.613 -5.146,3.88 -8.363,3.619 -1.986,-0.155 -3.126,-2.429 -5.858,-3.619 -2.703,-1.182 -6.237,-0.781 -8.92,-1.394 -2.661,-0.612 -3.942,-2.449 -6.695,-2.231 -2.294,0.176 -2.309,2.246 -5.012,2.506 -1.056,0.106 -3.055,-0.654 -4.738,-0.838 -4.309,-0.45 -12.087,-0.669 -16.452,0.282 -3.992,0.866 -6.456,2.133 -10.87,4.182 -3.316,1.534 -9.469,3.429 -9.202,5.857 0.169,1.563 5.83,3.217 8.083,3.9 3.632,1.106 5.871,2.894 8.645,3.069 1.07,0.064 2.478,-0.661 3.9,-0.563 1.429,0.106 3.189,1.422 5.019,1.676 3.894,0.542 9.385,-0.197 8.92,3.626 -2.957,2.337 -15.016,-1.732 -15.333,3.343 -0.19,3.07 4.576,4 8.089,4.739 3.196,0.676 8.047,1.816 10.869,1.675 3.183,-0.162 7.371,-3.724 9.202,0.274 0.887,2.845 -1.084,5.231 -1.676,7.533 2.366,3.267 6.723,2.859 10.039,3.344 3.788,0.557 6.878,1.232 10.596,2.788 3.259,1.366 6.723,2.281 10.587,2.788 3.788,0.493 7.463,1.922 10.877,2.232 2.809,0.253 5.386,0.028 8.082,0.556 2.387,0.465 4.907,1.788 7.533,1.668 1.753,-0.077 3.253,-1.358 5.013,-1.668 1.654,-0.289 3.548,0.084 5.301,-0.282 1.344,-0.281 2.555,-1.189 3.9,-1.394 2.112,-0.316 4.379,0.296 6.414,0 1.872,-0.267 3.463,-1.436 5.294,-1.668 4.294,-0.556 9.208,0.225 13.382,-0.564 1.584,-0.295 3.014,-1.076 4.739,-1.393 1.633,-0.296 3.428,0.042 5.019,-0.275 2.217,-0.443 4.069,-2.541 6.413,-2.788 4.316,-0.45 9.159,1.873 13.658,2.232 3.26,0.253 6.618,-0.134 10.039,0.556 3.112,0.627 6.125,1.831 8.92,1.95 1.52,0.064 2.794,-0.464 4.182,-0.282 1.442,0.198 3.174,1.93 4.737,1.676 2.077,-0.331 1.711,-2.957 3.908,-3.625 2.428,1.26 4.85,-0.085 7.525,0 2.605,0.091 4.936,1.288 7.808,0.837 5.076,-0.795 12.165,-5.765 16.164,-3.069 1.007,0.683 0.767,1.859 1.675,3.625 1.232,2.401 3.661,5.224 3.069,8.646 -5.589,-0.092 -10.925,-2.823 -17.29,-3.07 -6.427,4.027 1.718,6.526 6.414,8.364 3.872,1.52 6.934,4.892 11.714,5.575 3.901,0.563 8.188,-0.858 12.82,-1.394 2.704,-0.309 5.407,0.19 6.97,-0.274 2.739,-0.824 4.146,-3.534 6.413,-4.182 0.979,-0.281 2.584,-0.253 3.9,-0.563 2.507,-0.577 4.752,-1.901 7.252,0 1.964,-0.352 2.196,-2.443 4.181,-2.788 1.852,1 3.281,3.541 6.132,4.182 1.239,0.282 2.542,-0.211 3.9,0 2.274,0.366 5.301,3.442 6.695,0.563 -0.57,-2.013 -3.611,-2.316 -5.301,-3.907 -1.499,-1.415 -3.808,-4.66 -3.619,-6.132 0.332,-2.661 4.316,-1.633 4.457,-5.02 -0.591,-1.949 -2.858,-1.076 -4.738,-1.949 -1.718,-0.796 -2.358,-2.443 -4.182,-2.788 -5.068,-0.958 -9.271,1.274 -13.657,1.112 -0.204,-1.901 2.168,-3.006 3.344,-3.619 3.977,-2.091 7.216,-1.802 12.819,-1.675 2.873,0.063 6.175,-0.859 8.645,0.838 1.563,1.07 1.479,3.428 2.789,4.738 1.577,1.569 5.209,3.168 7.525,2.787 1.267,-0.211 3.049,-1.718 3.07,-2.787 0.042,-2.535 -3.584,-1.725 -3.626,-4.464 2.359,-1.415 8.589,1.549 8.92,3.907 0.239,1.718 -2.028,2.711 -1.951,4.456 0.134,2.922 4.105,2.873 3.626,5.858 -1.915,1.507 -3.914,-0.324 -5.857,0 -2.739,0.457 -5.203,3.738 -6.414,5.857 1.211,1.5 3.746,0.5 5.576,0.275 2.049,2.837 5.864,3.942 11.152,4.463 1.879,0.183 4.386,0.929 5.301,-0.838 0.45,-2.639 -3.907,-4.223 -3.07,-7.251 3.752,-0.936 4.985,4.126 8.089,6.139 1.366,0.887 3.323,1.478 5.294,2.225 1.718,0.654 3.612,2.273 5.02,2.231 1.542,-0.042 1.816,-1.309 3.344,-1.95 1.373,-0.577 3.168,0.395 3.626,-1.394 -3.232,-5.596 -15.277,-2.379 -18.403,-8.081 0.697,-3.823 -1.887,-7.47 0.281,-10.039 1.549,-1.831 5.041,-0.585 5.851,-2.507 1.091,-2.57 -3.379,-2.57 -2.225,-5.575 2.95,-1.768 6.463,1.682 9.194,3.062 2.929,1.485 6.632,3.238 6.97,6.695 -1.471,2.83 -6.962,0.641 -7.8,3.619 -0.458,1.619 1.682,5.244 2.224,5.857 2.908,3.259 13.059,7.899 20.353,7.251 1.387,-0.127 2.788,-0.972 4.181,-1.119 4.795,-0.493 10.455,2.07 14.222,0 3.027,1.767 6.659,-0.239 10.869,0.281 3.245,-1.914 2.351,-5.991 7.251,-7.807 1.331,-0.493 2.992,-0.141 4.739,-0.556 1.294,-0.31 2.696,-1.831 4.181,-2.513 2.112,-0.958 3.731,-0.74 4.182,-2.225 0.443,-1.458 -1.535,-2.401 -1.394,-3.907 1.204,-0.993 0.197,-2.486 0.838,-3.901 1.203,-2.583 4.238,-2.393 7.244,-3.625 2.112,-0.866 6.618,-3.52 6.413,-5.576 -0.133,-1.38 -4.231,-3.802 -5.575,-4.463 -0.951,-0.465 -5.654,-2.739 -7.244,-2.507 -2.634,0.388 -3.662,5.717 -7.252,5.576 -1.562,-0.063 -3.034,-1.007 -3.069,-3.069 -0.056,-3.661 4.097,-3.802 4.181,-6.97 0.113,-3.787 -2.069,-4.048 -5.294,-6.406 -2.309,0.936 -4.251,2.253 -7.251,2.506 -1.781,-2.119 2.929,-2.879 1.394,-5.575 -4.477,-0.951 -7.892,1.267 -11.982,2.506 -1.281,0.387 -3.126,0.232 -4.182,0.837 -1.584,0.916 -2.048,3.626 -3.351,5.02 -1.506,1.619 -4.512,3.914 -6.969,3.9 -3.443,-0.007 -8.427,-4.287 -11.152,-0.275 1.887,6.386 10.828,1.648 16.727,3.901 2.197,0.838 2.95,3.161 4.745,4.181 3.605,2.056 9.462,2.345 8.92,6.414 -0.275,2.049 -3.14,2.02 -4.738,3.069 -2.183,1.423 -3.851,6.442 -6.97,6.688 -1.605,0.127 -2.759,-1.232 -4.463,-1.394 -3.604,-0.338 -7.617,1.451 -10.87,0 -1.513,-0.866 -0.492,-2.252 -1.675,-3.9 -0.972,-1.351 -3.267,-1.732 -4.182,-3.069 -1.07,-1.57 -0.852,-3.52 -2.231,-4.738 -2.289,-2.028 -7.132,-2.351 -10.033,-3.344 -1.295,-0.443 -2.928,-1.964 -4.181,-1.957 -2.303,0.014 -3.288,3.098 -5.858,1.957 -0.225,-2.985 3.155,-4.196 5.295,-5.576 2.316,-1.492 4.752,-2.978 5.575,-5.575 -2.267,-4.816 -5.885,0.253 -9.476,0.274 -3.956,0.028 -9.729,-7.533 -13.101,-1.394 0.838,3.253 4.421,3.76 5.294,6.97 -3.935,-0.669 -7.364,-3.985 -11.989,-5.02 -1.943,-0.429 -3.837,-0.324 -5.576,-0.83 -3.337,-0.979 -5.667,-3.443 -9.194,-4.746 -1.38,-0.506 -3.027,-0.352 -4.464,-0.83 -3.365,-1.127 -7.398,-3.14 -10.869,-5.02 -3.548,-1.922 -7.554,-3.942 -9.757,-5.857 -1.19,-1.028 -4.288,-4.689 -4.183,-5.85 0.142,-1.662 3.267,-2.211 3.345,-3.907 -0.071,-1.028 -1.809,-3.246 -0.557,-4.738 1.141,-1.359 3.429,-0.261 5.851,-0.556 4.259,-0.529 7.047,-4.049 10.313,-5.858 2.471,-1.366 6.139,-2.992 8.927,-3.344 3.83,-0.479 8.117,1.12 8.638,-1.95 0.507,-2.949 -3.604,-4.006 -3.9,-5.857 2.063,-2.725 -1.401,-4.027 -1.394,-6.414 0.007,-1.936 2.379,-4.836 4.456,-5.012 2.809,-0.239 6.921,2.767 8.089,5.576 1.387,3.343 0.796,7.877 3.344,10.313 12.989,-0.359 23.979,5.9 23.141,19.234 -0.085,1.316 -0.831,3.013 -0.556,4.463 0.408,2.154 4.111,3.963 3.618,6.688 3.64,1.119 3.485,6.956 7.251,7.807 3.154,0.711 6.723,-2.231 10.87,-1.95 1.352,0.092 3.105,1.303 4.463,1.113 2.725,-0.381 4.365,-3.739 6.414,-5.295 1.809,-1.386 3.717,-0.943 4.182,-2.787 -0.542,-3.126 -2.739,-3.203 -2.514,-6.132 0.204,-2.556 2.859,-4.492 4.182,-4.745 2.035,-0.381 4.942,0.711 6.97,1.676 3.731,1.766 6.927,7.088 10.039,6.413 2.457,-0.536 4.379,-8.343 4.738,-11.152 0.387,-3.013 -0.409,-5.315 -0.275,-8.089 0.359,-4.702 6.28,-4.224 9.195,-6.688 0.879,-0.746 1.225,-2.654 1.957,-3.625 1.415,-1.887 3.126,-1.887 3.344,-3.901 0.52,-4.815 -4.365,-5.223 -3.907,-10.595 -1.007,-2.083 -3.549,-1.957 -3.345,-4.738 0.324,-4.399 6.646,-1.027 8.364,-4.463 0.929,-1.844 -0.155,-3.217 -0.838,-5.85 2.161,-2.577 2.147,-6.688 -1.668,-6.695 -2.317,0 -2.957,2.492 -5.302,3.07 -1.302,0.323 -3.076,0.26 -4.737,0.556 -1.423,0.253 -3.112,0.675 -4.457,0.837 -3.442,0.409 -7.166,-0.591 -9.201,1.394 3.316,4.407 7.723,8.751 11.989,12.546 1.267,1.133 3.992,1.907 3.344,4.181 -2.373,2.084 -5.287,-0.126 -7.525,-1.394 -2.352,-1.323 -5.154,-3.231 -7.808,-3.625 -4.611,-0.683 -10.729,1.351 -14.495,-1.113 -0.521,-2.105 4.287,-1.288 3.618,-4.463 -1.844,-0.303 -3.59,-0.451 -5.012,0.838 -1.296,1.168 -0.556,2.921 -1.394,3.625 -1.429,1.183 -6.801,1.507 -9.201,1.113 -2.929,-0.479 -5.52,-2.232 -5.858,-4.738 3.52,-1.648 9.321,1.697 10.595,-2.513 -1.928,-3.471 -6.469,-5.379 -5.857,-10.033 0.24,-1.794 2.373,-4.195 3.907,-4.463 1.542,-0.268 2.408,1.26 3.901,1.12 1.576,-0.148 1.217,-1.951 3.069,-1.676 2.682,1.147 4.167,4.914 7.244,4.738 3.689,-4.477 -3.33,-6.66 -7.244,-8.082 -4.463,-1.619 -10.264,-2.478 -13.665,-3.907 -1.781,-0.747 -8.525,-7.266 -9.476,-2.225 -0.682,3.633 3.337,2.584 4.182,5.576 -4.316,0.837 -8.335,-1.859 -12.263,-3.351 -5.604,-2.119 -15.101,-3.464 -16.453,-9.758 -0.267,-1.26 0.549,-3.618 -0.274,-4.456 -0.669,-0.676 -4.668,-0.795 -6.414,-1.394 -2.689,-0.922 -5.034,-2.894 -6.695,-3.344 -1.253,-0.345 -3.105,-0.246 -3.9,-0.563 -2.218,-0.859 -3.034,-3.858 -5.576,-5.85 -1.042,-0.817 -3.351,-1.409 -4.181,-2.232 -1.444,-1.436 -1.634,-5.033 -4.183,-5.576 -1.619,-0.141 -2.935,1.218 -4.463,0.282 -0.183,-3.555 1.253,-8.392 -0.274,-11.989 -3.302,-2.689 -6.928,-4.598 -11.152,-6.97 -2.337,-1.316 -4.428,-1.654 -7.251,-3.07 -1.999,-0.999 -3.83,-3.378 -6.132,-4.737 -5.322,-3.133 -11.75,-6.843 -11.707,-14.777 0.007,-1.718 0.894,-3.569 1.112,-5.576 0.134,-1.182 -0.141,-2.337 0,-3.625 0.331,-2.915 2.443,-6.625 0,-8.639 -3.752,1.542 -8.525,2.063 -11.151,4.738 -0.718,2.753 1.45,5.02 1.119,7.526 -0.268,2.014 -3.098,5.597 -4.745,5.858 -1.696,0.267 -3.259,-1.535 -5.012,-1.394 -2.084,0.162 -4.02,3.034 -6.695,3.343 -3.922,0.458 -6.808,-0.894 -11.151,-0.281 -4.204,-2.246 -5.436,-6.245 -10.589,-5.851 -1.816,0.134 -3.477,1.521 -5.576,1.951 -2.273,0.471 -5.723,1.274 -8.088,1.112 -4.746,-0.317 -8.188,-3.731 -12.264,-5.85 -3.598,-1.873 -8.688,-4.203 -9.757,-8.089 -0.585,-2.091 -0.092,-5.034 -0.838,-6.97 -0.493,-1.274 -1.57,-2.407 -2.232,-3.618 -3.126,-5.71 -5.717,-13.257 -3.344,-21.472 0.352,-1.218 3.457,-8.089 4.738,-9.476 1.436,-1.542 5.667,-3.858 8.082,-3.901 2.041,-0.042 4.435,1.036 6.413,1.395 2.295,0.408 5.167,0.443 7.251,1.112 6.027,1.929 4.837,10.081 10.87,12.827 2.633,1.189 5.682,1.429 10.314,1.668 1.471,-1.239 2.161,-3.407 1.957,-5.294 -0.155,-1.422 -1.507,-2.71 -2.232,-4.738 -0.633,-1.781 -0.767,-3.865 -1.393,-5.301 -0.832,-1.879 -2.683,-3.253 -3.345,-5.019 -0.436,-1.148 -0.197,-2.577 -0.556,-3.619 -0.64,-1.837 -3.098,-3.133 -1.957,-5.019 5.97,-2.373 13.193,0.675 18.402,-0.282 2.197,-0.401 6.731,-3.027 6.688,-6.413 -0.027,-2.535 -1.957,-4.196 -2.231,-6.97 -0.338,-3.492 -1.795,-7.765 -1.95,-10.588 -0.247,-4.626 6.786,-12.609 11.707,-12.546 5.302,0.071 8.392,5.274 14.777,2.507 2.119,-0.916 4.358,-4.351 6.695,-4.182 1.929,0.141 4.844,3.52 6.132,5.857 1.57,2.852 1.683,5.252 4.456,6.688 2.993,1.549 5.372,0.803 9.202,2.232 1.71,0.634 3.196,1.725 4.738,2.788 1.351,0.929 2.773,3.365 4.463,1.676 2.225,-2.226 -2.724,-3.479 -0.838,-5.858 3.865,-2.048 5.844,3.809 8.645,3.9 0.894,0.028 3.985,-1.739 5.576,-2.787 2.175,-1.43 2.915,-3.436 5.294,-3.901 1.528,-0.302 3.985,0.584 6.132,0.282 2.844,-0.409 4.541,-2.851 6.695,-2.788 2.626,0.071 3.886,2.928 6.132,3.344 4.921,0.902 6.751,-0.55 8.919,-3.626 2.43,-0.422 2.514,2.81 4.739,1.669 -1.219,-2.429 0.415,-3.549 1.393,-5.576 0.634,-1.302 0.529,-2.225 1.12,-2.788 1.33,-1.267 3.9,-1.267 5.85,-2.506 2.056,-1.295 3.217,-3.703 5.576,-6.413 2.428,-2.774 6.512,-5.647 9.757,-5.851 3.062,-0.197 5.555,0.867 8.089,0.557 5.766,-0.712 9.349,-3.591 13.383,-6.695 2.253,-1.733 4.288,-2.936 5.013,-5.013 0.507,-1.45 0.26,-3.394 0.837,-5.02 1.232,-3.47 6.294,-5.146 4.464,-11.151 0.837,-1.76 2.717,-2.393 4.738,-3.626 1.619,-0.985 2.985,-3.061 4.738,-3.344 1.133,-0.182 2.365,0.345 3.343,0.283 3.168,-0.219 5.344,-1.451 8.09,-2.514 1.703,-0.654 3.886,-0.908 5.019,-1.676 1.415,-0.957 1.598,-4.167 3.344,-5.013 1.141,-0.555 3.675,0.212 5.576,0 2.992,-0.344 7.054,-2.181 9.757,-2.231 1.641,-0.035 2.999,0.669 4.457,0.557 6.828,-0.522 10.7,-8.695 17.29,-11.152 2.041,-0.76 5.28,-0.225 6.688,-0.838 2.471,-1.07 4.555,-8.63 4.737,-11.982"
                   style="fill:#000000;fill-opacity:1;fill-rule:nonzero;stroke:none"
                   id="path3156" /></g><g
                 transform="translate(405.5317,647.3032)"
                 id="g3158"
                 style="fill:#000000"><path
                   d="M 0,0 C 0.584,-2.478 -7.336,-5.717 -8.089,-2.513 -8.688,0.049 -2.021,3.252 0,0"
                   style="fill:#000000;fill-opacity:1;fill-rule:nonzero;stroke:none"
                   id="path3160" /></g><g
                 transform="translate(396.3306,18.9268)"
                 id="g3162"
                 style="fill:#000000"><path
                   d="M 0,0 -4.182,0 C -3.429,0.458 -0.753,0.458 0,0"
                   style="fill:#000000;fill-opacity:1;fill-rule:nonzero;stroke:none"
                   id="path3164" /></g><g
                 transform="translate(383.7852,667.0923)"
                 id="g3166"
                 style="fill:#000000"><path
                   d="M 0,0 C 0.359,0.387 1.316,0.387 1.675,0 1.401,-0.654 1.183,-1.366 0,-1.112 L 0,0 z"
                   style="fill:#000000;fill-opacity:1;fill-rule:nonzero;stroke:none"
                   id="path3168" /></g><g
                 transform="translate(358.9761,622.7686)"
                 id="g3170"
                 style="fill:#000000"><path
                   d="M 0,0 C 0.056,-1.535 -5.541,-4.076 -6.139,-1.112 -6.237,-0.591 -6.111,0.451 -5.02,1.112 -3.534,2.028 -0.056,1.507 0,0"
                   style="fill:#000000;fill-opacity:1;fill-rule:nonzero;stroke:none"
                   id="path3172" /></g><g
                 transform="translate(242.999,363.7813)"
                 id="g3174"
                 style="fill:#000000"><path
                   d="M 0,0 C -0.147,-0.415 -0.415,-0.704 -0.556,-1.119 -3.52,-1.014 -0.845,2.773 0,0"
                   style="fill:#000000;fill-opacity:1;fill-rule:nonzero;stroke:none"
                   id="path3176" /></g><g
                 transform="translate(129.8101,558.6484)"
                 id="g3178"
                 style="fill:#000000"><path
                   d="M 0,0 C 1.957,1.141 3.83,-1.718 2.513,-3.069 0.359,-3.485 -0.19,-1.021 0,0"
                   style="fill:#000000;fill-opacity:1;fill-rule:nonzero;stroke:none"
                   id="path3180" /></g><g
                 transform="translate(124.2412,597.1221)"
                 id="g3182"
                 style="fill:#000000"><path
                   d="M 0,0 C -0.042,-0.5 0.338,-0.591 0.275,-1.12 -0.197,-1.781 -1.274,-1.641 -1.675,-0.838 -1.837,0.162 -0.852,0.007 0,0"
                   style="fill:#000000;fill-opacity:1;fill-rule:nonzero;stroke:none"
                   id="path3184" /></g><g
                 transform="translate(115.8779,580.6694)"
                 id="g3186"
                 style="fill:#000000"><path
                   d="m 0,0 c -0.591,-1.823 -2.204,-2.626 -3.907,-3.344 -0.535,0.401 -1,0.866 -1.394,1.394 C -5.182,0.697 -1.415,2.647 0,0"
                   style="fill:#000000;fill-opacity:1;fill-rule:nonzero;stroke:none"
                   id="path3188" /></g></g></g></g></g></g></g></svg>